<?xml version="1.0" encoding="UTF-8"?>
<svg id="Capa_2" data-name="Capa 2" xmlns="http://www.w3.org/2000/svg" xmlns:xlink="http://www.w3.org/1999/xlink" viewBox="0 0 21.5 21.5">
  <defs>
    <style>
      .cls-1 {
        clip-path: url(#clippath);
      }

      .cls-2 {
        stroke: #b62a2a;
        stroke-linecap: round;
        stroke-linejoin: round;
        stroke-width: 1.5px;
      }

      .cls-2, .cls-3 {
        fill: none;
      }
    </style>
    <clipPath id="clippath">
      <path class="cls-3" d="m8.86,21.02h4.05c2.84,0,4.26,0,5.34-.55.95-.49,1.73-1.26,2.21-2.21.55-1.08.55-2.5.55-5.34v-4.05c0-2.84,0-4.26-.55-5.34-.49-.95-1.26-1.73-2.21-2.21-1.08-.55-2.5-.55-5.34-.55h-4.05c-2.84,0-4.26,0-5.34.55-.95.49-1.73,1.26-2.21,2.21-.55,1.08-.55,2.5-.55,5.34v4.05c0,2.84,0,4.26.55,5.34.49.95,1.26,1.73,2.21,2.21,1.08.55,2.5.55,5.34.55Z"/>
    </clipPath>
  </defs>
  <g id="Capa_1-2" data-name="Capa 1">
    <g>
      <g class="cls-1">
        <image width="64" height="64" transform="translate(0 0) scale(.34)" xlink:href="../icon-pdf.png"/>
      </g>
      <path class="cls-2" d="m8.75,20.75h4c2.8,0,4.2,0,5.27-.55.94-.48,1.71-1.24,2.18-2.18.55-1.07.55-2.47.55-5.27v-4c0-2.8,0-4.2-.55-5.27-.48-.94-1.24-1.71-2.18-2.19-1.07-.54-2.47-.54-5.27-.54h-4c-2.8,0-4.2,0-5.27.54-.94.48-1.71,1.24-2.19,2.19-.54,1.07-.54,2.47-.54,5.27v4c0,2.8,0,4.2.54,5.27.48.94,1.24,1.71,2.19,2.18,1.07.55,2.47.55,5.27.55Z"/>
    </g>
  </g>
</svg>