<?xml version="1.0" encoding="utf-8"?>
<!-- Generator: Adobe Illustrator 27.2.0, SVG Export Plug-In . SVG Version: 6.00 Build 0)  -->
<svg version="1.1" id="Capa_2_00000165913410144525219620000013547694567197870734_"
	 xmlns="http://www.w3.org/2000/svg" xmlns:xlink="http://www.w3.org/1999/xlink" x="0px" y="0px" viewBox="0 0 34.7 36.5"
	 style="enable-background:new 0 0 34.7 36.5;" xml:space="preserve">
<style type="text/css">
	.st0{clip-path:url(#SVGID_00000158714817101105012720000002510274205949451940_);}
	
		.st1{fill:url(#SVGID_00000026127781329220222130000018050023118781628040_);stroke:#2F384C;stroke-width:2.153;stroke-miterlimit:10;}
	.st2{fill:none;stroke:#2F384C;stroke-width:2.153;stroke-miterlimit:10;}
	.st3{clip-path:url(#SVGID_00000107556700690033330130000002042832758838184606_);}
	
		.st4{fill:url(#SVGID_00000007422691452079636660000011412025378512225434_);stroke:#2F384C;stroke-width:2.153;stroke-miterlimit:10;}
	.st5{clip-path:url(#SVGID_00000114786881532142357100000011294167060422511771_);}
</style>
<g>
	<defs>
		<path id="SVGID_1_" d="M3.4,13c-0.1-2.1,0.1-4.4,1.4-6.2C6,5.3,8.2,4.3,10,5.1c1.6,0.7,2.8,2.5,3.5,5.4c0.8,3.4,1.4,6.3,2,9.5
			c1.4-4.1,3.4-9.4,5.5-13.2c1.4-2.6,3.3-5.4,6.4-5.5c6.8-0.3,4.5,10,3.5,13.3c-1,3.6-2.6,6.9-4.7,10c-2.6,4-7.4,9.3-9.2,10.4
			c-1.2,0.7-2.1,0.6-4-1.3C7.3,27.8,3.9,20.6,3.4,13L3.4,13z"/>
	</defs>
	<clipPath id="SVGID_00000029047913142847251910000011474556768287847870_">
		<use xlink:href="#SVGID_1_"  style="overflow:visible;"/>
	</clipPath>
	<g style="clip-path:url(#SVGID_00000029047913142847251910000011474556768287847870_);">
		
			<linearGradient id="SVGID_00000000942720303095551540000005038697586834273707_" gradientUnits="userSpaceOnUse" x1="-5726.208" y1="21.3689" x2="-5694.8027" y2="8.5227" gradientTransform="matrix(-1 0 0 -1 -5689.96 38)">
			<stop  offset="9.000000e-02" style="stop-color:#D9343D"/>
			<stop  offset="0.87" style="stop-color:#BB2527"/>
		</linearGradient>
		
			<rect x="-3.7" y="-1.9" style="fill:url(#SVGID_00000000942720303095551540000005038697586834273707_);stroke:#2F384C;stroke-width:2.153;stroke-miterlimit:10;" width="47.7" height="50.3"/>
	</g>
</g>
<path class="st2" d="M-38.1,13c-0.1-2.1,0.1-4.4,1.4-6.2c1.2-1.5,3.3-2.5,5.2-1.7c1.6,0.7,2.8,2.5,3.5,5.4c0.8,3.4,1.4,6.3,2,9.5
	c1.4-4.1,3.4-9.4,5.5-13.2c1.4-2.6,3.3-5.4,6.4-5.5c6.8-0.3,4.5,10,3.5,13.3c-1,3.6-2.6,6.9-4.7,10c-2.6,4-7.4,9.3-9.2,10.4
	c-1.2,0.7-2.1,0.6-4-1.3C-34.3,27.8-37.6,20.6-38.1,13L-38.1,13z"/>
<g>
	<defs>
		<path id="SVGID_00000150812068477311415070000002452728471799748505_" d="M4.8,6.8C6,5.3,8.2,4.3,10,5.1c1.6,0.7,2.8,2.5,3.5,5.4
			c0.8,3.4,1.4,6.3,2,9.5c1.4-4.1,3.4-9.4,5.5-13.2c1.4-2.6,3.3-5.4,6.4-5.5c6.8-0.3,4.5,10,3.5,13.3c-1,3.6-2.6,6.9-4.7,10
			c-2.6,4-7.4,9.3-9.2,10.4c-1.2,0.7-2.1,0.6-4-1.3c-5.8-5.9-9.1-13.1-9.6-20.7C3.4,12.9,3.5,8.5,4.8,6.8z"/>
	</defs>
	<clipPath id="SVGID_00000111892733263269316550000004806049225763621815_">
		<use xlink:href="#SVGID_00000150812068477311415070000002452728471799748505_"  style="overflow:visible;"/>
	</clipPath>
	<g style="clip-path:url(#SVGID_00000111892733263269316550000004806049225763621815_);">
		
			<linearGradient id="SVGID_00000008125264096769971470000018009684955369434036_" gradientUnits="userSpaceOnUse" x1="-5726.208" y1="21.3689" x2="-5694.8027" y2="8.5227" gradientTransform="matrix(-1 0 0 -1 -5689.96 38)">
			<stop  offset="9.000000e-02" style="stop-color:#D9343D"/>
			<stop  offset="0.87" style="stop-color:#BB2527"/>
		</linearGradient>
		
			<rect x="-3.7" y="-1.9" style="fill:url(#SVGID_00000008125264096769971470000018009684955369434036_);stroke:#2F384C;stroke-width:2.153;stroke-miterlimit:10;" width="47.7" height="50.3"/>
	</g>
</g>
<g>
	<defs>
		<path id="SVGID_00000008141186215267703810000017451291696214763914_" d="M4.8,6.8C6,5.3,8.2,4.3,10,5.1c1.6,0.7,2.8,2.5,3.5,5.4
			c0.8,3.4,1.4,6.3,2,9.5c1.4-4.1,3.4-9.4,5.5-13.2c1.4-2.6,3.3-5.4,6.4-5.5c6.8-0.3,4.5,10,3.5,13.3c-1,3.6-2.6,6.9-4.7,10
			c-2.6,4-7.4,9.3-9.2,10.4c-1.2,0.7-2.1,0.6-4-1.3c-5.8-5.9-9.1-13.1-9.6-20.7C3.4,12.9,3.1,9,4.8,6.8z"/>
	</defs>
	<clipPath id="SVGID_00000146467601161356850420000004560456800721865108_">
		<use xlink:href="#SVGID_00000008141186215267703810000017451291696214763914_"  style="overflow:visible;"/>
	</clipPath>
	<g style="clip-path:url(#SVGID_00000146467601161356850420000004560456800721865108_);">
		<rect x="-3.7" y="-1.9" class="st2" width="47.7" height="50.3"/>
	</g>
	
		<use xlink:href="#SVGID_00000008141186215267703810000017451291696214763914_"  style="overflow:visible;fill:none;stroke:#2F384C;stroke-width:2.153;stroke-miterlimit:10;"/>
</g>
</svg>
