<?xml version="1.0" encoding="UTF-8"?>
<svg id="Capa_2" data-name="Capa 2" xmlns="http://www.w3.org/2000/svg" xmlns:xlink="http://www.w3.org/1999/xlink" viewBox="0 0 21.54 24.98">
  <defs>
    <style>
      .cls-1 {
        stroke-width: 1.5px;
      }

      .cls-1, .cls-2 {
        stroke: #2f384c;
        stroke-linecap: round;
      }

      .cls-1, .cls-2, .cls-3 {
        fill: none;
      }

      .cls-2 {
        stroke-linejoin: round;
        stroke-width: .94px;
      }

      .cls-4 {
        fill: #fff;
      }

      .cls-4, .cls-5 {
        isolation: isolate;
      }

      .cls-6 {
        clip-path: url(#clippath);
      }

      .cls-5 {
        fill: #2f384c;
        opacity: .12;
      }
    </style>
    <clipPath id="clippath">
      <rect class="cls-3" x=".94" width="20.6" height="12.14"/>
    </clipPath>
  </defs>
  <g id="Capa_1-2" data-name="Capa 1">
    <g>
      <g>
        <path class="cls-5" d="m19.95,16.59l.49-1.94H.44l.49,1.94c.54,2.17.81,3.83,1.42,4.64.53.71-.05,1.27.77,1.61.93.39,3.34,1.61,5.58,1.61h3.51c2.23,0,4.93-1.22,5.86-1.61.82-.34-.02-1.04.51-1.75.6-.81.85-2.33,1.39-4.5h0Z"/>
        <path class="cls-1" d="m.94,14.65h19m-14.5-2.69h10M.84,14.17c-.16.9-.11,1.28.2,2.83.06.28,1.55,6.95,3.36,7.19.32.04.68.04,1.4.04h7.97c.72,0,2.66,0,2.98-.04,1.81-.23,3.02-6.91,3.08-7.19.31-1.55.39-1.99.25-3.03-.06-.28-1.94-3.11-2.55-3.92-.53-.71-1.25-1.27-2.07-1.61-.93-.39-2.05-.39-4.28-.39h-1.51c-2.23,0-3.35,0-4.28.39-.82.34-1.53.9-2.07,1.61-.6.81-2.45,3.83-2.5,4.12Z"/>
      </g>
      <g class="cls-6">
        <path class="cls-4" d="m5.22,6.23c-.28.6-.36,1.27-.23,1.92.14.74.68,1.43,1.77,2.81l.15.2c.22.28.32.41.46.48,2.3,2.94,2.94,2.81,5.66.69.15-.03.29-.14.56-.35l2.17-1.7c1.38-1.08,2.07-1.62,2.39-2.3.28-.6.36-1.27.23-1.92-.14-.74-.68-1.43-1.77-2.81s-1.62-2.07-2.3-2.39c-.6-.28-1.27-.36-1.92-.23-.74.14-1.43.68-2.81,1.77l-1.97,1.54c-1.38,1.08-2.07,1.62-2.39,2.3Z"/>
        <g>
          <path class="cls-5" d="m5.22,6.23c-.28.6-.36,1.27-.23,1.92.14.74.68,1.43,1.77,2.81l.15.2c.22.28.32.41.46.48,2.3,2.94,2.94,2.81,5.66.69.15-.03.29-.14.56-.35l2.17-1.7c1.38-1.08,2.07-1.62,2.39-2.3.28-.6.36-1.27.23-1.92-.14-.74-.68-1.43-1.77-2.81s-1.62-2.07-2.3-2.39c-.6-.28-1.27-.36-1.92-.23-.74.14-1.43.68-2.81,1.77l-1.97,1.54c-1.38,1.08-2.07,1.62-2.39,2.3Z"/>
          <path class="cls-2" d="m4.95,7.22h6.6s1.64-6.36,1.64-6.36m-6.52,9.99h0c-1-1.28-1.5-1.92-1.66-2.59-.17-.72-.08-1.47.26-2.12.31-.62.95-1.12,2.23-2.12l2.08-1.63c1.38-1.08,2.07-1.62,2.81-1.77.65-.13,1.32-.05,1.92.23.68.32,1.22,1.01,2.3,2.39h0c1.08,1.38,1.62,2.07,1.77,2.81.13.65.05,1.32-.23,1.92-.32.68-1.01,1.22-2.39,2.3l-1.82,1.42c-4.23,3.31-5.2,1.8-7.27-.84Z"/>
        </g>
      </g>
    </g>
  </g>
</svg>