<?xml version="1.0" encoding="UTF-8"?>
<svg id="Capa_2" data-name="Capa 2" xmlns="http://www.w3.org/2000/svg" viewBox="0 0 21.5 21.5">
  <defs>
    <style>
      .cls-1 {
        fill: #f6bc06;
        isolation: isolate;
        opacity: .12;
      }

      .cls-2 {
        fill: none;
        stroke: #f6bc06;
        stroke-linecap: round;
        stroke-linejoin: round;
        stroke-width: 1.5px;
      }
    </style>
  </defs>
  <g id="Capa_1-2" data-name="Capa 1">
    <g>
      <rect class="cls-1" x=".75" y=".75" width="20" height="20" rx="6" ry="6"/>
      <path class="cls-2" d="m6.75,10.75h4m0,0h4m-4,0v-4m0,4v4m-.4,6h.8c3.36,0,5.04,0,6.32-.65,1.13-.58,2.05-1.49,2.62-2.62.65-1.28.65-2.96.65-6.32v-.8c0-3.36,0-5.04-.65-6.32-.58-1.13-1.49-2.05-2.62-2.62-1.28-.65-2.96-.65-6.32-.65h-.8c-3.36,0-5.04,0-6.32.65-1.13.58-2.05,1.49-2.62,2.62-.65,1.28-.65,2.96-.65,6.32v.8c0,3.36,0,5.04.65,6.32.58,1.13,1.49,2.05,2.62,2.62,1.28.65,2.96.65,6.32.65Z"/>
    </g>
  </g>
</svg>