<?xml version="1.0" encoding="UTF-8"?>
<svg id="Capa_2" data-name="Capa 2" xmlns="http://www.w3.org/2000/svg" viewBox="0 0 21.5 22.1">
  <defs>
    <style>
      .cls-1 {
        opacity: .4;
      }

      .cls-1, .cls-2 {
        stroke-width: 1.5px;
      }

      .cls-1, .cls-2, .cls-3 {
        fill: none;
        stroke: #2f384c;
        stroke-linecap: round;
        stroke-linejoin: round;
      }

      .cls-1, .cls-4, .cls-5, .cls-6 {
        isolation: isolate;
      }

      .cls-4 {
        opacity: .36;
      }

      .cls-4, .cls-6 {
        fill: #2f384c;
      }

      .cls-5 {
        fill: #fff;
      }

      .cls-6 {
        opacity: .12;
      }

      .cls-3 {
        stroke-width: 1.29px;
      }
    </style>
  </defs>
  <g id="Capa_1-2" data-name="Capa 1">
    <g>
      <path class="cls-1" d="m3.25,5.35l2.5-2h0c1.79-1.43,2.68-2.14,3.67-2.42.87-.24,1.79-.24,2.67,0,.99.27,1.88.99,3.67,2.42h0l2.5,2"/>
      <path class="cls-2" d="m17.75,4.95l.5.4h0c.61.49.91.73,1.17,1.01.68.74,1.13,1.66,1.28,2.66.06.37.06.76.06,1.54v5.8c0,2.76-2.24,5-5,5h0c-1.1,0-2-.9-2-2v-3c0-1.66-1.34-3-3-3h0c-1.66,0-3,1.34-3,3v3c0,1.1-.9,2-2,2h0c-2.76,0-5-2.24-5-5v-5.8c0-.78,0-1.17.06-1.54.15-.99.59-1.92,1.28-2.66.25-.27.56-.52,1.17-1.01h0l.5-.4"/>
      <g>
        <path class="cls-5" d="m.77,10.65V1.19l1.13-.28c1.48-.37,3.04-.14,4.34.65,1.44.86,3.18,1.05,4.76.52l2.66-.89v9.46l-2.66.89c-1.59.53-3.33.34-4.76-.52-1.3-.78-2.87-1.01-4.34-.65l-1.13.28Z"/>
        <g>
          <path class="cls-6" d="m.65,10.65V1.19l1.13-.28c1.48-.37,3.04-.14,4.34.65,1.44.86,3.18,1.05,4.76.52l2.66-.89v9.46l-2.66.89c-1.59.53-3.33.34-4.76-.52-1.3-.78-2.87-1.01-4.34-.65l-1.13.28Z"/>
          <path class="cls-3" d="m.65,1.19v9.46M.65,1.19l1.13-.28c1.48-.37,3.04-.14,4.34.65h0c1.44.86,3.18,1.05,4.76.52l2.66-.89v9.46l-2.66.89c-1.59.53-3.33.34-4.76-.52h0c-1.3-.78-2.87-1.01-4.34-.65l-1.13.28"/>
        </g>
        <path class="cls-4" d="m.65,4.03V.59l1.13-.28C3.26-.06,4.82.17,6.12.95c1.44.86,3.18,1.05,4.76.52l2.66-.89v3.44l-2.66.89c-1.59.53-3.33.34-4.76-.52-1.3-.78-2.87-1.01-4.34-.65l-1.13.28Z"/>
        <path class="cls-4" d="m.65,11.26v-3.44l1.13-.28c1.48-.37,3.04-.14,4.34.65,1.44.86,3.18,1.05,4.76.52l2.66-.89v3.44l-2.66.89c-1.59.53-3.33.34-4.76-.52-1.3-.78-2.87-1.01-4.34-.65l-1.13.28Z"/>
      </g>
    </g>
  </g>
</svg>