<?xml version="1.0" encoding="UTF-8"?>
<svg id="Capa_2" data-name="Capa 2" xmlns="http://www.w3.org/2000/svg" viewBox="0 0 21.5 21.5">
  <defs>
    <style>
      .cls-1 {
        fill: none;
        stroke: #2f384c;
        stroke-linecap: round;
        stroke-linejoin: round;
        stroke-width: 1.5px;
      }

      .cls-2 {
        fill: #2f384c;
        isolation: isolate;
        opacity: .12;
      }
    </style>
  </defs>
  <g id="Capa_1-2" data-name="Capa 1">
    <g>
      <path class="cls-2" d="m8.15,20.75h5.2c2.24,0,3.36,0,4.22-.44.75-.38,1.36-1,1.75-1.75.44-.86.44-1.98.44-4.22v-3.6H1.75v3.6c0,2.24,0,3.36.44,4.22.38.75,1,1.36,1.75,1.75.86.44,1.98.44,4.22.44Z"/>
      <path class="cls-1" d="m14.75,4.75c0-2.21-1.79-4-4-4s-4,1.79-4,4m0,4.5v3m8-3v3m5-1.5v3.6c0,2.24,0,3.36-.44,4.22-.38.75-1,1.36-1.75,1.75-.86.44-1.98.44-4.22.44h-5.2c-2.24,0-3.36,0-4.22-.44-.75-.38-1.36-1-1.75-1.75-.44-.86-.44-1.98-.44-4.22v-3.6m2,0h14c.93,0,1.4,0,1.77-.15.49-.2.88-.59,1.08-1.08.15-.37.15-.83.15-1.77h0c0-.93,0-1.4-.15-1.77-.2-.49-.59-.88-1.08-1.08-.37-.15-.83-.15-1.77-.15H3.75c-.93,0-1.4,0-1.77.15-.49.2-.88.59-1.08,1.08-.15.37-.15.83-.15,1.77h0c0,.93,0,1.4.15,1.77.2.49.59.88,1.08,1.08.37.15.83.15,1.77.15Z"/>
    </g>
  </g>
</svg>