<?xml version="1.0" encoding="UTF-8"?>
<svg id="Capa_2" data-name="Capa 2" xmlns="http://www.w3.org/2000/svg" viewBox="0 0 22.5 20.5">
  <defs>
    <style>
      .cls-1 {
        fill: none;
        stroke: #2f384c;
        stroke-linecap: round;
        stroke-linejoin: round;
        stroke-width: 1.5px;
      }

      .cls-2 {
        fill: #2f384c;
        isolation: isolate;
        opacity: .12;
      }
    </style>
  </defs>
  <g id="Capa_1-2" data-name="Capa 1">
    <g>
      <path class="cls-2" d="m15.75,19.75c-3.31,0-6-2.69-6-6s2.69-6,6-6,6,2.69,6,6c0,.9-.2,1.75-.55,2.52-.28.6-.55,1.12-.35,1.8.09.33.33.65.36.99.03.39-.31.71-.7.64-.78-.13-1.16-.75-2.07-.54-.1.02-.36.12-.87.3-.54.19-1.13.29-1.81.29Z"/>
      <path class="cls-1" d="m7.73,17.62c-.36-.07-.71-.16-1.05-.28-.73-.26-1.09-.39-1.23-.42-1.29-.3-1.83.58-2.94.77-.55.09-1.03-.36-.99-.91.04-.48.37-.94.51-1.4.28-.96-.1-1.69-.5-2.55-.5-1.08-.78-2.29-.78-3.57C.75,4.56,4.56.75,9.25.75c3.04,0,5.71,1.6,7.21,4m-6.71,9c0,3.31,2.69,6,6,6,.68,0,1.27-.1,1.81-.29.51-.18.77-.28.87-.3.91-.21,1.29.41,2.07.54.39.06.73-.25.7-.64-.03-.34-.26-.66-.36-.99-.2-.68.07-1.2.35-1.8.35-.77.55-1.62.55-2.52,0-3.31-2.69-6-6-6s-6,2.69-6,6Z"/>
    </g>
  </g>
</svg>