<?xml version="1.0" encoding="UTF-8"?>
<svg id="Capa_2" data-name="Capa 2" xmlns="http://www.w3.org/2000/svg" viewBox="0 0 21.49 21.49">
  <defs>
    <style>
      .cls-1 {
        fill: none;
        stroke: #2f384c;
        stroke-linecap: round;
        stroke-linejoin: round;
        stroke-width: 1.5px;
      }

      .cls-2 {
        fill: #2f384c;
        fill-rule: evenodd;
        isolation: isolate;
        opacity: .12;
      }
    </style>
  </defs>
  <g id="Capa_1-2" data-name="Capa 1">
    <g>
      <path class="cls-2" d="m1.34,18.31c-.69-.69-.78-1.78-.21-2.58l1.38-1.93c.36-.5.45-1.13.35-1.74-.07-.43-.11-.87-.11-1.31s.04-.89.11-1.31c.1-.61,0-1.24-.35-1.74l-1.38-1.93c-.57-.8-.48-1.89.21-2.58l1.85-1.85c.69-.69,1.78-.78,2.58-.21l1.93,1.38c.5.36,1.13.45,1.74.35.43-.07.87-.11,1.31-.11s.89.04,1.31.11c.61.1,1.24,0,1.74-.35l1.93-1.38c.8-.57,1.89-.48,2.58.21l1.85,1.85c.69.69.78,1.78.21,2.58l-1.38,1.93c-.36.5-.45,1.13-.35,1.74.07.43.11.87.11,1.31s-.04.89-.11,1.31c-.1.61,0,1.24.35,1.74l1.38,1.93c.57.8.48,1.89-.21,2.58l-1.85,1.85c-.69.69-1.78.78-2.58.21l-1.93-1.38c-.5-.36-1.13-.45-1.74-.35-.43.07-.87.11-1.31.11s-.89-.04-1.31-.11c-.61-.1-1.24,0-1.74.35l-1.93,1.38c-.8.57-1.89.48-2.58-.21l-1.85-1.85Zm9.41-4.56c1.66,0,3-1.34,3-3s-1.34-3-3-3-3,1.34-3,3,1.34,3,3,3Z"/>
      <path class="cls-1" d="m2.85,12.06c.1.61,0,1.24-.35,1.74l-1.38,1.93c-.57.8-.48,1.89.21,2.58l1.85,1.85c.69.69,1.78.78,2.58.21l1.93-1.38c.5-.36,1.13-.45,1.74-.35.43.07.87.11,1.31.11s.89-.04,1.31-.11c.61-.1,1.24,0,1.74.35l1.93,1.38c.8.57,1.89.48,2.58-.21l1.85-1.85c.69-.69.78-1.78.21-2.58l-1.38-1.93c-.36-.5-.45-1.13-.35-1.74.07-.43.11-.87.11-1.31s-.04-.89-.11-1.31c-.1-.61,0-1.24.35-1.74l1.38-1.93c.57-.8.48-1.89-.21-2.58l-1.85-1.85c-.69-.69-1.78-.78-2.58-.21l-1.93,1.38c-.5.36-1.13.45-1.74.35-.43-.07-.87-.11-1.31-.11s-.89.04-1.31.11c-.61.1-1.24,0-1.74-.35l-1.93-1.38c-.8-.57-1.89-.48-2.58.21l-1.85,1.85c-.69.69-.78,1.78-.21,2.58l1.38,1.93c.36.5.45,1.13.35,1.74-.07.43-.11.87-.11,1.31s.04.89.11,1.31Z"/>
      <path class="cls-1" d="m13.74,10.74c0,1.66-1.34,3-3,3s-3-1.34-3-3,1.34-3,3-3,3,1.34,3,3Z"/>
    </g>
  </g>
</svg>