<?xml version="1.0" encoding="UTF-8"?>
<svg id="Capa_2" data-name="Capa 2" xmlns="http://www.w3.org/2000/svg" viewBox="0 0 21.5 21.5">
  <defs>
    <style>
      .cls-1 {
        fill: none;
        stroke: #2f384c;
        stroke-linecap: round;
        stroke-width: 1.5px;
      }

      .cls-2 {
        opacity: .12;
      }

      .cls-3 {
        fill: #2f384c;
      }
    </style>
  </defs>
  <g id="Capa_1-2" data-name="Capa 1">
    <g>
      <g class="cls-2">
        <path class="cls-3" d="m3.75,15.95c0-1.12,0-1.68.22-2.11.19-.38.5-.68.87-.87.43-.22.99-.22,2.11-.22h1.6c1.12,0,1.68,0,2.11.22.38.19.68.5.87.87.22.43.22.99.22,2.11v1.6c0,1.12,0,1.68-.22,2.11-.19.38-.5.68-.87.87-.43.22-.99.22-2.11.22h-1.6c-1.12,0-1.68,0-2.11-.22-.38-.19-.68-.5-.87-.87-.22-.43-.22-.99-.22-2.11v-1.6Z"/>
        <path class="cls-3" d="m9.75,3.95c0-1.12,0-1.68.22-2.11.19-.38.5-.68.87-.87.43-.22.99-.22,2.11-.22h1.6c1.12,0,1.68,0,2.11.22.38.19.68.5.87.87.22.43.22.99.22,2.11v1.6c0,1.12,0,1.68-.22,2.11-.19.38-.5.68-.87.87-.43.22-.99.22-2.11.22h-1.6c-1.12,0-1.68,0-2.11-.22-.38-.19-.68-.5-.87-.87-.22-.43-.22-.99-.22-2.11v-1.6Z"/>
      </g>
      <path class="cls-1" d="m.75,16.75h3m14-12h3m-6,12h6M.75,4.75h6m.2,16h1.6c1.12,0,1.68,0,2.11-.22.38-.19.68-.5.87-.87.22-.43.22-.99.22-2.11v-1.6c0-1.12,0-1.68-.22-2.11-.19-.38-.5-.68-.87-.87-.43-.22-.99-.22-2.11-.22h-1.6c-1.12,0-1.68,0-2.11.22-.38.19-.68.5-.87.87-.22.43-.22.99-.22,2.11v1.6c0,1.12,0,1.68.22,2.11.19.38.5.68.87.87.43.22.99.22,2.11.22Zm6-12h1.6c1.12,0,1.68,0,2.11-.22.38-.19.68-.5.87-.87.22-.43.22-.99.22-2.11v-1.6c0-1.12,0-1.68-.22-2.11-.19-.38-.5-.68-.87-.87-.43-.22-.99-.22-2.11-.22h-1.6c-1.12,0-1.68,0-2.11.22-.38.19-.68.5-.87.87-.22.43-.22.99-.22,2.11v1.6c0,1.12,0,1.68.22,2.11.19.38.5.68.87.87.43.22.99.22,2.11.22Z"/>
    </g>
  </g>
</svg>