<?xml version="1.0" encoding="UTF-8"?>
<svg id="Capa_2" data-name="Capa 2" xmlns="http://www.w3.org/2000/svg" viewBox="0 0 21.5 21.5">
  <defs>
    <style>
      .cls-1 {
        fill: none;
        stroke: #2f384c;
        stroke-linecap: round;
        stroke-linejoin: round;
        stroke-width: 1.5px;
      }

      .cls-2 {
        opacity: .12;
      }

      .cls-3 {
        fill: #2f384c;
      }
    </style>
  </defs>
  <g id="Capa_1-2" data-name="Capa 1">
    <g>
      <g class="cls-2">
        <path class="cls-3" d="m16.75,6.75c0,1.1-.9,2-2,2s-2-.9-2-2,.9-2,2-2,2,.9,2,2Z"/>
        <path class="cls-3" d="m16.56,12.75l-3.33,3.33-3.22-3.13c-.79-.77-1.19-1.15-1.64-1.3-.4-.13-.83-.12-1.22,0-.45.15-.84.54-1.62,1.32l-4.24,4.24c.04.09.08.17.12.26.58,1.13,1.49,2.05,2.62,2.62,1.28.65,2.96.65,6.32.65h.8c3.23,0,4.91,0,6.18-.58.05-.02.1-.05.15-.07,1.13-.58,2.05-1.49,2.62-2.62.14-.27.24-.55.33-.86l-3.86-3.86Z"/>
      </g>
      <path class="cls-1" d="m1.75,16.75l3.77-3.77c.78-.78,1.17-1.17,1.62-1.32.4-.13.83-.13,1.22,0,.45.14.85.53,1.64,1.3l3.22,3.13m7.01.36l-1.42-1.42c-.79-.79-1.19-1.19-1.64-1.34-.4-.13-.83-.13-1.24,0-.46.15-.85.54-1.65,1.34-.6.6-1.06,1.06-1.06,1.06m4.01,4.01l-4.01-4.01m3.51-9.33c0,1.1-.9,2-2,2s-2-.9-2-2,.9-2,2-2,2,.9,2,2Zm-6.4,14h.8c3.36,0,5.04,0,6.32-.65,1.13-.58,2.05-1.49,2.62-2.62.65-1.28.65-2.96.65-6.32v-.8c0-3.36,0-5.04-.65-6.32-.58-1.13-1.49-2.05-2.62-2.62-1.28-.65-2.96-.65-6.32-.65h-.8c-3.36,0-5.04,0-6.32.65-1.13.58-2.05,1.49-2.62,2.62-.65,1.28-.65,2.96-.65,6.32v.8c0,3.36,0,5.04.65,6.32.58,1.13,1.49,2.05,2.62,2.62,1.28.65,2.96.65,6.32.65Z"/>
    </g>
  </g>
</svg>