<?xml version="1.0" encoding="UTF-8"?>
<svg id="Capa_2" data-name="Capa 2" xmlns="http://www.w3.org/2000/svg" viewBox="0 0 19.5 21.5">
  <defs>
    <style>
      .cls-1 {
        fill: #2f384c;
        fill-rule: evenodd;
        isolation: isolate;
        opacity: .12;
      }

      .cls-2 {
        fill: none;
        stroke: #2f384c;
        stroke-width: 1.5px;
      }
    </style>
  </defs>
  <g id="Capa_1-2" data-name="Capa 1">
    <g>
      <path class="cls-1" d="m9.75.75C4.75.75.75,4.25.75,9.25c0,7.85,7,11.5,9,11.5s9-3.65,9-11.5C18.75,4.25,14.75.75,9.75.75Zm0,12c1.66,0,3-1.34,3-3s-1.34-3-3-3-3,1.34-3,3,1.34,3,3,3Z"/>
      <path class="cls-2" d="m.75,9.25C.75,4.25,4.75.75,9.75.75s9,3.5,9,8.5c0,7.85-7,11.5-9,11.5S.75,17.1.75,9.25Z"/>
      <path class="cls-2" d="m12.75,9.75c0,1.66-1.34,3-3,3s-3-1.34-3-3,1.34-3,3-3,3,1.34,3,3Z"/>
    </g>
  </g>
</svg>