<?xml version="1.0" encoding="UTF-8"?>
<svg id="Capa_2" data-name="Capa 2" xmlns="http://www.w3.org/2000/svg" viewBox="0 0 23.77 20.43">
  <defs>
    <style>
      .cls-1 {
        stroke-linejoin: round;
      }

      .cls-1, .cls-2 {
        fill: none;
        stroke: #2f384c;
        stroke-linecap: round;
        stroke-width: 1.5px;
      }

      .cls-3 {
        fill: #2f384c;
        fill-rule: evenodd;
        isolation: isolate;
        opacity: .12;
      }
    </style>
  </defs>
  <g id="Capa_1-2" data-name="Capa 1">
    <g>
      <path class="cls-3" d="m11.79,19.68c7,0,11.23-5.5,11.23-8S18.79,3.68,11.79,3.68,1.22,9.18,1.22,11.68s3.57,8,10.57,8Zm0-5c1.66,0,3-1.34,3-3s-1.34-3-3-3-3,1.34-3,3,1.34,3,3,3Z"/>
      <path class="cls-2" d="m23.02,11.68c0,2.5-4.23,8-11.23,8S.75,14.18.75,11.68,4.79,3.68,11.79,3.68s11.23,5.5,11.23,8Z"/>
      <line class="cls-1" x1="12.06" y1="2.75" x2="12.06" y2=".75"/>
      <line class="cls-1" x1="7.21" y1="3.6" x2="6.44" y2="1.75"/>
      <path class="cls-2" d="m14.79,11.68c0,1.66-1.34,3-3,3s-3-1.34-3-3,1.34-3,3-3,3,1.34,3,3Z"/>
      <line class="cls-1" x1="2.87" y1="6.19" x2="1.62" y2="4.63"/>
      <line class="cls-1" x1="17.63" y1="1.83" x2="16.86" y2="3.67"/>
      <line class="cls-1" x1="22.34" y1="4.75" x2="21.1" y2="6.32"/>
    </g>
  </g>
</svg>