<?xml version="1.0" encoding="UTF-8"?>
<svg id="Capa_2" data-name="Capa 2" xmlns="http://www.w3.org/2000/svg" viewBox="0 0 22.38 22">
  <defs>
    <style>
      .cls-1 {
        fill: none;
        stroke: #2f384c;
        stroke-linecap: round;
        stroke-linejoin: round;
        stroke-width: 1.5px;
      }

      .cls-2 {
        fill: #2f384c;
        isolation: isolate;
        opacity: .12;
      }
    </style>
  </defs>
  <g id="Capa_1-2" data-name="Capa 1">
    <g>
      <path class="cls-2" d="m8.33,4c.92-1.84,1.38-2.76,2.01-3.06.54-.26,1.17-.26,1.71,0,.62.3,1.08,1.22,2.01,3.06l.36.72c.28.57.43.85.63,1.07.18.19.4.35.65.45.28.12.59.16,1.22.23l.33.04c2.21.25,3.31.37,3.81.88.43.44.64,1.06.55,1.67-.1.71-.91,1.46-2.54,2.97l-.34.32c-.56.52-.83.77-.99,1.09-.14.28-.22.58-.22.89,0,.35.12.71.38,1.44.83,2.37,1.25,3.55.97,4.24-.24.6-.75,1.05-1.37,1.21-.72.18-1.83-.37-4.04-1.47l-.84-.42c-.52-.26-.79-.39-1.06-.45-.24-.05-.49-.05-.74,0-.28.05-.54.18-1.06.45l-.84.42c-2.21,1.1-3.31,1.66-4.04,1.47-.62-.16-1.14-.61-1.37-1.21-.27-.69.14-1.88.97-4.24.25-.72.38-1.09.38-1.44,0-.31-.08-.62-.22-.89-.16-.31-.44-.57-.99-1.09l-.34-.32c-1.63-1.51-2.44-2.27-2.54-2.97-.09-.61.12-1.23.55-1.67.5-.51,1.6-.63,3.81-.88l.33-.04c.63-.07.95-.11,1.22-.23.24-.11.47-.26.65-.45.21-.22.35-.5.63-1.07l.36-.72Z"/>
      <path class="cls-1" d="m8.33,4c.92-1.84,1.38-2.76,2.01-3.06.54-.26,1.17-.26,1.71,0,.62.3,1.08,1.22,2.01,3.06l.36.72c.28.57.43.85.63,1.07.18.19.4.35.65.45.28.12.59.16,1.22.23l.33.04c2.21.25,3.31.37,3.81.88.43.44.64,1.06.55,1.67-.1.71-.91,1.46-2.54,2.97l-.34.32c-.56.52-.83.77-.99,1.09-.14.28-.22.58-.22.89,0,.35.12.71.38,1.44h0c.83,2.37,1.25,3.55.97,4.24-.24.6-.75,1.05-1.37,1.21-.72.18-1.83-.37-4.04-1.47l-.84-.42c-.52-.26-.79-.39-1.06-.45-.24-.05-.49-.05-.74,0-.28.05-.54.18-1.06.45l-.84.42c-2.21,1.1-3.31,1.66-4.04,1.47-.62-.16-1.14-.61-1.37-1.21-.27-.69.14-1.88.97-4.24h0c.25-.72.38-1.09.38-1.44,0-.31-.08-.62-.22-.89-.16-.31-.44-.57-.99-1.09l-.34-.32c-1.63-1.51-2.44-2.27-2.54-2.97-.09-.61.12-1.23.55-1.67.5-.51,1.6-.63,3.81-.88l.33-.04c.63-.07.95-.11,1.22-.23.24-.11.47-.26.65-.45.21-.22.35-.5.63-1.07l.36-.72Z"/>
    </g>
  </g>
</svg>