<?xml version="1.0" encoding="UTF-8"?>
<svg id="Capa_2" data-name="Capa 2" xmlns="http://www.w3.org/2000/svg" viewBox="0 0 36.5 22.1">
  <defs>
    <style>
      .cls-1, .cls-2 {
        fill: none;
        stroke: #2f384c;
        stroke-linecap: round;
        stroke-linejoin: round;
        stroke-width: 1.5px;
      }

      .cls-3 {
        opacity: .36;
      }

      .cls-3, .cls-4 {
        fill: #2f384c;
      }

      .cls-3, .cls-4, .cls-2 {
        isolation: isolate;
      }

      .cls-4 {
        opacity: .12;
      }

      .cls-2 {
        opacity: .4;
      }
    </style>
  </defs>
  <g id="Capa_1-2" data-name="Capa 1">
    <g>
      <g>
        <path class="cls-4" d="m20.75,14.05V3.05l1.32-.33c1.72-.43,3.53-.16,5.05.75,1.67,1,3.69,1.22,5.54.61l3.09-1.03v11l-3.09,1.03c-1.85.62-3.87.39-5.54-.61-1.52-.91-3.33-1.18-5.05-.75l-1.32.33Z"/>
        <path class="cls-1" d="m20.75,3.05v11m0-11V1.05m0,2l1.32-.33c1.72-.43,3.53-.16,5.05.75h0c1.67,1,3.69,1.22,5.54.61l3.09-1.03v11l-3.09,1.03c-1.85.62-3.87.39-5.54-.61h0c-1.52-.91-3.33-1.18-5.05-.75l-1.32.33m0,2.09v-2.09"/>
      </g>
      <path class="cls-3" d="m20.75,6.35v-4l1.32-.33c1.72-.43,3.53-.16,5.05.75,1.67,1,3.69,1.22,5.54.61l3.09-1.03v4l-3.09,1.03c-1.85.62-3.87.39-5.54-.61-1.52-.91-3.33-1.18-5.05-.75l-1.32.33Z"/>
      <path class="cls-3" d="m20.75,14.76v-4l1.32-.33c1.72-.43,3.53-.16,5.05.75,1.67,1,3.69,1.22,5.54.61l3.09-1.03v4l-3.09,1.03c-1.85.62-3.87.39-5.54-.61-1.52-.91-3.33-1.18-5.05-.75l-1.32.33Z"/>
      <path class="cls-2" d="m3.25,5.35l2.5-2h0c1.79-1.43,2.68-2.14,3.67-2.42.87-.24,1.79-.24,2.67,0,.99.27,1.88.99,3.67,2.42h0l2.5,2"/>
      <path class="cls-1" d="m17.75,4.95l.5.4h0c.61.49.91.73,1.17,1.01.68.74,1.13,1.66,1.28,2.66.06.37.06.76.06,1.54v5.8c0,2.76-2.24,5-5,5h0c-1.1,0-2-.9-2-2v-4c0-1.66-1.34-3-3-3h0c-1.66,0-3,1.34-3,3v4c0,1.1-.9,2-2,2h0c-2.76,0-5-2.24-5-5v-5.8c0-.78,0-1.17.06-1.54.15-.99.59-1.92,1.28-2.66.25-.27.56-.52,1.17-1.01h0l.5-.4"/>
    </g>
  </g>
</svg>