<?xml version="1.0" encoding="UTF-8"?>
<svg id="Capa_2" data-name="Capa 2" xmlns="http://www.w3.org/2000/svg" viewBox="0 0 20.91 21.41">
  <defs>
    <style>
      .cls-1 {
        fill: none;
        stroke: #2f384c;
        stroke-linecap: round;
        stroke-linejoin: round;
        stroke-width: 1.5px;
      }

      .cls-2 {
        fill: #2f384c;
        fill-rule: evenodd;
        isolation: isolate;
        opacity: .12;
      }
    </style>
  </defs>
  <g id="Capa_1-2" data-name="Capa 1">
    <g>
      <path class="cls-2" d="m12.24,17.24l5-5v-3.63c0-1.91,0-2.86-.35-3.64-.3-.68-.8-1.27-1.42-1.69-.7-.48-1.64-.64-3.52-.97l-7.21-1.27c-1.51-.27-2.27-.4-2.82-.17-.48.2-.86.58-1.06,1.06-.23.55-.1,1.3.17,2.82l1.27,7.21c.33,1.88.5,2.82.97,3.52.42.62,1,1.11,1.69,1.42.78.35,1.73.35,3.64.35h3.63Zm-3-6c1.1,0,2-.9,2-2s-.9-2-2-2-2,.9-2,2,.9,2,2,2Z"/>
      <path class="cls-1" d="m1.74,1.74l4,4m6.5,11.5l5-5v-3.63c0-1.91,0-2.86-.35-3.64-.3-.68-.8-1.27-1.42-1.69-.7-.48-1.64-.64-3.52-.97l-7.21-1.27c-1.51-.27-2.27-.4-2.82-.17-.48.2-.86.58-1.06,1.06-.23.55-.1,1.3.17,2.82l1.27,7.21c.33,1.88.5,2.82.97,3.52.42.62,1,1.11,1.69,1.42.78.35,1.73.35,3.64.35h3.63Zm-1-8c0,1.1-.9,2-2,2s-2-.9-2-2,.9-2,2-2,2,.9,2,2Zm0,9l6.5-6.5c.55-.55,1.45-.55,2,0h0c.55.55.55,1.45,0,2l-6.5,6.5c-.55.55-1.45.55-2,0h0c-.55-.55-.55-1.45,0-2Z"/>
    </g>
  </g>
</svg>