<?xml version="1.0" encoding="UTF-8"?>
<svg id="Capa_2" data-name="Capa 2" xmlns="http://www.w3.org/2000/svg" viewBox="0 0 23.12 21.5">
  <defs>
    <style>
      .cls-1 {
        stroke-width: 1.5px;
      }

      .cls-1, .cls-2, .cls-3 {
        fill: none;
        stroke: #2f384c;
        stroke-linecap: round;
        stroke-linejoin: round;
      }

      .cls-2 {
        stroke-width: 1.4px;
      }

      .cls-4 {
        fill: #2f384c;
        isolation: isolate;
        opacity: .12;
      }

      .cls-3 {
        stroke-width: 1.3px;
      }
    </style>
  </defs>
  <g id="Capa_1-2" data-name="Capa 1">
    <g>
      <path class="cls-4" d="m16.21,3.48c-.48-.94-1.24-1.71-2.19-2.19-1.07-.54-2.47-.54-5.27-.54h-.4c-.56,0-.84,0-1.05.11C1.33.86.86,1.79.86,7.3c-.11.21-.11.49-.11,1.05v4.4c0,2.8,0,4.2.55,5.27.48.94,1.24,1.71,2.18,2.19,1.07.54,2.47.54,5.27.54,2.8,0,4.2,0,5.27-.54.94-.48,1.71-1.24,2.19-2.19.54-1.07.54-2.47.54-5.27v-4c0-2.8,0-4.2-.54-5.27Z"/>
      <path class="cls-1" d="m5.75,10.75h6m-6-4.34h6m-4,8.34h4M8.97.75h0c2.59,0,3.89,0,4.89.47,1.07.5,1.92,1.35,2.42,2.42.47,1,.47,2.3.47,4.89v4.22c0,2.8,0,4.2-.54,5.27-.48.94-1.24,1.71-2.19,2.19-1.07.54-2.47.54-5.27.54h0c-2.8,0-4.2,0-5.27-.54-.94-.48-1.71-1.24-2.18-2.19-.55-1.07-.55-2.47-.55-5.27v-3.69c0-8.58,2.85-8.31,8.22-8.31Z"/>
      <path class="cls-2" d="m11.97.75h0c2.59,0,3.89,0,4.89.47,1.07.5,1.92,1.35,2.42,2.42.47,1,.47,2.3.47,4.89v4.22c0,2.8,0,4.2-.54,5.27-.48.94-1.24,1.71-2.19,2.19-1.07.54-2.47.54-5.27.54"/>
      <path class="cls-3" d="m14.69.75h0c2.59,0,3.89,0,4.89.47,1.07.5,1.92,1.35,2.42,2.42.47,1,.47,2.3.47,4.89v4.22c0,2.8,0,4.2-.54,5.27-.48.94-1.24,1.71-2.19,2.19-1.07.54-2.47.54-5.27.54"/>
    </g>
  </g>
</svg>