<?xml version="1.0" encoding="UTF-8"?>
<svg id="Capa_2" data-name="Capa 2" xmlns="http://www.w3.org/2000/svg" viewBox="0 0 33.18 22.5">
  <defs>
    <style>
      .cls-1, .cls-2 {
        fill: none;
      }

      .cls-1, .cls-2, .cls-3 {
        stroke: #2f384c;
        stroke-linecap: round;
        stroke-linejoin: round;
      }

      .cls-1, .cls-3 {
        stroke-width: 1.5px;
      }

      .cls-2 {
        stroke-width: 1.05px;
      }

      .cls-3 {
        fill: #fff;
      }

      .cls-4 {
        fill: #2f384c;
        isolation: isolate;
        opacity: .12;
      }
    </style>
  </defs>
  <g id="Capa_1-2" data-name="Capa 1">
    <g>
      <g>
        <path class="cls-4" d="m30.57,16.5c2.78-2.78,2.78-7.28,0-10.05-2.78-2.78-7.28-2.78-10.05,0-2.78,2.78-2.78,7.28,0,10.05,2.78,2.78,7.28,2.78,10.05,0Z"/>
        <path class="cls-2" d="m22.77,4.95c2.76,4.01,4.61,8.45,5.54,13.04m-7.8-1.5c2.78,2.78,7.28,2.78,10.05,0,2.78-2.78,2.78-7.28,0-10.05m-10.05,10.05c-2.78-2.78-2.78-7.28,0-10.05,2.78-2.78,7.28-2.78,10.05,0m-6.07-2.01c4.66,2.01,6.67,6.47,5.59,12.49m-3.02,1.48c-3.61-2.29-6.55-7.5-5.69-12.7m-1.92,9.06c3.77-2.95,8.01-5.02,12.44-6.17m-13.02,4.47c1.73-4.75,5.99-6.98,11.9-6.19m1.58,2.94c-2.06,3.72-6.99,6.91-12.1,6.3"/>
      </g>
      <path class="cls-3" d="m10.35,21.75h.8c3.36,0,5.04,0,6.32-.65,1.13-.58,2.05-1.49,2.62-2.62.65-1.28.65-2.96.65-6.32v-.8c0-3.36,0-5.04-.65-6.32-.58-1.13-1.49-2.05-2.62-2.62-1.28-.65-2.96-.65-6.32-.65h-.8c-3.36,0-5.04,0-6.32.65-1.13.58-2.05,1.49-2.62,2.62-.65,1.28-.65,2.96-.65,6.32v.8c0,3.36,0,5.04.65,6.32.58,1.13,1.49,2.05,2.62,2.62,1.28.65,2.96.65,6.32.65Z"/>
      <rect class="cls-4" x=".75" y="1.75" width="20" height="20" rx="6" ry="6"/>
      <path class="cls-1" d="m6.75.75v3M14.75.75v3m1,4H5.75m10,9h-2m-3.4,5h.8c3.36,0,5.04,0,6.32-.65,1.13-.58,2.05-1.49,2.62-2.62.65-1.28.65-2.96.65-6.32v-.8c0-3.36,0-5.04-.65-6.32-.58-1.13-1.49-2.05-2.62-2.62-1.28-.65-2.96-.65-6.32-.65h-.8c-3.36,0-5.04,0-6.32.65-1.13.58-2.05,1.49-2.62,2.62-.65,1.28-.65,2.96-.65,6.32v.8c0,3.36,0,5.04.65,6.32.58,1.13,1.49,2.05,2.62,2.62,1.28.65,2.96.65,6.32.65Z"/>
    </g>
  </g>
</svg>