<?xml version="1.0" encoding="UTF-8"?>
<svg id="Capa_2" data-name="Capa 2" xmlns="http://www.w3.org/2000/svg" viewBox="0 0 23.5 19.5">
  <defs>
    <style>
      .cls-1 {
        fill: none;
        stroke: #2f384c;
        stroke-linecap: round;
        stroke-linejoin: round;
        stroke-width: 1.5px;
      }

      .cls-2 {
        fill: #2f384c;
        isolation: isolate;
        opacity: .12;
      }
    </style>
  </defs>
  <g id="Capa_1-2" data-name="Capa 1">
    <g>
      <path class="cls-2" d="m22.75,1.05c0,2.87-1.64,3.93-1.64,3.93v.84c0,6.03-4.69,12.93-13.23,12.93-2.66,0-5.09-.74-7.13-2.04,2.44.3,4.91-.38,6.86-1.86-2.04-.04-3.76-1.34-4.34-3.17.72.1,1.37.09,2.08-.09-2.17-.44-3.72-2.35-3.72-4.51.62.35,1.37.52,2.12.56C1.75,6.36,1.06,3.6,2.3,1.57c2.3,2.73,5.75,4.55,9.61,4.77-.09-.35-.13-.69-.13-1.04,0-2.52,2.08-4.55,4.65-4.55,1.33,0,2.52.52,3.41,1.43,1.02-.22,2.04-.61,2.92-1.13Z"/>
      <path class="cls-1" d="m22.75,1.05c0,2.87-1.64,3.93-1.64,3.93v.84c0,6.03-4.69,12.93-13.23,12.93-2.66,0-5.09-.74-7.13-2.04,2.44.3,4.91-.38,6.86-1.86-2.04-.04-3.76-1.34-4.34-3.17.72.1,1.37.09,2.08-.09-2.17-.44-3.72-2.35-3.72-4.51.62.35,1.37.52,2.12.56C1.75,6.36,1.06,3.6,2.3,1.57c2.3,2.73,5.75,4.55,9.61,4.77-.09-.35-.13-.69-.13-1.04,0-2.52,2.08-4.55,4.65-4.55,1.33,0,2.52.52,3.41,1.43,1.02-.22,2.04-.61,2.92-1.13Z"/>
    </g>
  </g>
</svg>