<?xml version="1.0" encoding="UTF-8"?>
<svg id="Capa_2" data-name="Capa 2" xmlns="http://www.w3.org/2000/svg" viewBox="0 0 15.5 21.5">
  <defs>
    <style>
      .cls-1 {
        fill: none;
        stroke: #2f384c;
        stroke-linecap: round;
        stroke-linejoin: round;
        stroke-width: 1.5px;
      }

      .cls-2 {
        opacity: .12;
      }

      .cls-3 {
        fill: #2f384c;
      }
    </style>
  </defs>
  <g id="Capa_1-2" data-name="Capa 1">
    <g>
      <g class="cls-2">
        <path class="cls-3" d="m.75,16.78c0-3.29,2.15-5.96,4.8-5.96h4.4c2.65,0,4.8,2.67,4.8,5.96,0,2.19-1.43,3.97-3.2,3.97H3.95c-1.77,0-3.2-1.78-3.2-3.97Z"/>
        <path class="cls-3" d="m11.75,4.75c0,2.21-1.79,4-4,4s-4-1.79-4-4S5.54.75,7.75.75s4,1.79,4,4Z"/>
      </g>
      <path class="cls-1" d="m11.75,4.75c0,2.21-1.79,4-4,4s-4-1.79-4-4S5.54.75,7.75.75s4,1.79,4,4ZM3.95,20.75h7.6c1.77,0,3.2-1.78,3.2-3.97h0c0-3.29-2.15-5.96-4.8-5.96h-4.4c-2.65,0-4.8,2.67-4.8,5.96h0c0,2.19,1.43,3.97,3.2,3.97Zm3.23-9.52c.28.41.48.87.57,1.36m0,0c.1-.5.3-.97.59-1.39m-.59,3.23c-.45,1.57-.89,4.07-.89,4.07h1.77l-.88-4.07Z"/>
    </g>
  </g>
</svg>