<?xml version="1.0" encoding="UTF-8"?>
<svg id="Capa_2" data-name="Capa 2" xmlns="http://www.w3.org/2000/svg" viewBox="0 0 22.5 21.5">
  <defs>
    <style>
      .cls-1 {
        fill: none;
        stroke: #2f384c;
        stroke-linecap: round;
        stroke-linejoin: round;
        stroke-width: 1.5px;
      }

      .cls-2 {
        fill: #2f384c;
        isolation: isolate;
        opacity: .12;
      }
    </style>
  </defs>
  <g id="Capa_1-2" data-name="Capa 1">
    <g>
      <path class="cls-2" d="m2.76.75h18v7.6c0,2.24,0,3.36-.44,4.22-.38.75-1,1.36-1.75,1.75-.86.44-1.98.44-4.22.44h-5.2c-2.24,0-3.36,0-4.22-.44-.75-.38-1.36-1-1.75-1.75-.44-.86-.44-1.98-.44-4.22V.75Z"/>
      <path class="cls-1" d="m2.25.75h18M2.25.75v7.6c0,2.24,0,3.36.44,4.22.38.75,1,1.36,1.75,1.75.86.44,1.98.44,4.22.44h5.2c2.24,0,3.36,0,4.22-.44.75-.38,1.36-1,1.75-1.75.44-.86.44-1.98.44-4.22V.75M2.25.75H.75m19.5,0h1.5m-10.5,14v3m0,0l-5,3m5-3l5,3m-5-3v3"/>
      <line class="cls-1" x1="14.12" y1="4.37" x2="6.85" y2="4.37"/>
      <line class="cls-1" x1="16.12" y1="7.83" x2="6.85" y2="7.83"/>
      <line class="cls-1" x1="15.12" y1="11.29" x2="6.85" y2="11.29"/>
    </g>
  </g>
</svg>