<?xml version="1.0" encoding="UTF-8"?>
<svg id="Capa_2" data-name="Capa 2" xmlns="http://www.w3.org/2000/svg" viewBox="0 0 21.5 21.5">
  <defs>
    <style>
      .cls-1 {
        fill: none;
        stroke: #2f384c;
        stroke-linecap: round;
        stroke-linejoin: round;
        stroke-width: 1.5px;
      }

      .cls-2 {
        fill: #2f384c;
        isolation: isolate;
        opacity: .12;
      }
    </style>
  </defs>
  <g id="Capa_1-2" data-name="Capa 1">
    <g>
      <path class="cls-2" d="m11.15.75h-.8c-3.36,0-5.04,0-6.32.65-1.13.58-2.05,1.49-2.62,2.62-.65,1.28-.65,2.96-.65,6.32v.8c0,3.36,0,5.04.65,6.32.58,1.13,1.49,2.05,2.62,2.62,1.28.65,2.96.65,6.32.65h1.4c.93,0,1.4,0,1.77-.15.49-.2.88-.59,1.08-1.08.15-.37.15-.83.15-1.77s0-1.4.15-1.77c.2-.49.59-.88,1.08-1.08.37-.15.83-.15,1.77-.15s1.4,0,1.77-.15c.49-.2.88-.59,1.08-1.08.15-.37.15-.83.15-1.77v-1.4c0-3.36,0-5.04-.65-6.32-.58-1.13-1.49-2.05-2.62-2.62-1.28-.65-2.96-.65-6.32-.65Z"/>
      <path class="cls-1" d="m14.75,20.25v-2.3c0-1.12,0-1.68.22-2.11.19-.38.5-.68.87-.87.43-.22.99-.22,2.11-.22h2.3M5.75,5.75h8m-8,4h6m-6,4h2m6.17,7h-3.57c-3.36,0-5.04,0-6.32-.65-1.13-.58-2.05-1.49-2.62-2.62-.65-1.28-.65-2.96-.65-6.32v-.8c0-3.36,0-5.04.65-6.32.58-1.13,1.49-2.05,2.62-2.62,1.28-.65,2.96-.65,6.32-.65h.8c3.36,0,5.04,0,6.32.65,1.13.58,2.05,1.49,2.62,2.62.65,1.28.65,2.96.65,6.32v3.57c0,.34,0,.51,0,.67-.07,1.37-.61,2.66-1.52,3.68-.11.12-.23.24-.47.48h0c-.24.24-.36.36-.48.47-1.02.91-2.32,1.45-3.68,1.52-.16,0-.33,0-.67,0Z"/>
    </g>
  </g>
</svg>