<?xml version="1.0" encoding="UTF-8"?>
<svg id="Capa_2" data-name="Capa 2" xmlns="http://www.w3.org/2000/svg" viewBox="0 0 19.5 21.5">
  <defs>
    <style>
      .cls-1 {
        fill: none;
        stroke: #2f384c;
        stroke-linecap: round;
        stroke-width: 1.5px;
      }

      .cls-2 {
        fill: #2f384c;
        isolation: isolate;
        opacity: .12;
      }
    </style>
  </defs>
  <g id="Capa_1-2" data-name="Capa 1">
    <g>
      <rect class="cls-2" x=".75" y="6.75" width="28" height="14" rx="4" ry="4"/>
      <path class="cls-1" d="m4.75,6.75v-1.2c0-1.68,0-2.52.33-3.16.29-.56.75-1.02,1.31-1.31.64-.33,1.48-.33,3.16-.33h.4c1.68,0,2.52,0,3.16.33.56.29,1.02.75,1.31,1.31.33.64.33,1.48.33,3.16v1.2m-5,6v2m-2.6,6h5.2c2.24,0,3.36,0,4.22-.44.75-.38,1.36-1,1.75-1.75.44-.86.44-1.98.44-4.22v-1.2c0-2.24,0-3.36-.44-4.22-.38-.75-1-1.36-1.75-1.75-.86-.44-1.98-.44-4.22-.44h-5.2c-2.24,0-3.36,0-4.22.44-.75.38-1.36,1-1.75,1.75-.44.86-.44,1.98-.44,4.22v1.2c0,2.24,0,3.36.44,4.22.38.75,1,1.36,1.75,1.75.86.44,1.98.44,4.22.44Z"/>
    </g>
  </g>
</svg>