<?xml version="1.0" encoding="utf-8"?>
<!-- Generator: Adobe Illustrator 27.1.1, SVG Export Plug-In . SVG Version: 6.00 Build 0)  -->
<svg version="1.1" id="Capa_2_00000088830424420801487410000001936176687371522197_"
	 xmlns="http://www.w3.org/2000/svg" xmlns:xlink="http://www.w3.org/1999/xlink" x="0px" y="0px" viewBox="0 0 20 20"
	 style="enable-background:new 0 0 20 20;" xml:space="preserve">
<style type="text/css">
	.st0{opacity:0.12;}
	.st1{fill:#2F384C;}
	.st2{fill:none;stroke:#2F384C;stroke-width:1.4;stroke-linecap:round;stroke-linejoin:round;}
</style>
<g id="Capa_1-2">
	<g>
		<g class="st0">
			<path class="st1" d="M3.5,15.6c0-3.1,2-5.5,4.5-5.5H12c2.5,0,4.5,2.5,4.5,5.5c0,2-1.3,3.7-3,3.7H6.5C4.8,19.3,3.5,17.6,3.5,15.6
				L3.5,15.6z"/>
			<path class="st1" d="M13.7,4.4c0,2.1-1.7,3.7-3.7,3.7S6.3,6.5,6.3,4.4S7.9,0.7,10,0.7S13.7,2.4,13.7,4.4z"/>
		</g>
		<path class="st2" d="M13.7,4.4c0,2.1-1.7,3.7-3.7,3.7S6.3,6.5,6.3,4.4S7.9,0.7,10,0.7S13.7,2.4,13.7,4.4z M6.5,19.3h7.1
			c1.6,0,3-1.6,3-3.7l0,0c0-3.1-2-5.5-4.5-5.5H8c-2.5,0-4.5,2.5-4.5,5.5l0,0C3.5,17.6,4.8,19.3,6.5,19.3L6.5,19.3z M9.5,10.4
			c0.3,0.4,0.4,0.8,0.5,1.3 M10,11.7c0.1-0.5,0.3-0.9,0.6-1.3 M10,13.4c-0.4,1.5-0.8,3.8-0.8,3.8h1.6C10.8,17.2,10,13.4,10,13.4z"/>
	</g>
</g>
</svg>
