<?xml version="1.0" encoding="UTF-8"?>
<svg id="Capa_2" data-name="Capa 2" xmlns="http://www.w3.org/2000/svg" viewBox="0 0 23.35 23.35">
  <defs>
    <style>
      .cls-1 {
        stroke-width: 1.05px;
      }

      .cls-1, .cls-2, .cls-3, .cls-4 {
        fill: none;
        stroke: #2f384c;
        stroke-linecap: round;
        stroke-linejoin: round;
      }

      .cls-5 {
        fill: #fff;
      }

      .cls-6 {
        fill: #2f384c;
        opacity: .12;
      }

      .cls-2 {
        stroke-width: .56px;
      }

      .cls-3 {
        stroke-width: .61px;
      }

      .cls-4 {
        stroke-width: 1.22px;
      }
    </style>
  </defs>
  <g id="Capa_1-2" data-name="Capa 1">
    <g>
      <path class="cls-6" d="m22.74,11.65c0,6.1-4.94,11.04-11.04,11.04S.67,17.74.67,11.65,5.61.61,11.7.61s11.04,4.94,11.04,11.04Z"/>
      <circle class="cls-4" cx="11.67" cy="11.67" r="11.07"/>
      <path class="cls-1" d="m14.47,8.4c0,1.54-1.25,2.8-2.8,2.8s-2.8-1.25-2.8-2.8,1.25-2.8,2.8-2.8,2.8,1.25,2.8,2.8Zm-5.45,11.19h5.31c1.24,0,2.24-1.24,2.24-2.78h0c0-2.3-1.5-4.16-3.36-4.16h-3.08c-1.85,0-3.36,1.86-3.36,4.16h0c0,1.53,1,2.78,2.24,2.78Z"/>
      <g>
        <path class="cls-5" d="m7.24,16.73c0-1.99,1.36-3.61,3.04-3.61h2.79c1.68,0,3.04,1.62,3.04,3.61,0,1.33-.91,2.41-2.03,2.41h-4.81c-1.12,0-2.03-1.08-2.03-2.41Z"/>
        <path class="cls-5" d="m13.99,8.4c0,1.28-1.04,2.31-2.31,2.31s-2.31-1.04-2.31-2.31,1.04-2.31,2.31-2.31,2.31,1.04,2.31,2.31Z"/>
      </g>
      <g>
        <path class="cls-2" d="m8.46,11.57c-.24-.72-.84-1.23-1.55-1.23h-2.21c-.92,0-1.66.87-1.66,1.95h0c0,.72.5,1.3,1.11,1.3h2.26"/>
        <path class="cls-3" d="m4.19,7.69c0,.9.73,1.62,1.62,1.62s1.62-.73,1.62-1.62-.73-1.62-1.62-1.62-1.62.73-1.62,1.62Z"/>
        <path class="cls-5" d="m4.49,7.69c0,.73.59,1.33,1.33,1.33s1.33-.59,1.33-1.33-.59-1.33-1.33-1.33-1.33.59-1.33,1.33Z"/>
        <path class="cls-5" d="m8.22,11.68c-.21-.63-.73-1.04-1.3-1.04h-2.21c-.77,0-1.4.74-1.4,1.64,0,.55.38.99.85.99h2.26c.22,0,.25.27.25.27,0-.4,1.18-1.6,1.8-1.67-.13-.01-.21-.08-.24-.19Z"/>
      </g>
      <g>
        <path class="cls-2" d="m14.86,11.57c.24-.72.84-1.23,1.55-1.23h2.21c.92,0,1.66.87,1.66,1.95h0c0,.72-.5,1.3-1.11,1.3h-2.26"/>
        <path class="cls-3" d="m19.13,7.69c0,.9-.73,1.62-1.62,1.62s-1.62-.73-1.62-1.62.73-1.62,1.62-1.62,1.62.73,1.62,1.62Z"/>
        <path class="cls-5" d="m18.83,7.69c0,.73-.59,1.33-1.33,1.33s-1.33-.59-1.33-1.33.59-1.33,1.33-1.33,1.33.59,1.33,1.33Z"/>
        <path class="cls-5" d="m15.1,11.68c.21-.63.73-1.04,1.3-1.04h2.21c.77,0,1.4.74,1.4,1.64,0,.55-.38.99-.85.99h-2.26c-.22,0-.25.27-.25.27,0-.4-1.18-1.6-1.8-1.67.13-.01.21-.08.24-.19Z"/>
      </g>
    </g>
  </g>
</svg>