<?xml version="1.0" encoding="UTF-8"?>
<svg id="Capa_2" data-name="Capa 2" xmlns="http://www.w3.org/2000/svg" viewBox="0 0 21.5 22.1">
  <defs>
    <style>
      .cls-1 {
        fill: none;
        stroke: #2f384c;
        stroke-linecap: round;
        stroke-linejoin: round;
        stroke-width: 1.5px;
      }

      .cls-2 {
        fill: #2f384c;
        isolation: isolate;
        opacity: .12;
      }
    </style>
  </defs>
  <g id="Capa_1-2" data-name="Capa 1">
    <g>
      <path class="cls-2" d="m20.75,16.35v-5.15c0-1.41,0-2.12-.18-2.77-.16-.58-.42-1.12-.77-1.61-.4-.55-.95-.99-2.05-1.87l-2-1.6c-1.78-1.43-2.68-2.14-3.66-2.41-.87-.24-1.79-.24-2.67,0-.99.27-1.88.99-3.66,2.41l-2,1.6c-1.1.88-1.65,1.32-2.05,1.87-.35.48-.61,1.03-.77,1.61-.18.65-.18,1.36-.18,2.77v5.15c0,2.76,2.24,5,5,5,1.1,0,2-.9,2-2v-4c0-1.66,1.34-3,3-3s3,1.34,3,3v4c0,1.1.9,2,2,2,2.76,0,5-2.24,5-5Z"/>
      <path class="cls-1" d="m20.75,16.35v-5.15c0-1.41,0-2.12-.18-2.77-.16-.58-.42-1.12-.77-1.61-.4-.55-.95-.99-2.05-1.87l-2-1.6c-1.78-1.43-2.68-2.14-3.66-2.41-.87-.24-1.79-.24-2.67,0-.99.27-1.88.99-3.66,2.41l-2,1.6c-1.1.88-1.65,1.32-2.05,1.87-.35.48-.61,1.03-.77,1.61-.18.65-.18,1.36-.18,2.77v5.15c0,2.76,2.24,5,5,5,1.1,0,2-.9,2-2v-4c0-1.66,1.34-3,3-3s3,1.34,3,3v4c0,1.1.9,2,2,2,2.76,0,5-2.24,5-5Z"/>
    </g>
  </g>
</svg>