<?xml version="1.0" encoding="UTF-8"?>
<svg id="Capa_2" data-name="Capa 2" xmlns="http://www.w3.org/2000/svg" viewBox="0 0 21.5 21.5">
  <defs>
    <style>
      .cls-1 {
        fill: none;
        stroke: #b62a2a;
        stroke-linecap: round;
        stroke-linejoin: round;
        stroke-width: 1.5px;
      }

      .cls-2 {
        fill: #2f384c;
        isolation: isolate;
        opacity: .12;
      }
    </style>
  </defs>
  <g id="Capa_1-2" data-name="Capa 1">
    <g>
      <rect class="cls-2" x=".75" y=".75" width="20" height="20" rx="5" ry="5"/>
      <path class="cls-1" d="m14.75,11.75l-4,4m0,0l-4-4m4,4V5.75m-2,15h4c2.8,0,4.2,0,5.27-.55.94-.48,1.71-1.24,2.18-2.18.55-1.07.55-2.47.55-5.27v-4c0-2.8,0-4.2-.55-5.27-.48-.94-1.24-1.71-2.18-2.19-1.07-.54-2.47-.54-5.27-.54h-4c-2.8,0-4.2,0-5.27.54-.94.48-1.71,1.24-2.19,2.19-.54,1.07-.54,2.47-.54,5.27v4c0,2.8,0,4.2.54,5.27.48.94,1.24,1.71,2.19,2.18,1.07.55,2.47.55,5.27.55Z"/>
    </g>
  </g>
</svg>