<?xml version="1.0" encoding="UTF-8"?>
<svg id="Capa_2" data-name="Capa 2" xmlns="http://www.w3.org/2000/svg" viewBox="0 0 21.5 21.5">
  <defs>
    <style>
      .cls-1 {
        fill: none;
        stroke: #2f384c;
        stroke-linecap: round;
        stroke-linejoin: round;
        stroke-width: 1.5px;
      }

      .cls-2 {
        opacity: .12;
      }

      .cls-3 {
        fill: #2f384c;
      }
    </style>
  </defs>
  <g id="Capa_1-2" data-name="Capa 1">
    <g>
      <g class="cls-2">
        <path class="cls-3" d="m.75,5.55c0-1.68,0-2.52.33-3.16.29-.56.75-1.02,1.31-1.31.64-.33,1.48-.33,3.16-.33h.4c1.68,0,2.52,0,3.16.33.56.29,1.02.75,1.31,1.31.33.64.33,1.48.33,3.16v15.2h-5.2c-1.68,0-2.52,0-3.16-.33-.56-.29-1.02-.75-1.31-1.31-.33-.64-.33-1.48-.33-3.16V5.55Z"/>
      </g>
      <path class="cls-1" d="m11.55,20.75h5.2v-12.33c0-1.68,0-2.52-.33-3.16-.29-.56-.75-1.02-1.31-1.31-.64-.33-1.48-.33-3.16-.33h-.4m-4.8,17.13h9.5c1.4,0,2.1,0,2.65-.23.74-.3,1.32-.89,1.62-1.62.23-.55.23-1.25.23-2.65v-.5c0-.93,0-1.4-.1-1.78-.28-1.04-1.09-1.84-2.12-2.12-.38-.1-.85-.1-1.78-.1h0m-10.5,4c0,.28-.22.5-.5.5s-.5-.22-.5-.5m1,0c0-.28-.22-.5-.5-.5s-.5.22-.5.5m1,0h-1m8.63,0c0,.28-.22.5-.5.5s-.5-.22-.5-.5m1,0c0-.28-.22-.5-.5-.5s-.5.22-.5.5m1,0h-1m-2.13,5V5.55c0-1.68,0-2.52-.33-3.16-.29-.56-.75-1.02-1.31-1.31-.64-.33-1.48-.33-3.16-.33h-.4c-1.68,0-2.52,0-3.16.33-.56.29-1.02.75-1.31,1.31-.33.64-.33,1.48-.33,3.16v10.4c0,1.68,0,2.52.33,3.16.29.56.75,1.02,1.31,1.31.64.33,1.48.33,3.16.33h5.2Z"/>
    </g>
  </g>
</svg>