<?xml version="1.0" encoding="UTF-8"?>
<svg id="Capa_2" data-name="Capa 2" xmlns="http://www.w3.org/2000/svg" viewBox="0 0 21.5 21.87">
  <defs>
    <style>
      .cls-1 {
        fill: none;
        stroke: #2f384c;
        stroke-linecap: round;
        stroke-linejoin: round;
        stroke-width: 1.5px;
      }

      .cls-2 {
        fill: #2f384c;
        isolation: isolate;
        opacity: .12;
      }
    </style>
  </defs>
  <g id="Capa_1-2" data-name="Capa 1">
    <g>
      <path class="cls-2" d="m.75,1.12v13.6c0,2.24,0,3.36.44,4.22.38.75,1,1.36,1.75,1.75.86.44,1.98.44,4.22.44h9.6V1.12l-2.71,1.21h0c-.61.27-.92.41-1.23.44-.34.04-.68-.01-1-.15-.29-.12-.54-.34-1.05-.77-.67-.58-1.01-.87-1.39-.99-.41-.14-.85-.14-1.26,0-.37.12-.71.41-1.39.99h0c-.51.44-.76.65-1.05.77-.31.13-.66.18-1,.15-.31-.03-.62-.17-1.23-.44L.75,1.12Z"/>
      <path class="cls-1" d="m16.75,11.12V1.12l-2.71,1.21c-.61.27-.92.41-1.23.44-.34.04-.68-.01-1-.15-.29-.12-.54-.34-1.05-.77h0c-.67-.58-1.01-.87-1.39-.99-.41-.14-.85-.14-1.26,0-.37.12-.71.41-1.39.99h0c-.51.44-.76.65-1.05.77-.31.13-.66.18-1,.15-.31-.03-.62-.17-1.23-.44L.75,1.12v13.6c0,2.24,0,3.36.44,4.22.38.75,1,1.36,1.75,1.75.86.44,1.98.44,4.22.44h11.6m-2-10h.8c1.12,0,1.68,0,2.11.22.38.19.68.5.87.87.22.43.22.99.22,2.11v4.8c0,1.1-.9,2-2,2h0c-1.1,0-2-.9-2-2v-8Zm-11,5h6m-6-8h4m-4,4h6"/>
    </g>
  </g>
</svg>