<?xml version="1.0" encoding="UTF-8"?>
<svg id="Capa_2" data-name="Capa 2" xmlns="http://www.w3.org/2000/svg" viewBox="0 0 32.53 22.5">
  <defs>
    <style>
      .cls-1, .cls-2 {
        fill: none;
      }

      .cls-1, .cls-2, .cls-3 {
        stroke: #2f384c;
        stroke-linecap: round;
        stroke-linejoin: round;
      }

      .cls-1, .cls-3 {
        stroke-width: 1.5px;
      }

      .cls-2 {
        stroke-width: 1.37px;
      }

      .cls-4 {
        opacity: .36;
      }

      .cls-4, .cls-5, .cls-6 {
        fill: #2f384c;
        isolation: isolate;
      }

      .cls-5 {
        opacity: .12;
      }

      .cls-3 {
        fill: #fff;
      }

      .cls-6 {
        opacity: .12;
      }
    </style>
  </defs>
  <g id="Capa_1-2" data-name="Capa 1">
    <g>
      <g>
        <path class="cls-6" d="m19.4,17.42V6.42l1.09-.33c1.42-.43,2.93-.16,4.19.75,1.39,1,3.07,1.22,4.6.61l2.56-1.03v11l-2.56,1.03c-1.53.62-3.21.39-4.6-.61-1.26-.91-2.77-1.18-4.19-.75l-1.09.33Z"/>
        <path class="cls-2" d="m19.4,6.42v11m0-11v-2m0,2l1.09-.33c1.42-.43,2.93-.16,4.19.75h0c1.39,1,3.07,1.22,4.6.61l2.56-1.03v11l-2.56,1.03c-1.53.62-3.21.39-4.6-.61h0c-1.26-.91-2.77-1.18-4.19-.75l-1.09.33m0,2.09v-2.09"/>
      </g>
      <path class="cls-4" d="m19.4,9.72v-4l1.09-.33c1.42-.43,2.93-.16,4.19.75,1.39,1,3.07,1.22,4.6.61l2.56-1.03v4l-2.56,1.03c-1.53.62-3.21.39-4.6-.61-1.26-.91-2.77-1.18-4.19-.75l-1.09.33Z"/>
      <path class="cls-4" d="m19.4,18.13v-4l1.09-.33c1.42-.43,2.93-.16,4.19.75,1.39,1,3.07,1.22,4.6.61l2.56-1.03v4l-2.56,1.03c-1.53.62-3.21.39-4.6-.61-1.26-.91-2.77-1.18-4.19-.75l-1.09.33Z"/>
      <path class="cls-3" d="m10.35,21.75h.8c3.36,0,5.04,0,6.32-.65,1.13-.58,2.05-1.49,2.62-2.62.65-1.28.65-2.96.65-6.32v-.8c0-3.36,0-5.04-.65-6.32-.58-1.13-1.49-2.05-2.62-2.62-1.28-.65-2.96-.65-6.32-.65h-.8c-3.36,0-5.04,0-6.32.65-1.13.58-2.05,1.49-2.62,2.62-.65,1.28-.65,2.96-.65,6.32v.8c0,3.36,0,5.04.65,6.32.58,1.13,1.49,2.05,2.62,2.62,1.28.65,2.96.65,6.32.65Z"/>
      <rect class="cls-5" x=".75" y="1.75" width="20" height="20" rx="6" ry="6"/>
      <path class="cls-1" d="m6.75.75v3M14.75.75v3m1,4H5.75m10,9h-2m-3.4,5h.8c3.36,0,5.04,0,6.32-.65,1.13-.58,2.05-1.49,2.62-2.62.65-1.28.65-2.96.65-6.32v-.8c0-3.36,0-5.04-.65-6.32-.58-1.13-1.49-2.05-2.62-2.62-1.28-.65-2.96-.65-6.32-.65h-.8c-3.36,0-5.04,0-6.32.65-1.13.58-2.05,1.49-2.62,2.62-.65,1.28-.65,2.96-.65,6.32v.8c0,3.36,0,5.04.65,6.32.58,1.13,1.49,2.05,2.62,2.62,1.28.65,2.96.65,6.32.65Z"/>
    </g>
  </g>
</svg>