<?xml version="1.0" encoding="UTF-8"?>
<svg id="Capa_2" data-name="Capa 2" xmlns="http://www.w3.org/2000/svg" viewBox="0 0 21.5 21.5">
  <defs>
    <style>
      .cls-1 {
        fill: none;
        stroke: #2f384c;
        stroke-linecap: round;
        stroke-linejoin: round;
        stroke-width: 1.5px;
      }

      .cls-2 {
        fill: #2f384c;
        isolation: isolate;
        opacity: .12;
      }
    </style>
  </defs>
  <g id="Capa_1-2" data-name="Capa 1">
    <g>
      <rect class="cls-2" x=".75" y=".75" width="14" height="14" rx="4" ry="4"/>
      <path class="cls-1" d="m14.92,6.75h0c1.71,0,2.56,0,3.24.26,1.08.41,1.93,1.26,2.33,2.33.26.68.26,1.53.26,3.24v1.77c0,2.24,0,3.36-.44,4.22-.38.75-1,1.36-1.75,1.75-.86.44-1.98.44-4.22.44h-1.77c-1.71,0-2.56,0-3.24-.26-1.08-.41-1.93-1.26-2.33-2.33-.26-.68-.26-1.53-.26-3.24h0m.4-.17h1.2c2.24,0,3.36,0,4.22-.44.75-.38,1.36-1,1.75-1.75.44-.86.44-1.98.44-4.22v-1.2c0-2.24,0-3.36-.44-4.22-.38-.75-1-1.36-1.75-1.75-.86-.44-1.98-.44-4.22-.44h-1.2c-2.24,0-3.36,0-4.22.44-.75.38-1.36,1-1.75,1.75-.44.86-.44,1.98-.44,4.22v1.2c0,2.24,0,3.36.44,4.22.38.75,1,1.36,1.75,1.75.86.44,1.98.44,4.22.44Z"/>
    </g>
  </g>
</svg>