<?xml version="1.0" encoding="utf-8"?>
<!-- Generator: Adobe Illustrator 27.1.1, SVG Export Plug-In . SVG Version: 6.00 Build 0)  -->
<svg version="1.1" id="Layer_1" xmlns="http://www.w3.org/2000/svg" xmlns:xlink="http://www.w3.org/1999/xlink" x="0px" y="0px"
	 viewBox="0 0 1126 599" style="enable-background:new 0 0 1126 599;" xml:space="preserve">
<style type="text/css">
	.st0{fill:#202022;}
	.st1{fill:#BD2A2B;}
	.st2{fill:#007AC0;}
	.st3{fill:#AB3686;}
	.st4{fill:#6C3A8E;}
	
		.st5{clip-path:url(#SVGID_00000052822780291422888270000008566175978096469394_);fill:url(#SVGID_00000053525086044789199860000018421937956229724320_);}
	.st6{fill:#FFFFFF;stroke:#E95123;stroke-width:0.5;stroke-miterlimit:3.8636;}
	.st7{fill:#E95123;}
	.st8{fill:#FFFFFF;}
	.st9{clip-path:url(#SVGID_00000132073077273817943660000004470818084524497311_);fill:#FFFFFF;}
	
		.st10{clip-path:url(#SVGID_00000018941741650567535940000012039710391053077398_);fill:url(#SVGID_00000065042747888544216040000003827449975696106682_);}
	.st11{fill:#FFFFFF;stroke:#E95123;stroke-width:2.0697;stroke-miterlimit:3.8636;}
	
		.st12{clip-path:url(#SVGID_00000096763155963104406880000014845711374293060276_);fill:url(#SVGID_00000150063599646753424980000009784868011413636030_);}
</style>
<g>
	<rect x="-16.8" y="-9.5" class="st0" width="1160.7" height="636.9"/>
</g>
<g>
	<g>
		<path class="st8" d="M437.7,364.6c-0.6-1.7-0.9-2.7-0.9-8v-10.2c0-6-2-8.3-6.7-8.3h-3.5v26.4h-10.2v-65h15.4
			c10.6,0,15.1,4.9,15.1,14.9v5.1c0,6.7-2.1,11-6.7,13.2c5.1,2.1,6.8,7.1,6.8,13.8v10c0,3.2,0.1,5.5,1.1,7.9H437.7z M426.5,309v19.9
			h4c3.8,0,6.1-1.7,6.1-6.9v-6.4c0-4.6-1.6-6.7-5.2-6.7H426.5z"/>
		<path class="st8" d="M502.8,343.1l-12.9-43.4h10.7l7.8,29.6l7.8-29.6h9.7L513,343.1v21.5h-10.2V343.1z"/>
		<path class="st8" d="M527,299.7h31.5v9.3h-10.7v55.7h-10.2V309H527V299.7z"/>
		<path class="st8" d="M464.5,364.6h-10.2v-65h10.2v27.8h11.6v-27.8h10.4v65h-10.4v-27.8h-11.6V364.6z"/>
		<path class="st8" d="M623.1,345.8l7-46.1h14.2v65h-9.7v-46.6l-7.1,46.6h-9.7l-7.6-45.9v45.9h-8.9v-65h14.2L623.1,345.8z"/>
		<path class="st8" d="M651.7,299.7h10.2v65h-10.2V299.7z"/>
		<path class="st8" d="M698.9,340.4v8.6c0,10.4-5.2,16.3-15.2,16.3s-15.2-5.9-15.2-16.3v-33.8c0-10.4,5.2-16.3,15.2-16.3
			s15.2,5.9,15.2,16.3v6.3h-9.7v-7c0-4.6-2-6.4-5.3-6.4c-3.2,0-5.3,1.8-5.3,6.4v35.1c0,4.6,2,6.3,5.3,6.3c3.2,0,5.3-1.7,5.3-6.3
			v-9.3H698.9z"/>
		<path class="st8" d="M722.3,328.4h14.3V349c0,10.4-5.2,16.3-15.2,16.3s-15.2-5.9-15.2-16.3v-33.8c0-10.4,5.2-16.3,15.2-16.3
			s15.2,5.9,15.2,16.3v6.3h-9.7v-7c0-4.6-2-6.4-5.3-6.4c-3.2,0-5.3,1.8-5.3,6.4v35.1c0,4.6,2,6.3,5.3,6.3c3.2,0,5.3-1.7,5.3-6.3v-12
			h-4.6V328.4z"/>
		<path class="st8" d="M751.3,343.1l-12.9-43.4h10.7l7.8,29.6l7.8-29.6h9.7l-12.9,43.4v21.5h-10.2V343.1z"/>
		<path class="st8" d="M800.1,345.8l7-46.1h14.2v65h-9.7v-46.6l-7.1,46.6h-9.7l-7.6-45.9v45.9h-8.9v-65h14.2L800.1,345.8z"/>
		<path class="st8" d="M837.8,317.6v47h-9.2v-65h12.8l10.5,38.9v-38.9h9.1v65h-10.5L837.8,317.6z"/>
		<path class="st8" d="M904.4,364.6h-10.3l-1.8-11.8h-12.5l-1.8,11.8h-9.4l10.4-65H894L904.4,364.6z M881.1,344h9.8l-4.9-32.8
			L881.1,344z"/>
		<path class="st8" d="M922.8,298.9c9.9,0,15,5.9,15,16.3v2h-9.7v-2.7c0-4.6-1.9-6.4-5.1-6.4c-3.2,0-5.1,1.8-5.1,6.4
			C918,328,938,330.5,938,349c0,10.4-5.2,16.3-15.2,16.3c-10,0-15.2-5.9-15.2-16.3v-4h9.7v4.6c0,4.6,2,6.3,5.3,6.3
			c3.2,0,5.3-1.7,5.3-6.3c0-13.4-19.9-15.9-19.9-34.4C907.8,304.9,912.9,298.9,922.8,298.9z"/>
		<path class="st8" d="M942,299.7h31.5v9.3h-10.7v55.7h-10.2V309H942V299.7z"/>
		<path class="st8" d="M981,299.7h10.2v65H981V299.7z"/>
		<path class="st8" d="M1028.2,340.4v8.6c0,10.4-5.2,16.3-15.2,16.3c-10,0-15.2-5.9-15.2-16.3v-33.8c0-10.4,5.2-16.3,15.2-16.3
			c10,0,15.2,5.9,15.2,16.3v6.3h-9.7v-7c0-4.6-2-6.4-5.3-6.4c-3.2,0-5.3,1.8-5.3,6.4v35.1c0,4.6,2,6.3,5.3,6.3
			c3.2,0,5.3-1.7,5.3-6.3v-9.3H1028.2z"/>
		<path class="st8" d="M1050.5,298.9c9.9,0,15,5.9,15,16.3v2h-9.7v-2.7c0-4.6-1.9-6.4-5.1-6.4c-3.2,0-5.1,1.8-5.1,6.4
			c0,13.4,19.9,15.9,19.9,34.4c0,10.4-5.2,16.3-15.2,16.3c-10,0-15.2-5.9-15.2-16.3v-4h9.7v4.6c0,4.6,2,6.3,5.3,6.3
			c3.2,0,5.3-1.7,5.3-6.3c0-13.4-19.9-15.9-19.9-34.4C1035.4,304.9,1040.6,298.9,1050.5,298.9z"/>
		<path class="st8" d="M573.8,364.8h-10.2v-65h10.2v27.8h11.6v-27.8h10.4v65h-10.4v-27.8h-11.6V364.8z"/>
	</g>
	<g>
		<path class="st8" d="M440.6,408.6l-3.7,34.6h-14l-7.2-65h9.9l5.5,51.2l4.9-51.2h9.8l5.1,51.6l5.3-51.6h8.9l-7.2,65h-13.5
			L440.6,408.6z"/>
		<path class="st8" d="M469.3,393.9c0-10.4,5.5-16.3,15.5-16.3c10,0,15.5,5.9,15.5,16.3v33.8c0,10.4-5.5,16.3-15.5,16.3
			c-10,0-15.5-5.9-15.5-16.3V393.9z M479.5,428.3c0,4.6,2,6.4,5.3,6.4c3.2,0,5.3-1.8,5.3-6.4v-35.1c0-4.6-2-6.4-5.3-6.4
			c-3.2,0-5.3,1.8-5.3,6.4V428.3z"/>
		<path class="st8" d="M528.2,443.3c-0.6-1.7-0.9-2.7-0.9-8v-10.2c0-6-2-8.3-6.7-8.3h-3.5v26.4h-10.2v-65h15.4
			c10.6,0,15.1,4.9,15.1,14.9v5.1c0,6.7-2.1,11-6.7,13.2c5.1,2.1,6.8,7.1,6.8,13.8v10c0,3.2,0.1,5.5,1.1,7.9H528.2z M517.1,387.6
			v19.9h4c3.8,0,6.1-1.7,6.1-6.9v-6.4c0-4.6-1.6-6.7-5.2-6.7H517.1z"/>
		<path class="st8" d="M544.2,378.3h10.2V434h16.8v9.3h-27V378.3z"/>
		<path class="st8" d="M575.7,378.3h16.1c10.2,0,15.2,5.7,15.2,16.1v32.8c0,10.4-5,16.1-15.2,16.1h-16.1V378.3z M585.9,387.6V434
			h5.8c3.2,0,5.2-1.7,5.2-6.3v-33.8c0-4.6-1.9-6.3-5.2-6.3H585.9z"/>
		<path class="st8" d="M645,419v8.6c0,10.4-5.2,16.3-15.2,16.3s-15.2-5.9-15.2-16.3v-33.8c0-10.4,5.2-16.3,15.2-16.3
			s15.2,5.9,15.2,16.3v6.3h-9.7v-7c0-4.6-2-6.4-5.3-6.4c-3.2,0-5.3,1.8-5.3,6.4v35.1c0,4.6,2,6.3,5.3,6.3c3.2,0,5.3-1.7,5.3-6.3V419
			H645z"/>
		<path class="st8" d="M661.4,443.3h-10.2v-65h10.2v27.8H673v-27.8h10.4v65H673v-27.8h-11.6V443.3z"/>
		<path class="st8" d="M723.8,443.3h-10.3l-1.8-11.8h-12.5l-1.8,11.8h-9.4l10.4-65h14.9L723.8,443.3z M700.5,422.7h9.8l-4.9-32.8
			L700.5,422.7z"/>
		<path class="st8" d="M750.2,424.4l7-46.1h14.2v65h-9.7v-46.6l-7.1,46.6H745l-7.6-45.9v45.9h-8.9v-65h14.2L750.2,424.4z"/>
		<path class="st8" d="M809,394.4v8.4c0,10.4-5,16.1-15.2,16.1H789v24.4h-10.2v-65h15C804,378.3,809,384,809,394.4z M789,387.6v22
			h4.8c3.2,0,5-1.5,5-6.1v-9.7c0-4.6-1.8-6.1-5-6.1H789z"/>
		<path class="st8" d="M813.7,378.3h10.2v65h-10.2V378.3z"/>
		<path class="st8" d="M830.5,393.9c0-10.4,5.5-16.3,15.5-16.3s15.5,5.9,15.5,16.3v33.8c0,10.4-5.5,16.3-15.5,16.3
			s-15.5-5.9-15.5-16.3V393.9z M840.7,428.3c0,4.6,2,6.4,5.3,6.4c3.2,0,5.3-1.8,5.3-6.4v-35.1c0-4.6-2-6.4-5.3-6.4
			c-3.2,0-5.3,1.8-5.3,6.4V428.3z"/>
		<path class="st8" d="M877.2,396.2v47H868v-65h12.8l10.5,38.9v-38.9h9.1v65h-10.5L877.2,396.2z"/>
		<path class="st8" d="M921.5,377.6c9.9,0,15,5.9,15,16.3v2h-9.7v-2.7c0-4.6-1.9-6.4-5.1-6.4c-3.2,0-5.1,1.8-5.1,6.4
			c0,13.4,19.9,15.9,19.9,34.4c0,10.4-5.2,16.3-15.2,16.3c-10,0-15.2-5.9-15.2-16.3v-4h9.7v4.6c0,4.6,2,6.3,5.3,6.3
			c3.2,0,5.3-1.7,5.3-6.3c0-13.4-19.9-15.9-19.9-34.4C906.4,383.5,911.5,377.6,921.5,377.6z"/>
		<path class="st8" d="M952.6,443.3h-10.2v-65h10.2v27.8h11.6v-27.8h10.4v65h-10.4v-27.8h-11.6V443.3z"/>
		<path class="st8" d="M982,378.3h10.2v65H982V378.3z"/>
		<path class="st8" d="M1029.9,394.4v8.4c0,10.4-5,16.1-15.2,16.1h-4.8v24.4h-10.2v-65h15C1024.9,378.3,1029.9,384,1029.9,394.4z
			 M1009.9,387.6v22h4.8c3.2,0,5-1.5,5-6.1v-9.7c0-4.6-1.8-6.1-5-6.1H1009.9z"/>
		<path class="st8" d="M1049.6,377.8c9.9,0,15,5.9,15,16.3v2h-9.7v-2.7c0-4.6-1.9-6.4-5.1-6.4c-3.2,0-5.1,1.8-5.1,6.4
			c0,13.4,19.9,15.9,19.9,34.4c0,10.4-5.2,16.3-15.2,16.3c-10,0-15.2-5.9-15.2-16.3v-4h9.7v4.6c0,4.6,2,6.3,5.3,6.3
			c3.2,0,5.3-1.7,5.3-6.3c0-13.4-19.9-15.9-19.9-34.4C1034.5,383.8,1039.6,377.8,1049.6,377.8z"/>
	</g>
	<g>
		<g>
			<path class="st8" d="M426.5,485.8l4.3-28.9h5.1l-5.5,35.4h-8.3l-5.5-35.4h5.6L426.5,485.8z"/>
			<path class="st8" d="M455.2,492.3h-5.6l-1-6.4h-6.8l-1,6.4h-5.1l5.7-35.4h8.1L455.2,492.3z M442.5,481.1h5.4l-2.7-17.9
				L442.5,481.1z"/>
			<path class="st8" d="M457.8,456.9h5.6v30.4h9.2v5.1h-14.7V456.9z"/>
			<path class="st8" d="M480.5,471.8h7.6v5.1h-7.6v10.4h9.6v5.1H475v-35.4h15.2v5.1h-9.6V471.8z"/>
			<path class="st8" d="M498.6,466.6v25.7h-5v-35.4h7l5.7,21.2v-21.2h5v35.4h-5.7L498.6,466.6z"/>
			<path class="st8" d="M531.4,479.1v4.7c0,5.7-2.8,8.9-8.3,8.9c-5.5,0-8.3-3.2-8.3-8.9v-18.4c0-5.7,2.8-8.9,8.3-8.9
				c5.5,0,8.3,3.2,8.3,8.9v3.4h-5.3V465c0-2.5-1.1-3.5-2.9-3.5c-1.8,0-2.9,1-2.9,3.5v19.1c0,2.5,1.1,3.4,2.9,3.4
				c1.8,0,2.9-0.9,2.9-3.4v-5.1H531.4z"/>
			<path class="st8" d="M534.7,456.9h5.6v35.4h-5.6V456.9z"/>
			<path class="st8" d="M562.4,492.3h-5.6l-1-6.4H549l-1,6.4h-5.1l5.7-35.4h8.1L562.4,492.3z M549.7,481.1h5.4l-2.7-17.9
				L549.7,481.1z"/>
			<path class="st8" d="M581.9,465.5c0,10.7-12,14.5-12,22.7v0.6h11.6v3.6H566v-3c0-11.4,12-13.7,12-23.6c0-3.6-1.2-5.6-4.2-5.6
				c-2.9,0-4.2,2.1-4.2,5.2v3.1H566v-2.9c0-5.4,2.5-9,7.9-9C579.4,456.5,581.9,460.1,581.9,465.5z"/>
			<path class="st8" d="M584.2,465.4c0-5.4,2.7-8.9,8.1-8.9c5.5,0,8.1,3.5,8.1,8.9v18.3c0,5.4-2.7,9-8.1,9c-5.4,0-8.1-3.5-8.1-9
				V465.4z M588.1,484c0,3.2,1.4,5.1,4.2,5.1c2.9,0,4.2-1.9,4.2-5.1v-18.7c0-3.2-1.3-5.2-4.2-5.2c-2.8,0-4.2,1.9-4.2,5.2V484z"/>
			<path class="st8" d="M619.2,465.5c0,10.7-12,14.5-12,22.7v0.6h11.6v3.6h-15.5v-3c0-11.4,12-13.7,12-23.6c0-3.6-1.2-5.6-4.2-5.6
				c-2.9,0-4.2,2.1-4.2,5.2v3.1h-3.7v-2.9c0-5.4,2.5-9,7.9-9C616.7,456.5,619.2,460.1,619.2,465.5z"/>
			<path class="st8" d="M637.5,465.4v0.9c0,3.6-1.5,6.2-4.3,7.3c3,1.1,4.3,3.8,4.3,7.3v2.7c0,5.4-2.5,9-8,9c-5.4,0-7.9-3.5-7.9-9
				v-2.4h3.7v2.7c0,3.2,1.3,5.1,4.2,5.1c2.9,0,4.2-1.9,4.2-5.5v-2.7c0-3.5-1.5-5.2-4.5-5.3H627v-3.5h2.3c2.6-0.1,4.3-1.8,4.3-4.9
				v-1.6c0-3.6-1.3-5.5-4.2-5.5c-2.8,0-4.2,2-4.2,5.2v1.8h-3.7v-1.6c0-5.4,2.5-8.9,7.9-8.9C635,456.5,637.5,460,637.5,465.4z"/>
		</g>
	</g>
	<g>
		<defs>
			<path id="SVGID_00000009567564063867878630000001749056580173055108_" d="M60.8,237.6c-1.5-24.2,0.7-51.5,16.1-71.4
				c13.7-17.8,38.6-28.3,60.2-19.2c19,8.1,32.7,28.8,40.1,62.5c8.8,39.8,16.5,73.2,22.9,109.6c16.5-47.6,39.9-108.3,63.4-153
				c15.9-30.2,38.2-62.3,74.6-64.1c78.3-3.7,52,116.2,41.1,154.5c-11.8,41.4-30.6,79.8-54.3,115.7c-30.5,46-85.4,107.7-106.4,120.1
				c-14,8.2-24.8,7.3-46.5-14.9C105.3,409.4,66.4,326.1,60.8,237.6z"/>
		</defs>
		<use xlink:href="#SVGID_00000009567564063867878630000001749056580173055108_"  style="overflow:visible;fill:#FFFFFF;"/>
		<clipPath id="SVGID_00000025419662762175955330000000267040313892550838_">
			<use xlink:href="#SVGID_00000009567564063867878630000001749056580173055108_"  style="overflow:visible;"/>
		</clipPath>
		
			<rect x="-21.6" y="65.1" style="clip-path:url(#SVGID_00000025419662762175955330000000267040313892550838_);fill:#FFFFFF;" width="551.8" height="582"/>
	</g>
	<g>
		<g>
			<path class="st8" d="M524.1,262.9l20.7-48.9h12.4v48.9h5.4v10.3h-5.4v13.1h-11.2v-13.1h-21.9V262.9z M546.1,262.9v-27.2
				l-11.5,27.2H546.1z"/>
			<path class="st8" d="M566.9,231.4c0-11.6,6.1-18.2,17.3-18.2s17.3,6.6,17.3,18.2V269c0,11.6-6.1,18.2-17.3,18.2
				s-17.3-6.6-17.3-18.2V231.4z M578.2,269.7c0,5.2,2.3,7.1,5.9,7.1c3.6,0,5.9-2,5.9-7.1v-39.1c0-5.2-2.3-7.1-5.9-7.1
				c-3.6,0-5.9,2-5.9,7.1V269.7z"/>
			<path class="st8" d="M605.5,214h35.2v10.3h-11.9v62.1h-11.4v-62.1h-11.9V214z"/>
			<path class="st8" d="M657,286.4h-11.4V214H657v31h12.9v-31h11.6v72.4h-11.6v-31H657V286.4z"/>
		</g>
		<path class="st8" d="M701.1,246.2h14.7v10.3h-14.7v29.9h-11.4V214h30.1v10.3h-18.7V246.2z"/>
		<path class="st8" d="M725.3,214h11.4v72.4h-11.4V214z"/>
		<path class="st8" d="M762,246.1H778v23c0,11.6-5.8,18.2-17,18.2c-11.2,0-17-6.6-17-18.2v-37.7c0-11.6,5.8-18.2,17-18.2
			c11.2,0,17,6.6,17,18.2v7h-10.8v-7.8c0-5.2-2.3-7.1-5.9-7.1c-3.6,0-5.9,2-5.9,7.1v39.1c0,5.2,2.3,7,5.9,7c3.6,0,5.9-1.9,5.9-7
			v-13.3H762V246.1z"/>
	</g>
</g>
<g>
	<g>
		<defs>
			<path id="SVGID_00000075122929059282990400000002974082597391815588_" d="M60.8-389.4c-1.5-24.2,0.7-51.5,16.1-71.4
				c13.7-17.8,38.6-28.3,60.2-19.2c19,8.1,32.7,28.8,40.1,62.5c8.8,39.8,16.5,73.2,22.9,109.6c16.5-47.6,39.9-108.3,63.4-153
				c15.9-30.2,38.2-62.3,74.6-64.1c78.3-3.7,52,116.2,41.1,154.5c-11.8,41.4-30.6,79.8-54.3,115.7c-30.5,46-85.4,107.7-106.4,120.1
				c-14,8.2-24.8,7.3-46.5-14.9C105.3-217.5,66.4-300.8,60.8-389.4z"/>
		</defs>
		<clipPath id="SVGID_00000097480792279996880460000007569601615484558513_">
			<use xlink:href="#SVGID_00000075122929059282990400000002974082597391815588_"  style="overflow:visible;"/>
		</clipPath>
		
			<linearGradient id="SVGID_00000083048464038887520980000004707447563183077265_" gradientUnits="userSpaceOnUse" x1="-1811.7357" y1="-346.9679" x2="-1448.4325" y2="-198.2473" gradientTransform="matrix(-1 0 0 1 -1371.442 0)">
			<stop  offset="9.327760e-02" style="stop-color:#DA353E"/>
			<stop  offset="0.8699" style="stop-color:#BD2A2B"/>
		</linearGradient>
		
			<rect x="-21.6" y="-561.8" style="clip-path:url(#SVGID_00000097480792279996880460000007569601615484558513_);fill:url(#SVGID_00000083048464038887520980000004707447563183077265_);" width="551.8" height="582"/>
	</g>
</g>
<g>
	<g>
		<path class="st8" d="M509.6,224c-2.5-5.8-6-11.1-10.5-15.6c-4.5-4.5-9.8-8.1-15.6-10.5c-6.1-2.6-12.5-3.9-19.1-3.9
			c-6.6,0-13.1,1.3-19.1,3.9c-5.8,2.5-11.1,6-15.6,10.5c-4.5,4.5-8.1,9.8-10.5,15.6c-2.6,6.1-3.9,12.5-3.9,19.1
			c0,6.6,1.3,13.1,3.9,19.1c2.5,5.8,6,11.1,10.5,15.6c4.5,4.5,9.8,8.1,15.6,10.5c6.1,2.6,12.5,3.9,19.1,3.9c6.6,0,13.1-1.3,19.1-3.9
			c5.8-2.5,11.1-6,15.6-10.5c4.5-4.5,8.1-9.8,10.5-15.6c2.6-6.1,3.9-12.5,3.9-19.1C513.5,236.4,512.2,230,509.6,224z M512.3,242.6
			l-8.7,0c0-4-0.5-7.8-1.4-11.5c4.4-0.8,7.2-1.5,8.1-1.7C511.6,233.6,512.2,238,512.3,242.6z M492.5,231.3c-0.8-3.1-1.8-6.1-3.1-9
			c-0.1-0.3-0.3-0.7-0.5-1c1.5-0.4,2.8-0.9,4-1.3c1-0.4,1.9-0.7,2.8-1.1c2,3.3,3.7,7,4.8,11.2C498.2,230.4,495.5,230.9,492.5,231.3z
			 M500.9,231.4c0.8,3.4,1.3,7.2,1.4,11.2l-8.3,0c0-3.4-0.4-6.7-1.1-10C495.9,232.2,498.6,231.8,500.9,231.4z M492.4,218.6
			c-1.2,0.4-2.6,0.9-4.1,1.4c-1.5-2.9-3.2-5.6-5.2-8.3c1.2-0.5,2.3-1,3.2-1.4c0.6-0.3,1.1-0.6,1.7-0.9c2.4,2.3,4.8,5.1,6.9,8.3
			C494.2,218,493.3,218.3,492.4,218.6z M485.8,209c-1,0.5-2.1,1-3.4,1.5c-0.9-1.2-1.9-2.4-3-3.6c-1.1-1.2-2.1-2.3-3.2-3.4
			c0.9-0.3,1.8-0.6,2.5-0.9c0.1-0.1,0.3-0.1,0.4-0.2c1.4,0.9,2.8,1.8,4.2,2.9c1.2,0.9,2.5,1.9,3.7,3.1
			C486.6,208.6,486.2,208.8,485.8,209z M481,211c-1.3,0.4-2.6,0.9-4.1,1.2c-0.7-1.4-1.5-2.9-2.3-4.3c-0.7-1.2-1.4-2.4-2.1-3.4
			c0.7-0.2,1.5-0.4,2.1-0.5c1.2,1.2,2.4,2.4,3.7,3.8C479.2,208.8,480.1,209.9,481,211z M475,202.5c-2.3-2.2-4.5-3.9-6.2-5.2
			c2.4,0.9,5.5,2.3,8.8,4.3C476.8,201.9,476,202.2,475,202.5z M473.5,202.9c-0.6,0.1-1.2,0.3-1.8,0.4c-1.2-1.9-2.4-3.5-3.4-4.8
			C469.8,199.7,471.6,201.2,473.5,202.9z M473.4,208.7c0.7,1.2,1.4,2.5,2.1,3.9c-1.4,0.3-3,0.6-4.6,0.8c-0.4-1.5-0.7-3-1.1-4.3
			c-0.4-1.4-0.8-2.7-1.1-3.9c0.8-0.1,1.6-0.2,2.4-0.4C471.9,206,472.6,207.3,473.4,208.7z M476.1,213.8c1.2,2.5,2.3,5.2,3.3,8.3
			c-2.1,0.4-4.3,0.7-6.6,0.9c-0.5-3-1.1-5.8-1.7-8.3C473,214.5,474.6,214.2,476.1,213.8z M477.5,213.5c1.6-0.4,3.1-0.9,4.4-1.4
			c1.8,2.4,3.6,5.2,5.1,8.2c-1.9,0.5-3.9,1-6.2,1.5C479.9,219,478.8,216.3,477.5,213.5z M487.6,221.6c1.4,3,2.7,6.3,3.6,9.8
			c-2.4,0.3-5,0.6-7.8,0.8c-0.5-3-1.2-6-2.1-8.9c0-0.1,0-0.1-0.1-0.2C483.5,222.7,485.7,222.2,487.6,221.6z M491.5,232.8
			c0.7,3.1,1.1,6.4,1.1,9.8l-8.3,0c0-3-0.3-6-0.7-9C486.4,233.3,489,233.1,491.5,232.8z M492.6,244c0,3.6-0.5,7-1.2,10.2
			c-2.4-0.3-5-0.7-7.8-0.9c0.5-3.1,0.7-6.2,0.7-9.2L492.6,244z M491.1,255.5c-0.9,3.5-2.1,6.6-3.5,9.6c-1.9-0.5-4.1-1.1-6.4-1.5
			c0-0.1,0.1-0.2,0.1-0.3c0.9-2.9,1.6-5.8,2.1-8.7C486.1,254.8,488.7,255.2,491.1,255.5z M487,266.3c-1.6,3.1-3.4,5.8-5.2,8.2
			c-1.4-0.5-2.9-1-4.4-1.4c1.3-2.7,2.4-5.5,3.4-8.3C483,265.3,485.1,265.8,487,266.3z M476.1,272.8c-1.6-0.4-3.1-0.6-4.8-0.9
			c0.6-2.5,1.2-5.3,1.7-8.3c2.3,0.2,4.4,0.5,6.4,0.9C478.4,267.6,477.2,270.4,476.1,272.8z M470,271.8c-1.6-0.2-3.3-0.3-4.9-0.3
			v-8.3c2.3,0,4.5,0.1,6.6,0.3C471.1,266.5,470.5,269.3,470,271.8z M469.6,273.2c-0.4,1.4-0.7,2.8-1.1,4c-0.4,1.5-0.8,2.9-1.2,4.1
			c-0.8-0.1-1.5-0.1-2.3-0.1v-8.3C466.6,272.9,468.2,273,469.6,273.2z M469.9,277.6c0.4-1.3,0.7-2.7,1.1-4.3
			c1.6,0.2,3.1,0.5,4.5,0.8c-0.7,1.4-1.4,2.6-2,3.8c-0.8,1.5-1.7,2.8-2.5,4c-0.7-0.2-1.5-0.3-2.2-0.4
			C469.1,280.3,469.5,279,469.9,277.6z M474.6,278.6c0.8-1.4,1.5-2.8,2.2-4.2c1.5,0.4,2.8,0.8,4.1,1.2c-0.9,1.1-1.7,2.1-2.6,3.1
			c-1.3,1.5-2.7,2.9-4,4.1c-0.6-0.2-1.3-0.4-2-0.6C473.1,281.1,473.8,279.9,474.6,278.6z M474.7,284.4c0.8,0.3,1.6,0.6,2.3,1
			c-3.1,1.7-5.9,3-8.1,3.9C470.5,288.1,472.5,286.4,474.7,284.4z M475.8,283.4c1.2-1.1,2.4-2.4,3.6-3.7c1-1.2,2-2.3,2.9-3.5
			c1.8,0.7,3.3,1.4,4.7,2.2c-1.2,1-2.4,2-3.6,3c-1.6,1.2-3.3,2.3-4.9,3.3C477.6,284.2,476.7,283.8,475.8,283.4z M484.6,275.7
			c-0.5-0.2-1-0.4-1.5-0.6c2-2.7,3.7-5.5,5.2-8.4c1.5,0.4,2.9,0.9,4.1,1.3c0.9,0.3,1.8,0.7,2.6,1c-1.9,3-4.3,5.8-7,8.3
			C487,276.8,485.8,276.2,484.6,275.7z M492.9,266.8c-1.2-0.4-2.5-0.9-4-1.3c0.2-0.3,0.3-0.7,0.5-1c1.3-2.8,2.3-5.8,3-8.7
			c3,0.5,5.7,0.9,8,1.4c-1.1,3.8-2.7,7.4-4.7,10.8C494.9,267.5,493.9,267.1,492.9,266.8z M497.5,255.1c-1.4-0.3-3-0.5-4.8-0.8
			c0.8-3.4,1.2-6.9,1.2-10.4l8.3,0c0,4.1-0.5,8.1-1.5,11.8C499.8,255.5,498.7,255.3,497.5,255.1z M509.9,228.2
			c-0.9,0.2-3.7,0.9-8,1.6c-1-3.8-2.5-7.3-4.4-10.6c-0.2-0.3-0.3-0.6-0.5-0.9c3.7-1.6,5.8-2.9,6.2-3.2
			C506.1,219,508.4,223.4,509.9,228.2z M493.8,205.3c3.2,2.5,6.1,5.4,8.6,8.7c-0.6,0.4-2.7,1.6-6.2,3.1c-2-3-4.3-5.9-7-8.5
			C492.1,206.9,493.6,205.5,493.8,205.3C493.8,205.3,493.8,205.3,493.8,205.3z M484.1,199.7L484.1,199.7c0.1-0.1,0.2-0.1,0.3-0.2
			c3,1.4,5.7,3,8.3,4.9c-0.4,0.4-1.9,1.7-4.4,3.2c-1.3-1.2-2.7-2.4-4.2-3.5c-1.2-0.9-2.3-1.7-3.5-2.4
			C482.8,200.7,484,199.8,484.1,199.7z M482.9,198.9c-0.6,0.4-1.9,1.2-3.7,2c-4.8-2.9-9.2-4.7-11.9-5.6
			C472.8,195.6,478,196.8,482.9,198.9z M470.3,203.6c-0.7,0.1-1.3,0.2-2,0.3c-0.7-2.2-1.3-4.1-1.9-5.5
			C467.5,199.7,468.8,201.5,470.3,203.6z M465,198.6c0.5,1.4,1.2,3.2,1.8,5.4c-0.6,0-1.2,0.1-1.8,0.1V198.6z M465,205.5
			c0.8,0,1.5-0.1,2.3-0.1c0.4,1.3,0.8,2.7,1.2,4.1c0.3,1.2,0.7,2.6,1,4c-1.4,0.1-2.9,0.2-4.5,0.2V205.5z M465,215.1
			c1.7,0,3.3-0.1,4.8-0.3c0.6,2.5,1.2,5.3,1.7,8.3c-2.1,0.2-4.2,0.3-6.5,0.3V215.1z M455.3,209.7c0.9-1.7,1.9-3.3,2.8-4.7
			c0.7,0.1,1.4,0.2,2.2,0.3c-0.4,1.4-0.9,3-1.3,4.7c-0.3,1.1-0.6,2.2-0.9,3.4c-1.5-0.2-2.9-0.4-4.3-0.7
			C454.2,211.6,454.8,210.6,455.3,209.7z M452.3,212.3c-1.7-0.4-3.2-0.9-4.5-1.4c0.9-1.1,1.7-2.1,2.5-3c1.3-1.4,2.5-2.7,3.7-3.9
			c0.8,0.2,1.6,0.4,2.5,0.6c-0.8,1.3-1.7,2.8-2.5,4.3C453.5,210.1,452.9,211.2,452.3,212.3z M457.4,203.4c-0.8-0.1-1.5-0.3-2.2-0.5
			c2.2-2,4.2-3.6,5.8-4.8C460,199.5,458.8,201.3,457.4,203.4z M453.7,202.5c-1-0.3-1.9-0.6-2.6-1c3.4-2,6.5-3.3,8.8-4.3
			C458.2,198.6,456,200.3,453.7,202.5z M452.6,203.6c-1.1,1.1-2.2,2.2-3.3,3.4c-1,1.1-2,2.3-2.9,3.5c-1.3-0.5-2.4-1-3.4-1.6
			c-0.4-0.2-0.9-0.5-1.2-0.7c1.1-1,2.3-2,3.6-2.9c1.4-1.1,2.9-2,4.3-2.9C450.5,202.8,451.5,203.2,452.6,203.6z M442.4,210.1
			c0.9,0.5,2,1,3.2,1.5c-2,2.7-3.8,5.5-5.2,8.4c-1.5-0.5-2.9-0.9-4.1-1.4c-0.9-0.3-1.8-0.7-2.6-1c2-3,4.4-5.8,7.1-8.4
			C441.3,209.5,441.8,209.8,442.4,210.1z M435.7,219.9c1.2,0.4,2.5,0.9,4,1.3c-0.2,0.4-0.3,0.7-0.5,1.1c-1.3,3-2.4,6-3.2,9.1
			c-3.1-0.4-5.8-0.8-8.1-1.2c1.1-4,2.7-7.8,4.9-11.4C433.8,219.1,434.7,219.5,435.7,219.9z M430.4,231.9c1.6,0.3,3.4,0.5,5.4,0.8
			c-0.7,3.3-1.1,6.6-1.1,9.9l-8.3,0c0-3.9,0.5-7.6,1.3-11.1C428.5,231.6,429.4,231.8,430.4,231.9z M434.7,244
			c0,3.5,0.4,6.9,1.2,10.3c-1.9,0.3-3.7,0.6-5.2,0.9c-1,0.2-1.9,0.4-2.8,0.5c-0.9-3.5-1.4-7.4-1.5-11.7L434.7,244z M430.9,256.5
			c1.5-0.3,3.3-0.6,5.2-0.9c0.8,3.1,1.8,6.1,3.1,9c0.1,0.2,0.2,0.5,0.3,0.7c-1.6,0.5-3.1,1-4.4,1.5c-0.8,0.3-1.6,0.6-2.3,0.9
			c-1.9-3.1-3.5-6.7-4.7-10.7C429.1,256.8,430,256.6,430.9,256.5z M435.7,268.1c1.3-0.5,2.8-1,4.5-1.5c1.5,2.9,3.2,5.7,5.2,8.5
			c-1.2,0.5-2.2,0.9-3.1,1.4c-0.6,0.3-1.1,0.6-1.6,0.9c-2.5-2.3-4.9-5.1-7-8.4C434.3,268.6,435,268.4,435.7,268.1z M442.9,277.7
			c1-0.5,2.1-1,3.4-1.5c1,1.3,2,2.5,3.1,3.7c1.1,1.2,2.1,2.3,3.2,3.3c-1,0.4-1.9,0.7-2.6,1.1c0,0-0.1,0-0.1,0
			c-1.4-0.9-2.9-1.9-4.4-3c-1.2-0.9-2.5-1.9-3.7-3C442.1,278.1,442.5,277.9,442.9,277.7z M453.6,284.2c2.2,2.1,4.3,3.8,6,5
			c-2.3-0.9-5.3-2.2-8.4-4.1C451.9,284.8,452.7,284.5,453.6,284.2z M450.3,278.9c-0.9-1-1.8-2.1-2.7-3.2c1.4-0.5,2.9-1,4.6-1.4
			c0.6,1.2,1.2,2.4,1.9,3.5c0.8,1.5,1.7,2.9,2.5,4.2c-0.9,0.2-1.8,0.4-2.6,0.7C452.8,281.5,451.6,280.3,450.3,278.9z M455.3,277.2
			c-0.5-1-1.1-2-1.7-3.2c1.4-0.3,2.8-0.5,4.4-0.7c0.3,1.2,0.6,2.4,0.9,3.5c0.4,1.7,0.9,3.2,1.3,4.7c-0.8,0.1-1.5,0.2-2.2,0.3
			C457.1,280.3,456.2,278.8,455.3,277.2z M453,272.7c-1.2-2.5-2.4-5.3-3.5-8.3c2-0.3,4.1-0.6,6.4-0.8c0.5,3,1.1,5.8,1.7,8.3
			C456,272.2,454.5,272.4,453,272.7z M451.6,273.1c-1.8,0.4-3.4,1-4.9,1.5c-1.8-2.4-3.6-5.2-5.2-8.3c2-0.5,4.2-1.1,6.6-1.5
			C449.1,267.5,450.3,270.3,451.6,273.1z M441,265c-1.4-2.9-2.6-6.1-3.4-9.5c2.4-0.3,5-0.6,7.9-0.9c0.5,2.6,1.1,5.2,2,7.9
			c0.1,0.3,0.2,0.7,0.3,1C445.2,263.9,443,264.4,441,265z M437.2,254.1c-0.7-3.2-1.1-6.5-1.2-10.1l8.3,0c0,3,0.3,6.1,0.8,9.2
			C442.3,253.4,439.6,253.8,437.2,254.1z M436.1,242.6c0-3.4,0.5-6.7,1.1-9.7c2.4,0.3,5.1,0.6,8,0.8c-0.5,3-0.8,6-0.8,8.9
			L436.1,242.6z M437.5,231.5c0.9-3.6,2.2-6.9,3.6-9.9c2,0.6,4.2,1.1,6.7,1.6c-0.1,0.4-0.3,0.8-0.4,1.2c-0.8,2.7-1.5,5.3-2,7.9
			C442.6,232.1,439.9,231.8,437.5,231.5z M441.7,220.4c1.6-3.1,3.4-5.9,5.2-8.3c1.4,0.5,3,1.1,4.8,1.5c-1.3,2.8-2.5,5.6-3.5,8.3
			C445.9,221.5,443.7,220.9,441.7,220.4z M453.1,213.9c1.4,0.3,3,0.6,4.6,0.8c-0.6,2.6-1.2,5.3-1.7,8.3c-2.2-0.2-4.3-0.5-6.3-0.9
			C450.7,219.2,451.9,216.4,453.1,213.9z M459,214.9c1.5,0.1,3,0.2,4.6,0.3v8.3c-2.2,0-4.3-0.1-6.4-0.3
			C457.8,220.2,458.4,217.4,459,214.9z M459.4,213.5c0.3-1.1,0.6-2.2,0.8-3.2c0.5-1.8,0.9-3.4,1.4-4.9c0.7,0,1.4,0.1,2.1,0.1v8.3
			C462.2,213.7,460.7,213.7,459.4,213.5z M462,204c0.6-2,1.2-3.8,1.7-5.2v5.2C463.1,204.1,462.5,204.1,462,204z M460.6,203.9
			c-0.6-0.1-1.2-0.1-1.8-0.2c1.3-2,2.5-3.6,3.4-4.9C461.8,200.2,461.2,201.9,460.6,203.9z M461.4,195.3c-2.7,0.9-7.1,2.7-11.8,5.6
			c-1.6-0.8-2.8-1.6-3.4-2.1C450.9,196.8,456,195.6,461.4,195.3z M444.8,199.4c0.4,0.4,1.6,1.3,3.5,2.3c-1.2,0.8-2.4,1.6-3.6,2.5
			c-1.4,1.1-2.7,2.2-4,3.3c-2.3-1.4-3.7-2.7-4.3-3.2C438.9,202.4,441.8,200.7,444.8,199.4z M435.2,205.1c0.4,0.4,1.9,1.8,4.4,3.4
			c-2.8,2.7-5.2,5.5-7.2,8.6c-3.3-1.4-5.4-2.6-6.1-3.1C428.9,210.7,431.9,207.7,435.2,205.1z M425.5,215.1c0.7,0.4,2.8,1.7,6.2,3.2
			c-0.2,0.3-0.4,0.6-0.5,0.9c-1.9,3.4-3.4,6.9-4.4,10.7c-4.3-0.8-7-1.5-7.9-1.7C420.4,223.4,422.7,219,425.5,215.1z M418.4,229.5
			c0.8,0.2,3.5,0.9,8,1.8c-0.9,3.6-1.3,7.4-1.4,11.4l-8.6,0C416.5,238.1,417.2,233.6,418.4,229.5z M418.8,257.8
			c-1.4-4.4-2.2-9-2.3-13.9l8.6,0c0.1,4.2,0.6,8.2,1.5,12C422.6,256.8,419.9,257.5,418.8,257.8z M419.2,259.1
			c1.1-0.3,3.7-1.1,7.7-1.9c1,3.6,2.4,7,4.3,10.2c0.2,0.3,0.3,0.6,0.5,0.8c-3.1,1.4-5,2.6-5.9,3.1
			C423,267.7,420.8,263.6,419.2,259.1z M426.6,272.5c0.9-0.6,2.8-1.7,5.8-3.1c2,3.1,4.3,5.9,7.1,8.6c-2.2,1.3-3.6,2.5-4.2,3.1
			C432,278.6,429.1,275.7,426.6,272.5z M436.3,281.9c0.7-0.6,2.1-1.7,4.1-2.9c1.3,1.2,2.7,2.3,4.1,3.4c1.3,0.9,2.5,1.8,3.8,2.6
			c-1.5,0.9-2.5,1.7-3,2.1C442.2,285.7,439.2,284,436.3,281.9z M446.9,287.7c0.6-0.5,1.5-1.1,2.9-1.8c3.9,2.4,7.6,3.9,10.2,4.9
			C455.4,290.4,451,289.3,446.9,287.7z M455.1,283.7c0.7-0.2,1.4-0.4,2.2-0.5c1.4,2.1,2.7,3.9,3.7,5.3
			C459.4,287.4,457.4,285.8,455.1,283.7z M458.8,283c0.6-0.1,1.2-0.2,1.8-0.2c0.6,2,1.2,3.8,1.7,5.2
			C461.3,286.6,460.1,284.9,458.8,283z M463.7,287.7c-0.5-1.4-1.1-3.1-1.7-5.1c0.5,0,1.1-0.1,1.7-0.1V287.7z M463.7,281.2
			c-0.7,0-1.4,0-2.1,0.1c-0.5-1.5-0.9-3.1-1.4-4.9c-0.3-1-0.6-2.1-0.8-3.3c1.4-0.1,2.8-0.2,4.3-0.2V281.2z M463.7,271.6
			c-1.6,0-3.2,0.1-4.7,0.2c-0.6-2.5-1.2-5.3-1.7-8.3c2-0.2,4.1-0.2,6.4-0.3V271.6z M463.7,257.1v4.8c-2.3,0-4.5,0.1-6.6,0.3
			c-0.3-2.1-0.6-4.2-0.9-6.4c-0.5-0.2-1-0.3-1.4-0.5c0.3,2.4,0.6,4.8,1,7c-2.3,0.2-4.6,0.5-6.6,0.9c-0.9-2.8-1.7-5.7-2.3-8.8
			c1.7-0.1,3.5-0.3,5.4-0.4c-0.7-0.4-1.3-0.8-1.8-1.3c-1.3,0.1-2.6,0.2-3.8,0.3c-0.3-1.9-0.6-3.9-0.7-6c-0.5-1.3-0.8-2.6-0.8-4
			c0-1.4,0.3-2.8,0.8-4.1c0.1-1.8,0.4-3.5,0.6-5.2c1,0.1,2,0.1,3.1,0.2c0.5-0.4,1.1-0.9,1.7-1.3c-1.6-0.1-3.1-0.2-4.5-0.3
			c0.6-3.1,1.4-6.2,2.4-9c2.1,0.4,4.2,0.7,6.6,0.9c-0.4,2.1-0.7,4.3-0.9,6.5c0.5-0.2,0.9-0.4,1.4-0.5c0.2-2,0.5-4,0.8-5.9
			c2.1,0.2,4.3,0.3,6.6,0.3v4.3c0.2,0,0.5,0,0.7,0c0.2,0,0.4,0,0.7,0v-4.3c2.3,0,4.6-0.1,6.7-0.3c0.3,1.9,0.6,3.9,0.8,5.9
			c0.5,0.2,1,0.3,1.4,0.5c-0.2-2.2-0.5-4.4-0.9-6.5c2.4-0.2,4.7-0.6,6.8-1c0.9,2.8,1.6,5.8,2.2,9c-1.5,0.1-3.1,0.2-4.7,0.3
			c0.6,0.4,1.2,0.8,1.7,1.3c1.1-0.1,2.2-0.2,3.2-0.2c0.3,1.7,0.4,3.4,0.6,5.2c0.6,1.3,0.9,2.7,0.9,4.2c0,1.4-0.3,2.8-0.8,4.1
			c-0.1,2-0.3,4-0.6,5.9c-1.2-0.1-2.5-0.2-3.9-0.3c-0.6,0.4-1.2,0.9-1.8,1.2c1.9,0.1,3.7,0.3,5.5,0.4c-0.5,3.1-1.3,6.1-2.2,8.8
			c-2.1-0.4-4.3-0.7-6.6-0.9c0.4-2.3,0.7-4.7,0.9-7.1c-0.5,0.2-0.9,0.4-1.4,0.5c-0.2,2.2-0.5,4.4-0.8,6.4c-2.2-0.2-4.4-0.3-6.8-0.3
			v-4.8c-0.2,0-0.4,0-0.7,0C464.1,257.1,463.9,257.1,463.7,257.1z M465,282.6c0.6,0,1.3,0,1.9,0.1c-0.7,2.2-1.4,4-1.9,5.4V282.6z
			 M468.3,282.8c0.6,0.1,1.2,0.2,1.8,0.3c-1.4,2-2.6,3.7-3.7,4.9C467,286.7,467.6,284.9,468.3,282.8z M471.6,283.5
			c0.6,0.1,1.1,0.3,1.6,0.5c-1.8,1.7-3.5,3-4.9,4.1C469.3,286.8,470.4,285.2,471.6,283.5z M468.7,290.8c2.5-1,6-2.5,9.7-4.6
			c1.2,0.7,2.1,1.3,2.8,1.8C477.3,289.4,473.1,290.4,468.7,290.8z M482.7,287.4c-0.6-0.5-1.6-1.2-2.9-2c1.4-0.9,2.9-1.9,4.3-2.9
			c1.4-1.1,2.8-2.2,4.1-3.4c1.9,1.1,3.3,2.2,4.2,2.9C489.4,284.1,486.1,285.9,482.7,287.4z M493.5,281.1c-0.8-0.7-2.3-1.8-4.3-3
			c2.7-2.6,5.1-5.5,7-8.5c3.1,1.3,5.1,2.5,5.9,3C499.6,275.7,496.8,278.6,493.5,281.1z M503,271.4c-0.8-0.5-2.8-1.7-6-3.1
			c0.2-0.3,0.4-0.6,0.6-0.9c1.8-3.2,3.2-6.5,4.2-10.1c4.1,0.9,6.8,1.6,7.7,1.9C507.9,263.6,505.7,267.7,503,271.4z M509.9,257.9
			c-0.9-0.3-3.6-1-7.8-1.9c1-3.8,1.5-7.8,1.5-12.1l8.7,0C512.2,248.8,511.4,253.5,509.9,257.9z"/>
		<path class="st8" d="M464.4,229c-5.7,0-10.9,1.8-14.4,4.7h25.1c0,0,1.6,0,2.9,1.3c0.6,0.6,0.8,2.9,0.8,2.9l-2.1-0.1
			c0,0,0.2-1.2-0.9-2c-1-0.7-2-0.8-3.6,0.3c-1.4,1-2.4,4.3-2.8,5.2c-0.2,0.4-1.2,4.9-1.2,5.7c0,1.6,0.6,3.1,2.1,3.2
			c1.5,0.1,2.8-1.6,3.3-2.6c0.5-1.1,1.2-4.1,1.2-4.1h-2.7l0.3-2.2l5,0.2l-2.6,12.8l-2.6,0.9c0,0,1.7-5.5,0.9-4.9
			c-0.8,0.6-2.2,1.4-3.6,1.3c-1.6,0-2.6-1.8-2.6-1.8s-1.6-1.4-0.1-7.3c1.4-5.6,3.5-6.9,3.5-6.9h-14.2l-1.3,5.7h5.1l-0.5,2.1h-5.1
			l-1.9,7h-2.3l3.8-15.1h-5.6l1.2-1.3c-2.8,2.4-4.5,5.6-4.5,9c0,7.8,8.7,14.1,19.3,14.1c10.7,0,19.3-6.3,19.3-14.1
			C483.7,235.3,475,229,464.4,229z M454.7,250.5c-0.6,0-1-0.6-1-1.2c0-0.7,0.5-1.2,1-1.2c0.6,0,1,0.6,1,1.2
			C455.7,250,455.2,250.5,454.7,250.5z M458.9,251l3.1-13.9h2.3l-3,13.9H458.9z M463.9,250.7c-0.6,0-1-0.6-1-1.2
			c0-0.7,0.5-1.2,1-1.2c0.6,0,1,0.6,1,1.2C464.9,250.1,464.4,250.7,463.9,250.7z M477.4,250.7c-0.6,0-1-0.6-1-1.2
			c0-0.7,0.5-1.2,1-1.2c0.6,0,1,0.6,1,1.2C478.4,250.1,477.9,250.7,477.4,250.7z"/>
	</g>
</g>
</svg>
