<?xml version="1.0" encoding="utf-8"?>
<!-- Generator: Adobe Illustrator 27.1.1, SVG Export Plug-In . SVG Version: 6.00 Build 0)  -->
<svg version="1.1" id="Capa_8" xmlns="http://www.w3.org/2000/svg" xmlns:xlink="http://www.w3.org/1999/xlink" x="0px" y="0px"
	 viewBox="0 0 866.7 342.4" style="enable-background:new 0 0 866.7 342.4;" xml:space="preserve">
<style type="text/css">
	.st0{display:none;}
	.st1{display:inline;fill:#6C3A8D;}
	.st2{display:inline;fill:#AA3684;}
	.st3{display:inline;fill:#BB2A2A;}
	.st4{display:inline;fill:#D4465C;}
	.st5{fill:#FFFFFF;}
	.st6{clip-path:url(#SVGID_00000045602069321968261900000008213311883351546264_);}
</style>
<g class="st0">
	<path class="st1" d="M313.8,111.8l7.5-51.2h9.1l-9.7,62.8H306l-9.7-62.8h10L313.8,111.8z"/>
	<path class="st1" d="M364.7,123.3h-10l-1.7-11.4H341l-1.7,11.4h-9.1l10-62.8h14.4L364.7,123.3z M342.2,103.4h9.5L347,71.7
		L342.2,103.4z"/>
	<path class="st1" d="M369.8,60.5h9.9v53.8h16.2v9h-26.1V60.5z"/>
	<path class="st1" d="M410.7,87h13.5v9h-13.5v18.4h17v9h-26.9V60.5h26.9v9h-17V87z"/>
	<path class="st1" d="M442.3,77.9v45.5h-8.9V60.5h12.4l10.1,37.6V60.5h8.8v62.8h-10.1L442.3,77.9z"/>
	<path class="st1" d="M500.2,99.9v8.3c0,10-5,15.8-14.7,15.8c-9.7,0-14.7-5.7-14.7-15.8V75.6c0-10,5-15.8,14.7-15.8
		c9.7,0,14.7,5.7,14.7,15.8v6.1h-9.3V75c0-4.5-2-6.2-5.1-6.2s-5.1,1.7-5.1,6.2v33.9c0,4.5,2,6.1,5.1,6.1s5.1-1.6,5.1-6.1v-9H500.2z"
		/>
	<path class="st1" d="M505.8,60.5h9.9v62.8h-9.9V60.5z"/>
	<path class="st1" d="M555.2,123.3h-10l-1.7-11.4h-12.1l-1.7,11.4h-9.1l10-62.8h14.4L555.2,123.3z M532.7,103.4h9.5l-4.8-31.8
		L532.7,103.4z"/>
	<path class="st2" d="M574.7,68.8c-3.1,0-5.1,1.7-5.1,6.2v6.7h-9.3v-6.1c0-10,5-15.8,14.7-15.8s14.7,5.7,14.7,15.8
		c0,19.7-19.6,27.1-19.6,37.4c0,0.4,0,0.9,0.1,1.3h18.7v9h-28.5v-7.7c0-18.5,19.6-21.5,19.6-39.6C579.8,70.3,577.9,68.8,574.7,68.8z
		"/>
	<path class="st2" d="M595.1,75.6c0-10,5.3-15.8,15-15.8s15,5.7,15,15.8v32.7c0,10-5.3,15.8-15,15.8s-15-5.7-15-15.8V75.6z
		 M605,108.9c0,4.5,2,6.2,5.1,6.2s5.1-1.7,5.1-6.2V75c0-4.5-2-6.2-5.1-6.2S605,70.5,605,75V108.9z"/>
	<path class="st2" d="M645.3,68.8c-3.1,0-5.1,1.7-5.1,6.2v6.7h-9.3v-6.1c0-10,5-15.8,14.7-15.8c9.7,0,14.7,5.7,14.7,15.8
		c0,19.7-19.6,27.1-19.6,37.4c0,0.4,0,0.9,0.1,1.3h18.7v9h-28.5v-7.7c0-18.5,19.6-21.5,19.6-39.6C650.4,70.3,648.5,68.8,645.3,68.8z
		"/>
	<path class="st2" d="M683.6,76c0-5.7-2-7.2-5.1-7.2s-5.1,1.7-5.1,6.2v4H664v-3.4c0-10,5-15.8,14.7-15.8s14.7,5.7,14.7,15.8v1.6
		c0,6.7-2.2,10.9-6.9,12.9c4.9,2.2,6.9,6.8,6.9,13.2v4.9c0,10-5,15.8-14.7,15.8s-14.7-5.7-14.7-15.8v-5.2h9.3v5.8
		c0,4.5,2,6.2,5.1,6.2s5.1-1.5,5.1-7.1v-4.9c0-5.8-2-8-6.5-8h-3.3v-9h3.9c3.7,0,5.9-1.6,5.9-6.6V76z"/>
	<path class="st3" d="M305.1,179v8.3c0,10-5,15.8-14.7,15.8c-9.7,0-14.7-5.7-14.7-15.8v-32.7c0-10,5-15.8,14.7-15.8
		c9.7,0,14.7,5.7,14.7,15.8v6.1h-9.3V154c0-4.5-2-6.2-5.1-6.2s-5.1,1.7-5.1,6.2v33.9c0,4.5,2,6.1,5.1,6.1s5.1-1.6,5.1-6.1v-9H305.1z
		"/>
	<path class="st3" d="M342.3,202.4h-10l-1.7-11.4h-12.1l-1.7,11.4h-9.1l10-62.8h14.4L342.3,202.4z M319.8,182.5h9.5l-4.8-31.8
		L319.8,182.5z"/>
	<path class="st3" d="M368.3,184.2l6.7-44.6h13.7v62.8h-9.3v-45l-6.8,45h-9.3l-7.4-44.4v44.4h-8.6v-62.8H361L368.3,184.2z"/>
	<path class="st3" d="M424.6,155.1v8.2c0,10-4.8,15.5-14.7,15.5h-4.7v23.6h-9.9v-62.8h14.5C419.7,139.6,424.6,145.1,424.6,155.1z
		 M405.2,148.6v21.3h4.7c3.1,0,4.8-1.4,4.8-5.9v-9.4c0-4.5-1.7-5.9-4.8-5.9H405.2z"/>
	<path class="st3" d="M439.7,166.1h13.5v9h-13.5v18.4h17v9h-26.9v-62.8h26.9v9h-17V166.1z"/>
	<path class="st3" d="M461.9,154.7c0-10,5.3-15.8,15-15.8s15,5.7,15,15.8v32.7c0,10-5.3,15.8-15,15.8s-15-5.7-15-15.8V154.7z
		 M471.8,187.9c0,4.5,2,6.2,5.1,6.2s5.1-1.7,5.1-6.2V154c0-4.5-2-6.2-5.1-6.2s-5.1,1.7-5.1,6.2V187.9z"/>
	<path class="st3" d="M506.7,156.9v45.5h-8.9v-62.8h12.4l10.1,37.6v-37.6h8.8v62.8H519L506.7,156.9z"/>
	<path class="st3" d="M568.7,202.4h-10L557,191h-12.1l-1.7,11.4h-9.1l10-62.8h14.4L568.7,202.4z M546.2,182.5h9.5l-4.8-31.8
		L546.2,182.5z"/>
	<path class="st3" d="M566,139.6h30.5v9h-10.3v53.8h-9.9v-53.8H566V139.6z"/>
	<path class="st3" d="M599,154.7c0-10,5.3-15.8,15-15.8s15,5.7,15,15.8v32.7c0,10-5.3,15.8-15,15.8s-15-5.7-15-15.8V154.7z
		 M608.9,187.9c0,4.5,2,6.2,5.1,6.2s5.1-1.7,5.1-6.2V154c0-4.5-2-6.2-5.1-6.2s-5.1,1.7-5.1,6.2V187.9z"/>
	<path class="st4" d="M636.8,139.6h15.6c9.9,0,14.7,5.5,14.7,15.5v31.8c0,10-4.8,15.5-14.7,15.5h-15.6V139.6z M646.7,148.6v44.9h5.6
		c3.1,0,5-1.6,5-6.1v-32.7c0-4.5-1.9-6.1-5-6.1H646.7z"/>
	<path class="st4" d="M682.9,166.1h13.5v9h-13.5v18.4h17v9h-26.9v-62.8H700v9h-17V166.1z"/>
	<path class="st4" d="M705.7,139.6h9.9v53.8h16.2v9h-26.1V139.6z"/>
	<path class="st4" d="M757.7,184.2l6.7-44.6h13.7v62.8h-9.3v-45l-6.8,45h-9.3l-7.4-44.4v44.4h-8.6v-62.8h13.7L757.7,184.2z"/>
	<path class="st4" d="M794.3,139.6V188c0,4.5,2,6.1,5.1,6.1s5.1-1.6,5.1-6.1v-48.4h9.3v47.8c0,10-5,15.8-14.7,15.8
		s-14.7-5.7-14.7-15.8v-47.8H794.3z"/>
	<path class="st4" d="M829,156.9v45.5h-8.9v-62.8h12.4l10.1,37.6v-37.6h8.8v62.8h-10.1L829,156.9z"/>
	<path class="st4" d="M857.9,139.6h15.6c9.9,0,14.7,5.5,14.7,15.5v31.8c0,10-4.8,15.5-14.7,15.5h-15.6V139.6z M867.8,148.6v44.9h5.6
		c3.1,0,5-1.6,5-6.1v-32.7c0-4.5-1.9-6.1-5-6.1H867.8z"/>
	<path class="st4" d="M893.7,154.7c0-10,5.3-15.8,15-15.8s15,5.7,15,15.8v32.7c0,10-5.3,15.8-15,15.8s-15-5.7-15-15.8V154.7z
		 M903.5,187.9c0,4.5,2,6.2,5.1,6.2s5.1-1.7,5.1-6.2V154c0-4.5-2-6.2-5.1-6.2s-5.1,1.7-5.1,6.2V187.9z"/>
	<path class="st3" d="M248,218.6h15.6c9.9,0,14.7,5.5,14.7,15.5v31.8c0,10-4.8,15.5-14.7,15.5H248V218.6z M257.9,227.6v44.9h5.6
		c3.1,0,5-1.6,5-6.1v-32.7c0-4.5-1.9-6.1-5-6.1H257.9z"/>
	<path class="st3" d="M294.1,245.1h13.5v9h-13.5v18.4h17v9h-26.9v-62.8h26.9v9h-17V245.1z"/>
	<path class="st2" d="M331.9,246.4h13.8v19.9c0,10-5,15.8-14.7,15.8c-9.7,0-14.7-5.7-14.7-15.8v-32.7c0-10,5-15.8,14.7-15.8
		c9.7,0,14.7,5.7,14.7,15.8v6.1h-9.3v-6.7c0-4.5-2-6.2-5.1-6.2s-5.1,1.7-5.1,6.2V267c0,4.5,2,6.1,5.1,6.1s5.1-1.6,5.1-6.1v-11.6
		h-4.5V246.4z"/>
	<path class="st2" d="M351.8,218.6h9.9v62.8h-9.9V218.6z"/>
	<path class="st2" d="M389,263.2l6.7-44.6h13.7v62.8h-9.3v-45l-6.8,45H384l-7.4-44.4v44.4H368v-62.8h13.7L389,263.2z"/>
	<path class="st2" d="M424.9,235.9v45.5H416v-62.8h12.4l10.1,37.6v-37.6h8.8v62.8h-10.1L424.9,235.9z"/>
	<path class="st2" d="M486.9,281.4h-10l-1.7-11.4h-12.1l-1.7,11.4h-9.1l10-62.8h14.4L486.9,281.4z M464.3,261.5h9.5l-4.8-31.8
		L464.3,261.5z"/>
	<path class="st2" d="M503.3,217.9c9.6,0,14.5,5.7,14.5,15.8v2h-9.3v-2.6c0-4.5-1.8-6.2-4.9-6.2s-4.9,1.7-4.9,6.2
		c0,12.9,19.3,15.3,19.3,33.3c0,10-5,15.8-14.7,15.8s-14.7-5.7-14.7-15.8v-3.9h9.3v4.5c0,4.5,2,6.1,5.1,6.1s5.1-1.6,5.1-6.1
		c0-12.9-19.3-15.3-19.3-33.3C488.8,223.7,493.7,217.9,503.3,217.9z"/>
	<path class="st2" d="M523.4,218.6h9.9v62.8h-9.9V218.6z"/>
	<path class="st2" d="M572.8,281.4h-10l-1.7-11.4h-12.1l-1.7,11.4h-9.1l10-62.8h14.4L572.8,281.4z M550.3,261.5h9.5l-4.8-31.8
		L550.3,261.5z"/>
	<path class="st1" d="M598.5,281.4c-0.5-1.6-0.9-2.6-0.9-7.7v-9.9c0-5.8-2-8-6.5-8h-3.4v25.6h-9.9v-62.8h14.9
		c10.2,0,14.6,4.8,14.6,14.4v4.9c0,6.5-2.1,10.7-6.5,12.7c4.9,2.1,6.5,6.8,6.5,13.4v9.7c0,3,0.1,5.3,1.1,7.6H598.5z M587.7,227.6
		v19.3h3.9c3.7,0,5.9-1.6,5.9-6.6v-6.2c0-4.5-1.5-6.5-5-6.5H587.7z"/>
	<path class="st1" d="M627.5,207.6l-6.9,7.7H614l4.8-7.8L627.5,207.6z M614,218.6h9.9v62.8H614V218.6z"/>
	<path class="st1" d="M626.9,218.6h30.5v9h-10.3v53.8h-9.9v-53.8h-10.3V218.6z"/>
	<path class="st1" d="M681.4,263.2l6.7-44.6h13.7v62.8h-9.3v-45l-6.8,45h-9.3L669,237v44.4h-8.6v-62.8h13.7L681.4,263.2z"/>
	<path class="st1" d="M708.4,218.6h9.9v62.8h-9.9V218.6z"/>
	<path class="st1" d="M753.7,258v8.3c0,10-5,15.8-14.7,15.8c-9.7,0-14.7-5.7-14.7-15.8v-32.7c0-10,5-15.8,14.7-15.8
		c9.7,0,14.7,5.7,14.7,15.8v6.1h-9.3v-6.7c0-4.5-2-6.2-5.1-6.2s-5.1,1.7-5.1,6.2V267c0,4.5,2,6.1,5.1,6.1s5.1-1.6,5.1-6.1v-9H753.7z
		"/>
	<path class="st1" d="M791.9,281.4h-10l-1.7-11.4h-12.1l-1.7,11.4h-9.1l10-62.8h14.4L791.9,281.4z M769.3,261.5h9.5l-4.8-31.8
		L769.3,261.5z"/>
</g>
<g>
	<g>
		<g>
			<path class="st5" d="M282.4,293.4l3.2-21.7h3.8l-4.1,26.6h-6.2l-4.1-26.6h4.2L282.4,293.4z"/>
		</g>
		<g>
			<path class="st5" d="M304,298.3h-4.2l-0.7-4.8h-5.1l-0.7,4.8h-3.8l4.3-26.6h6.1L304,298.3z M294.4,289.9h4l-2-13.4L294.4,289.9z"
				/>
		</g>
		<g>
			<path class="st5" d="M305.9,271.8h4.2v22.8h6.9v3.8h-11V271.8z"/>
		</g>
		<g>
			<path class="st5" d="M322.9,283h5.7v3.8h-5.7v7.8h7.2v3.8h-11.4v-26.6h11.4v3.8h-7.2V283z"/>
		</g>
		<g>
			<path class="st5" d="M336.4,279.1v19.2h-3.8v-26.6h5.2l4.3,15.9v-15.9h3.7v26.6h-4.3L336.4,279.1z"/>
		</g>
		<g>
			<path class="st5" d="M361,288.4v3.5c0,4.3-2.1,6.7-6.2,6.7c-4.1,0-6.2-2.4-6.2-6.7v-13.8c0-4.3,2.1-6.7,6.2-6.7
				c4.1,0,6.2,2.4,6.2,6.7v2.6h-3.9v-2.8c0-1.9-0.8-2.6-2.2-2.6c-1.3,0-2.2,0.7-2.2,2.6v14.3c0,1.9,0.8,2.6,2.2,2.6
				c1.3,0,2.2-0.7,2.2-2.6v-3.8H361z"/>
		</g>
		<g>
			<path class="st5" d="M363.6,271.8h4.2v26.6h-4.2V271.8z"/>
		</g>
		<g>
			<path class="st5" d="M384.3,298.3h-4.2l-0.7-4.8h-5.1l-0.7,4.8h-3.8l4.3-26.6h6.1L384.3,298.3z M374.8,289.9h4l-2-13.4
				L374.8,289.9z"/>
		</g>
		<g>
			<path class="st5" d="M399,278.2c0,8-9,10.9-9,17v0.4h8.7v2.7H387v-2.3c0-8.6,9-10.2,9-17.7c0-2.7-0.9-4.2-3.1-4.2
				c-2.2,0-3.1,1.6-3.1,3.9v2.4H387v-2.2c0-4.1,1.9-6.8,6-6.8C397.1,271.5,399,274.2,399,278.2z"/>
		</g>
		<g>
			<path class="st5" d="M400.7,278.2c0-4.1,2-6.7,6.1-6.7c4.1,0,6.1,2.6,6.1,6.7v13.7c0,4.1-2,6.7-6.1,6.7c-4.1,0-6.1-2.7-6.1-6.7
				V278.2z M403.6,292.1c0,2.4,1,3.8,3.2,3.8c2.2,0,3.2-1.4,3.2-3.8v-14c0-2.4-1-3.9-3.2-3.9c-2.1,0-3.2,1.4-3.2,3.9V292.1z"/>
		</g>
		<g>
			<path class="st5" d="M426.9,278.2c0,8-9,10.9-9,17v0.4h8.7v2.7h-11.7v-2.3c0-8.6,9-10.2,9-17.7c0-2.7-0.9-4.2-3.1-4.2
				c-2.2,0-3.1,1.6-3.1,3.9v2.4h-2.8v-2.2c0-4.1,1.9-6.8,6-6.8C425,271.5,426.9,274.2,426.9,278.2z"/>
		</g>
		<g>
			<path class="st5" d="M440.7,278.2v0.7c0,2.7-1.1,4.7-3.2,5.5c2.2,0.8,3.2,2.8,3.2,5.5v2.1c0,4.1-1.9,6.7-6,6.7
				c-4.1,0-6-2.7-6-6.7v-1.8h2.8v2c0,2.4,1,3.8,3.1,3.8c2.2,0,3.1-1.4,3.1-4.1v-2.1c0-2.6-1.1-3.9-3.3-3.9h-1.6v-2.7h1.7
				c2-0.1,3.2-1.3,3.2-3.6v-1.2c0-2.7-1-4.1-3.1-4.1c-2.1,0-3.1,1.5-3.1,3.9v1.4h-2.8v-1.2c0-4.1,1.9-6.7,6-6.7
				C438.8,271.5,440.7,274.1,440.7,278.2z"/>
		</g>
	</g>
</g>
<g>
	<defs>
		<path id="SVGID_1_" d="M20.2,117.2c-1.1-17.5,0.5-37.4,11.7-51.8c10-12.9,28-20.6,43.7-13.9c13.8,5.8,23.7,20.9,29.1,45.3
			c6.4,28.8,12,53.1,16.6,79.5c12-34.5,29-78.6,46-111.1c11.5-21.9,27.7-45.2,54.1-46.5c56.8-2.7,37.8,84.3,29.8,112.1
			c-8.6,30.1-22.2,57.9-39.4,84c-22.1,33.4-62,78.2-77.2,87.1c-10.1,6-18,5.3-33.8-10.8C52.5,241.9,24.3,181.4,20.2,117.2z"/>
	</defs>
	<use xlink:href="#SVGID_1_"  style="overflow:visible;fill:#FFFFFF;"/>
	<clipPath id="SVGID_00000114752919418105156680000004607597382094737843_">
		<use xlink:href="#SVGID_1_"  style="overflow:visible;"/>
	</clipPath>
	<g style="clip-path:url(#SVGID_00000114752919418105156680000004607597382094737843_);">
		<rect x="-40.1" y="-8.5" class="st5" width="401.4" height="423.3"/>
		<path class="st5" d="M360.9-8v422.3H-39.6V-8H360.9 M361.9-9h-1H-39.6h-1v1v422.3v1h1h400.4h1v-1V-8V-9L361.9-9z"/>
	</g>
</g>
<g>
	<g>
		<path class="st5" d="M402.7,103.3l15.9-37.5h9.5v37.5h4.1v7.9h-4.1v10.1h-8.6v-10.1h-16.8V103.3z M419.5,103.3V82.5l-8.8,20.8
			H419.5z"/>
	</g>
	<g>
		<path class="st5" d="M435.5,79.1c0-8.9,4.7-14,13.2-14c8.6,0,13.2,5.1,13.2,14V108c0,8.9-4.7,14-13.2,14c-8.6,0-13.2-5.1-13.2-14
			V79.1z M444.2,108.6c0,4,1.7,5.5,4.5,5.5s4.5-1.5,4.5-5.5v-30c0-4-1.7-5.5-4.5-5.5s-4.5,1.5-4.5,5.5V108.6z"/>
	</g>
	<g>
		<path class="st5" d="M465,65.8h27v7.9h-9.1v47.6h-8.7V73.8H465V65.8z"/>
	</g>
	<g>
		<path class="st5" d="M504.5,121.3h-8.7V65.8h8.7v23.8h9.9V65.8h8.9v55.5h-8.9V97.5h-9.9V121.3z"/>
	</g>
	<g>
		<path class="st5" d="M539.9,90.5h11.3v7.9h-11.3v22.9h-8.7V65.8h23.1v7.9h-14.3V90.5z"/>
	</g>
	<g>
		<path class="st5" d="M558.5,65.8h8.7v55.5h-8.7V65.8z"/>
	</g>
	<g>
		<path class="st5" d="M586.6,90.4h12.2V108c0,8.9-4.4,14-13,14c-8.6,0-13-5.1-13-14V79.1c0-8.9,4.4-14,13-14c8.6,0,13,5.1,13,14
			v5.4h-8.2v-5.9c0-4-1.7-5.5-4.5-5.5s-4.5,1.5-4.5,5.5v30c0,4,1.7,5.4,4.5,5.4s4.5-1.4,4.5-5.4V98.3h-4V90.4z"/>
	</g>
</g>
<g>
	<path class="st5" d="M389.5,74.1c-1.8-4.3-4.4-8.1-7.7-11.4c-3.3-3.3-7.1-5.9-11.4-7.7c-4.4-1.9-9.1-2.8-14-2.8s-9.5,0.9-14,2.8
		c-4.3,1.8-8.1,4.4-11.4,7.7c-3.3,3.3-5.9,7.1-7.7,11.4c-1.9,4.4-2.8,9.1-2.8,14c0,4.8,0.9,9.5,2.8,14c1.8,4.3,4.4,8.1,7.7,11.4
		c3.3,3.3,7.1,5.9,11.4,7.7c4.4,1.9,9.1,2.8,14,2.8s9.5-0.9,14-2.8c4.3-1.8,8.1-4.4,11.4-7.7c3.3-3.3,5.9-7.1,7.7-11.4
		c1.9-4.4,2.8-9.1,2.8-14C392.3,83.3,391.3,78.6,389.5,74.1z M391.4,87.8l-6.3,0c0-2.9-0.4-5.7-1-8.4c3.2-0.6,5.3-1.1,5.9-1.2
		C390.9,81.2,391.4,84.4,391.4,87.8z M377,79.5c-0.5-2.2-1.3-4.4-2.3-6.6c-0.1-0.2-0.2-0.5-0.3-0.7c1.1-0.3,2-0.6,2.9-1
		c0.7-0.3,1.4-0.5,2-0.8c1.4,2.4,2.7,5.1,3.5,8.2C381.1,78.9,379.2,79.2,377,79.5z M383.1,79.6c0.6,2.5,1,5.2,1,8.2l-6,0
		c0-2.5-0.3-4.9-0.8-7.3C379.4,80.2,381.4,79.9,383.1,79.6z M376.9,70.3c-0.9,0.3-1.9,0.7-3,1c-1.1-2.1-2.3-4.1-3.8-6.1
		c0.9-0.3,1.6-0.7,2.3-1c0.4-0.2,0.8-0.4,1.2-0.6c1.8,1.7,3.5,3.7,5,6.1C378.2,69.8,377.6,70,376.9,70.3z M372,63.2
		c-0.7,0.4-1.6,0.7-2.5,1.1c-0.7-0.9-1.4-1.8-2.2-2.6c-0.8-0.9-1.6-1.7-2.3-2.5c0.7-0.2,1.3-0.5,1.9-0.7c0.1,0,0.2-0.1,0.3-0.1
		c1,0.6,2,1.3,3.1,2.1c0.9,0.7,1.8,1.4,2.7,2.2C372.7,62.9,372.4,63.1,372,63.2z M368.6,64.7c-0.9,0.3-1.9,0.6-3,0.9
		c-0.5-1.1-1.1-2.1-1.7-3.1c-0.5-0.9-1-1.7-1.5-2.5c0.5-0.1,1.1-0.3,1.6-0.4c0.9,0.8,1.8,1.8,2.7,2.8
		C367.3,63.1,367.9,63.9,368.6,64.7z M364.2,58.5c-1.7-1.6-3.3-2.9-4.5-3.8c1.7,0.7,4,1.7,6.4,3.1C365.5,58,364.9,58.3,364.2,58.5z
		 M363.1,58.8c-0.4,0.1-0.8,0.2-1.3,0.3c-0.9-1.4-1.8-2.5-2.5-3.5C360.4,56.5,361.7,57.5,363.1,58.8z M363,63c0.5,0.9,1,1.8,1.5,2.9
		c-1.1,0.2-2.2,0.4-3.4,0.6c-0.3-1.1-0.5-2.2-0.8-3.1c-0.3-1-0.5-1.9-0.8-2.8c0.6-0.1,1.2-0.2,1.8-0.3C361.9,61.1,362.5,62,363,63z
		 M365,66.8c0.9,1.8,1.7,3.8,2.4,6c-1.5,0.3-3.1,0.5-4.8,0.7c-0.4-2.2-0.8-4.2-1.2-6.1C362.7,67.2,363.9,67,365,66.8z M366,66.5
		c1.2-0.3,2.2-0.6,3.2-1c1.3,1.8,2.6,3.8,3.7,6c-1.4,0.4-2.9,0.7-4.5,1.1C367.8,70.6,366.9,68.5,366,66.5z M373.4,72.4
		c1,2.2,2,4.6,2.6,7.2c-1.8,0.2-3.6,0.4-5.7,0.6c-0.4-2.2-0.9-4.4-1.5-6.5c0,0,0-0.1,0-0.1C370.4,73.2,372,72.8,373.4,72.4z
		 M376.2,80.6c0.5,2.3,0.8,4.7,0.8,7.2l-6,0c0-2.2-0.2-4.4-0.5-6.6C372.5,81,374.4,80.8,376.2,80.6z M377,88.8
		c0,2.6-0.4,5.1-0.9,7.4c-1.7-0.2-3.6-0.5-5.7-0.7c0.3-2.2,0.5-4.5,0.5-6.7L377,88.8z M375.9,97.2c-0.6,2.5-1.5,4.8-2.6,7
		c-1.4-0.4-3-0.8-4.7-1.1c0-0.1,0-0.1,0.1-0.2c0.6-2.1,1.1-4.2,1.5-6.3C372.3,96.7,374.2,96.9,375.9,97.2z M372.9,105
		c-1.2,2.2-2.5,4.3-3.8,6c-1-0.4-2.1-0.7-3.2-1c0.9-2,1.8-4,2.4-6.1C370,104.3,371.5,104.7,372.9,105z M365,109.8
		c-1.1-0.3-2.3-0.5-3.5-0.6c0.4-1.8,0.8-3.9,1.2-6.1c1.7,0.2,3.2,0.4,4.7,0.7C366.7,106,365.8,108,365,109.8z M360.5,109.1
		c-1.2-0.1-2.4-0.2-3.6-0.2v-6c1.7,0,3.3,0.1,4.8,0.2C361.4,105.2,360.9,107.3,360.5,109.1z M360.3,110.1c-0.3,1.1-0.5,2-0.8,2.9
		c-0.3,1.1-0.6,2.1-0.9,3c-0.5-0.1-1.1-0.1-1.7-0.1v-6.1C358.1,109.9,359.2,110,360.3,110.1z M360.5,113.3c0.3-1,0.5-2,0.8-3.1
		c1.1,0.1,2.2,0.3,3.3,0.6c-0.5,1-1,1.9-1.5,2.8c-0.6,1.1-1.2,2-1.8,2.9c-0.5-0.1-1.1-0.2-1.6-0.3
		C359.9,115.3,360.2,114.3,360.5,113.3z M363.9,114c0.6-1,1.1-2,1.6-3c1.1,0.3,2.1,0.6,3,0.9c-0.6,0.8-1.3,1.6-1.9,2.3
		c-1,1.1-2,2.1-2.9,3c-0.5-0.2-0.9-0.3-1.4-0.4C362.8,115.9,363.4,115,363.9,114z M364,118.3c0.6,0.2,1.2,0.5,1.7,0.7
		c-2.2,1.3-4.3,2.2-5.9,2.8C360.9,120.9,362.4,119.7,364,118.3z M364.8,117.5c0.9-0.8,1.7-1.7,2.6-2.7c0.8-0.8,1.5-1.7,2.1-2.6
		c1.3,0.5,2.4,1,3.4,1.6c-0.8,0.8-1.7,1.5-2.7,2.2c-1.2,0.9-2.4,1.7-3.6,2.4C366.1,118.1,365.4,117.8,364.8,117.5z M371.2,111.9
		c-0.4-0.2-0.7-0.3-1.1-0.5c1.5-2,2.7-4,3.8-6.1c1.1,0.3,2.1,0.7,3,1c0.7,0.2,1.3,0.5,1.9,0.7c-1.4,2.2-3.1,4.2-5.1,6.1
		C372.9,112.7,372.1,112.3,371.2,111.9z M377.3,105.4c-0.9-0.3-1.8-0.6-2.9-1c0.1-0.3,0.2-0.5,0.4-0.8c0.9-2.1,1.7-4.2,2.2-6.4
		c2.2,0.3,4.2,0.7,5.8,1c-0.8,2.8-1.9,5.4-3.4,7.9C378.7,105.9,378,105.7,377.3,105.4z M380.6,96.9c-1-0.2-2.2-0.4-3.5-0.6
		c0.6-2.5,0.9-5,0.9-7.6l6,0c0,3-0.4,5.9-1.1,8.6C382.3,97.2,381.5,97.1,380.6,96.9z M389.7,77.2c-0.7,0.2-2.7,0.6-5.8,1.2
		c-0.7-2.7-1.8-5.3-3.2-7.8c-0.1-0.2-0.2-0.4-0.4-0.6c2.7-1.2,4.2-2.1,4.6-2.3C386.9,70.6,388.5,73.8,389.7,77.2z M377.9,60.5
		c2.4,1.8,4.5,4,6.3,6.4c-0.4,0.3-2,1.2-4.5,2.3c-1.4-2.2-3.1-4.3-5.1-6.2C376.7,61.7,377.8,60.6,377.9,60.5
		C377.9,60.5,377.9,60.5,377.9,60.5z M370.8,56.5L370.8,56.5c0.1-0.1,0.2-0.1,0.2-0.1c2.2,1,4.2,2.2,6.1,3.6
		c-0.3,0.3-1.4,1.2-3.2,2.3c-1-0.9-2-1.7-3.1-2.5c-0.9-0.6-1.7-1.2-2.6-1.8C369.9,57.2,370.8,56.5,370.8,56.5z M369.9,55.9
		c-0.4,0.3-1.4,0.9-2.7,1.5c-3.5-2.1-6.7-3.4-8.7-4.1C362.6,53.4,366.4,54.4,369.9,55.9z M360.7,59.3c-0.5,0.1-1,0.1-1.5,0.2
		c-0.5-1.6-1-3-1.4-4C358.7,56.5,359.7,57.7,360.7,59.3z M356.9,55.7c0.4,1,0.8,2.4,1.3,3.9c-0.4,0-0.9,0.1-1.3,0.1V55.7z
		 M356.9,60.7c0.6,0,1.1,0,1.6-0.1c0.3,0.9,0.6,1.9,0.9,3c0.2,0.9,0.5,1.9,0.8,3c-1,0.1-2.1,0.2-3.3,0.2V60.7z M356.9,67.7
		c1.2,0,2.4-0.1,3.5-0.2c0.4,1.8,0.8,3.9,1.2,6c-1.5,0.1-3.1,0.2-4.7,0.2V67.7z M349.8,63.7c0.7-1.2,1.4-2.4,2-3.4
		c0.5,0.1,1,0.2,1.6,0.2c-0.3,1.1-0.6,2.2-1,3.4c-0.2,0.8-0.4,1.6-0.6,2.5c-1.1-0.1-2.2-0.3-3.1-0.5C349,65.1,349.4,64.4,349.8,63.7
		z M347.6,65.7c-1.2-0.3-2.3-0.6-3.3-1c0.6-0.8,1.2-1.5,1.8-2.2c0.9-1,1.8-2,2.7-2.8c0.6,0.2,1.2,0.3,1.9,0.5c-0.6,1-1.2,2-1.8,3.1
		C348.5,64,348.1,64.8,347.6,65.7z M351.3,59.2c-0.6-0.1-1.1-0.2-1.6-0.4c1.6-1.5,3.1-2.7,4.3-3.5C353.3,56.3,352.3,57.6,351.3,59.2
		z M348.7,58.5c-0.7-0.2-1.4-0.5-1.9-0.7c2.4-1.4,4.7-2.4,6.5-3.1C351.9,55.6,350.3,56.9,348.7,58.5z M347.8,59.3
		c-0.8,0.8-1.6,1.6-2.4,2.5c-0.7,0.8-1.4,1.7-2.1,2.5c-0.9-0.4-1.8-0.8-2.5-1.1c-0.3-0.2-0.6-0.3-0.9-0.5c0.8-0.7,1.7-1.4,2.6-2.1
		c1-0.8,2.1-1.5,3.1-2.1C346.3,58.7,347,59,347.8,59.3z M340.4,64c0.7,0.4,1.5,0.7,2.4,1.1c-1.5,2-2.7,4-3.8,6.1
		c-1.1-0.3-2.1-0.7-3-1c-0.7-0.2-1.3-0.5-1.9-0.7c1.4-2.2,3.2-4.3,5.2-6.2C339.6,63.6,340,63.8,340.4,64z M335.5,71.2
		c0.9,0.3,1.9,0.7,2.9,1c-0.1,0.3-0.2,0.5-0.4,0.8c-1,2.2-1.8,4.4-2.3,6.6c-2.2-0.3-4.2-0.6-5.9-0.9c0.8-3,2-5.7,3.6-8.3
		C334.1,70.6,334.8,70.9,335.5,71.2z M331.6,80c1.2,0.2,2.5,0.4,4,0.6c-0.5,2.4-0.8,4.8-0.8,7.2l-6.1,0c0-2.8,0.4-5.6,1-8.1
		C330.3,79.7,330.9,79.9,331.6,80z M334.8,88.8c0,2.5,0.3,5.1,0.9,7.5c-1.4,0.2-2.7,0.4-3.8,0.6c-0.7,0.1-1.4,0.3-2,0.4
		c-0.7-2.6-1.1-5.4-1.1-8.5L334.8,88.8z M332,97.9c1.1-0.2,2.4-0.4,3.8-0.6c0.5,2.2,1.3,4.4,2.3,6.6c0.1,0.2,0.2,0.4,0.3,0.5
		c-1.2,0.4-2.3,0.7-3.2,1.1c-0.6,0.2-1.2,0.4-1.7,0.7c-1.4-2.3-2.6-4.9-3.4-7.8C330.7,98.1,331.3,98,332,97.9z M335.5,106.4
		c1-0.4,2.1-0.7,3.3-1.1c1.1,2.1,2.3,4.2,3.8,6.2c-0.8,0.3-1.6,0.7-2.3,1c-0.4,0.2-0.8,0.4-1.2,0.6c-1.8-1.7-3.6-3.7-5.1-6.1
		C334.5,106.7,335,106.5,335.5,106.4z M340.8,113.3c0.7-0.4,1.5-0.7,2.5-1.1c0.7,0.9,1.5,1.8,2.2,2.7c0.8,0.9,1.5,1.7,2.3,2.4
		c-0.7,0.3-1.4,0.5-1.9,0.8c0,0,0,0-0.1,0c-1-0.6-2.1-1.4-3.2-2.2c-0.9-0.7-1.8-1.4-2.7-2.2C340.2,113.6,340.5,113.5,340.8,113.3z
		 M348.6,118.1c1.6,1.5,3.2,2.7,4.4,3.7c-1.7-0.7-3.8-1.6-6.2-3C347.4,118.6,347.9,118.3,348.6,118.1z M346.2,114.3
		c-0.6-0.7-1.3-1.5-2-2.4c1-0.4,2.1-0.7,3.4-1c0.4,0.9,0.9,1.7,1.4,2.6c0.6,1.1,1.2,2.1,1.8,3c-0.7,0.1-1.3,0.3-1.9,0.5
		C348,116.2,347.1,115.2,346.2,114.3z M349.8,113c-0.4-0.7-0.8-1.5-1.2-2.3c1-0.2,2.1-0.4,3.2-0.5c0.2,0.9,0.4,1.7,0.6,2.5
		c0.3,1.2,0.7,2.4,1,3.4c-0.6,0.1-1.1,0.1-1.6,0.2C351.1,115.3,350.5,114.2,349.8,113z M348.1,109.7c-0.9-1.8-1.7-3.9-2.5-6
		c1.5-0.2,3-0.4,4.7-0.6c0.4,2.2,0.8,4.2,1.3,6.1C350.3,109.3,349.2,109.5,348.1,109.7z M347.1,110c-1.3,0.3-2.5,0.7-3.6,1.1
		c-1.3-1.8-2.6-3.8-3.8-6.1c1.4-0.4,3.1-0.8,4.8-1.1C345.3,105.9,346.2,108,347.1,110z M339.4,104.1c-1-2.1-1.9-4.4-2.5-7
		c1.7-0.2,3.7-0.5,5.8-0.7c0.4,1.9,0.8,3.8,1.4,5.7c0.1,0.2,0.2,0.5,0.2,0.7C342.5,103.3,340.8,103.7,339.4,104.1z M336.6,96.1
		c-0.5-2.3-0.8-4.8-0.9-7.4l6.1,0c0,2.2,0.2,4.4,0.6,6.7C340.3,95.7,338.4,95.9,336.6,96.1z M335.8,87.8c0-2.5,0.3-4.9,0.8-7.1
		c1.8,0.2,3.7,0.4,5.8,0.6c-0.4,2.2-0.6,4.4-0.6,6.5L335.8,87.8z M336.8,79.7c0.7-2.6,1.6-5,2.6-7.2c1.5,0.4,3.1,0.8,4.9,1.2
		c-0.1,0.3-0.2,0.6-0.3,0.9c-0.6,1.9-1.1,3.9-1.5,5.8C340.5,80.1,338.6,79.9,336.8,79.7z M339.9,71.5c1.2-2.3,2.5-4.3,3.8-6
		c1,0.4,2.2,0.8,3.5,1.1c-1,2-1.8,4.1-2.5,6.1C342.9,72.3,341.3,71.9,339.9,71.5z M348.2,66.8c1,0.2,2.2,0.4,3.4,0.6
		c-0.4,1.9-0.9,3.9-1.3,6.1c-1.6-0.2-3.2-0.4-4.6-0.6C346.4,70.7,347.3,68.6,348.2,66.8z M352.5,67.5c1.1,0.1,2.2,0.2,3.4,0.2v6.1
		c-1.6,0-3.2-0.1-4.6-0.2C351.7,71.4,352.1,69.4,352.5,67.5z M352.8,66.5c0.2-0.8,0.4-1.6,0.6-2.4c0.3-1.3,0.7-2.5,1-3.6
		c0.5,0,1,0.1,1.5,0.1v6.1C354.8,66.7,353.8,66.6,352.8,66.5z M354.7,59.6c0.5-1.5,0.9-2.8,1.2-3.8v3.8
		C355.5,59.7,355.1,59.6,354.7,59.6z M353.7,59.5c-0.4,0-0.9-0.1-1.3-0.2c0.9-1.4,1.8-2.7,2.5-3.6C354.6,56.8,354.1,58.1,353.7,59.5
		z M354.3,53.2c-2,0.7-5.1,2-8.6,4.1c-1.2-0.6-2-1.2-2.5-1.5C346.6,54.3,350.4,53.4,354.3,53.2z M342.1,56.2
		c0.3,0.3,1.2,0.9,2.6,1.7c-0.9,0.6-1.8,1.2-2.7,1.8c-1,0.8-2,1.6-2.9,2.4c-1.7-1-2.7-2-3.1-2.4C337.9,58.4,339.9,57.2,342.1,56.2z
		 M335.2,60.4c0.3,0.3,1.4,1.3,3.2,2.5c-2,1.9-3.8,4-5.2,6.3c-2.4-1-3.9-1.9-4.4-2.3C330.5,64.4,332.7,62.3,335.2,60.4z M328.1,67.7
		c0.5,0.3,2,1.2,4.5,2.3c-0.1,0.2-0.3,0.4-0.4,0.7c-1.4,2.5-2.5,5.1-3.2,7.8c-3.2-0.6-5.1-1.1-5.8-1.3
		C324.3,73.8,326,70.6,328.1,67.7z M322.9,78.2c0.6,0.2,2.6,0.7,5.8,1.3c-0.6,2.6-1,5.4-1,8.3l-6.2,0
		C321.5,84.4,322,81.2,322.9,78.2z M323.2,98.9c-1-3.2-1.6-6.6-1.7-10.1l6.2,0c0,3,0.4,6,1.1,8.7C325.9,98.1,324,98.6,323.2,98.9z
		 M323.5,99.8c0.8-0.2,2.7-0.8,5.6-1.4c0.7,2.6,1.8,5.1,3.1,7.4c0.1,0.2,0.2,0.4,0.4,0.6c-2.2,1-3.7,1.9-4.3,2.3
		C326.3,106.1,324.6,103.1,323.5,99.8z M328.9,109.6c0.6-0.4,2.1-1.3,4.2-2.2c1.4,2.2,3.2,4.3,5.2,6.3c-1.6,1-2.6,1.8-3.1,2.2
		C332.8,114,330.7,111.9,328.9,109.6z M336,116.4c0.5-0.4,1.5-1.2,3-2.1c1,0.9,2,1.7,3,2.5c0.9,0.7,1.9,1.3,2.8,1.9
		c-1.1,0.6-1.8,1.2-2.2,1.5C340.3,119.2,338,117.9,336,116.4z M343.7,120.7c0.4-0.3,1.1-0.8,2.1-1.3c2.9,1.7,5.5,2.9,7.5,3.6
		C349.9,122.6,346.7,121.8,343.7,120.7z M349.7,117.8c0.5-0.1,1-0.3,1.6-0.4c1,1.6,2,2.9,2.7,3.9
		C352.8,120.4,351.3,119.3,349.7,117.8z M352.4,117.2c0.4-0.1,0.9-0.1,1.3-0.2c0.5,1.5,0.9,2.8,1.2,3.8
		C354.2,119.9,353.3,118.7,352.4,117.2z M355.9,120.7c-0.3-1-0.8-2.3-1.2-3.7c0.4,0,0.8,0,1.2,0V120.7z M355.9,115.9
		c-0.5,0-1,0-1.5,0.1c-0.3-1.1-0.7-2.3-1-3.6c-0.2-0.7-0.4-1.5-0.6-2.4c1-0.1,2.1-0.2,3.2-0.2V115.9z M355.9,108.9
		c-1.2,0-2.3,0.1-3.4,0.2c-0.4-1.9-0.9-3.9-1.3-6c1.5-0.1,3-0.2,4.6-0.2V108.9z M355.9,98.3v3.5c-1.7,0-3.3,0.1-4.8,0.2
		c-0.3-1.5-0.5-3.1-0.7-4.7c-0.4-0.1-0.7-0.3-1-0.4c0.2,1.8,0.4,3.5,0.7,5.1c-1.7,0.2-3.3,0.4-4.8,0.6c-0.7-2-1.2-4.2-1.7-6.4
		c1.2-0.1,2.6-0.2,3.9-0.3c-0.5-0.3-0.9-0.6-1.3-0.9c-1,0.1-1.9,0.1-2.8,0.2c-0.2-1.4-0.4-2.9-0.5-4.3c-0.4-0.9-0.6-1.9-0.6-2.9
		c0-1,0.2-2.1,0.6-3c0.1-1.3,0.3-2.5,0.5-3.8c0.7,0.1,1.5,0.1,2.3,0.2c0.4-0.3,0.8-0.6,1.2-0.9c-1.1-0.1-2.3-0.1-3.3-0.2
		c0.4-2.3,1-4.5,1.7-6.6c1.5,0.3,3.1,0.5,4.8,0.7c-0.3,1.5-0.5,3.1-0.7,4.8c0.3-0.1,0.7-0.3,1-0.4c0.2-1.5,0.4-2.9,0.6-4.3
		c1.5,0.1,3.1,0.2,4.8,0.2v3.1c0.2,0,0.3,0,0.5,0c0.2,0,0.3,0,0.5,0v-3.1c1.7,0,3.3-0.1,4.9-0.2c0.2,1.4,0.4,2.8,0.6,4.3
		c0.4,0.1,0.7,0.2,1,0.4c-0.2-1.6-0.4-3.2-0.6-4.8c1.8-0.2,3.4-0.4,5-0.7c0.6,2,1.2,4.2,1.6,6.5c-1.1,0.1-2.3,0.2-3.4,0.2
		c0.4,0.3,0.8,0.6,1.2,0.9c0.8-0.1,1.6-0.1,2.4-0.2c0.2,1.2,0.3,2.5,0.4,3.8c0.4,1,0.6,2,0.6,3c0,1-0.2,2-0.6,3
		c-0.1,1.5-0.2,2.9-0.5,4.3c-0.9-0.1-1.9-0.2-2.8-0.2c-0.4,0.3-0.9,0.6-1.3,0.9c1.4,0.1,2.7,0.2,4,0.3c-0.4,2.3-0.9,4.4-1.6,6.5
		c-1.5-0.3-3.1-0.5-4.9-0.7c0.3-1.7,0.5-3.4,0.7-5.2c-0.3,0.1-0.7,0.3-1,0.4c-0.2,1.6-0.4,3.2-0.6,4.7c-1.6-0.1-3.2-0.2-5-0.2v-3.5
		c-0.2,0-0.3,0-0.5,0C356.3,98.4,356.1,98.4,355.9,98.3z M356.9,116.9c0.5,0,0.9,0,1.4,0.1c-0.5,1.6-1,2.9-1.4,3.9V116.9z
		 M359.3,117.1c0.5,0.1,0.9,0.1,1.3,0.2c-1,1.5-1.9,2.7-2.7,3.6C358.4,119.9,358.8,118.6,359.3,117.1z M361.7,117.6
		c0.4,0.1,0.8,0.2,1.2,0.3c-1.3,1.2-2.6,2.2-3.6,3C360,120,360.8,118.9,361.7,117.6z M359.6,122.9c1.8-0.7,4.4-1.8,7.1-3.4
		c0.9,0.5,1.5,0.9,2,1.3C365.8,121.9,362.8,122.6,359.6,122.9z M369.8,120.4c-0.4-0.4-1.2-0.9-2.1-1.5c1-0.6,2.1-1.4,3.2-2.1
		c1.1-0.8,2.1-1.6,3-2.5c1.4,0.8,2.4,1.6,3.1,2.1C374.7,118,372.3,119.4,369.8,120.4z M377.7,115.8c-0.6-0.5-1.7-1.3-3.2-2.2
		c2-1.9,3.7-4,5.1-6.2c2.2,1,3.7,1.8,4.3,2.2C382.2,111.9,380.1,114,377.7,115.8z M384.6,108.8c-0.6-0.4-2.1-1.2-4.4-2.2
		c0.1-0.2,0.3-0.5,0.4-0.7c1.3-2.3,2.4-4.8,3.1-7.4c3,0.6,5,1.2,5.7,1.4C388.2,103.1,386.6,106.1,384.6,108.8z M389.7,98.9
		c-0.7-0.2-2.7-0.7-5.7-1.4c0.7-2.8,1.1-5.7,1.1-8.8l6.3,0C391.3,92.3,390.7,95.7,389.7,98.9z"/>
	<path class="st5" d="M356.4,77.8c-4.2,0-7.9,1.3-10.5,3.4h18.3c0,0,1.2,0,2.2,0.9c0.5,0.4,0.6,2.1,0.6,2.1l-1.5-0.1
		c0,0,0.2-0.9-0.7-1.4c-0.7-0.5-1.5-0.6-2.6,0.3c-1,0.7-1.7,3.1-2,3.8c-0.1,0.3-0.9,3.6-0.9,4.1c0,1.2,0.4,2.3,1.5,2.3
		c1.1,0.1,2-1.2,2.4-1.9c0.4-0.8,0.9-3,0.9-3h-2l0.2-1.6L366,87l-1.9,9.3l-1.9,0.6c0,0,1.3-4,0.7-3.5c-0.6,0.4-1.6,1-2.6,1
		c-1.2,0-1.9-1.3-1.9-1.3s-1.2-1-0.1-5.3c1-4.1,2.5-5.1,2.5-5.1h-10.3l-1,4.1h3.8l-0.4,1.6h-3.7l-1.4,5.1H346l2.8-11h-4.1l0.9-1
		c-2.1,1.8-3.3,4.1-3.3,6.6c0,5.7,6.3,10.3,14.1,10.3c7.8,0,14.1-4.6,14.1-10.3C370.5,82.4,364.2,77.8,356.4,77.8z M349.4,93.6
		c-0.4,0-0.7-0.4-0.7-0.9c0-0.5,0.3-0.9,0.7-0.9c0.4,0,0.7,0.4,0.7,0.9C350.1,93.1,349.8,93.6,349.4,93.6z M352.4,93.9l2.2-10.1h1.7
		l-2.2,10.1H352.4z M356.1,93.6c-0.4,0-0.7-0.4-0.7-0.9c0-0.5,0.3-0.9,0.7-0.9c0.4,0,0.7,0.4,0.7,0.9
		C356.8,93.2,356.5,93.6,356.1,93.6z M365.9,93.6c-0.4,0-0.7-0.4-0.7-0.9c0-0.5,0.3-0.9,0.7-0.9c0.4,0,0.7,0.4,0.7,0.9
		C366.6,93.2,366.3,93.6,365.9,93.6z"/>
</g>
<g>
	<g>
		<path class="st5" d="M324,189.5c-0.5-1.4-0.8-2.3-0.8-6.7v-8.6c0-5.1-1.7-7-5.6-7h-3v22.3H306v-54.7h13c8.9,0,12.7,4.1,12.7,12.6
			v4.3c0,5.6-1.8,9.3-5.6,11.1c4.3,1.8,5.7,5.9,5.7,11.7v8.4c0,2.7,0.1,4.6,0.9,6.6H324z M314.6,142.5v16.8h3.4
			c3.2,0,5.2-1.4,5.2-5.8v-5.4c0-3.9-1.3-5.6-4.4-5.6H314.6z"/>
	</g>
	<g>
		<path class="st5" d="M378.9,171.3L368,134.7h9l6.6,24.9l6.6-24.9h8.2l-10.9,36.6v18.1h-8.6V171.3z"/>
	</g>
	<g>
		<path class="st5" d="M399.3,134.7h26.6v7.8h-9v46.9h-8.6v-46.9h-9V134.7z"/>
	</g>
	<g>
		<path class="st5" d="M346.6,189.5H338v-54.7h8.6v23.5h9.8v-23.5h8.8v54.7h-8.8V166h-9.8V189.5z"/>
	</g>
	<g>
		<path class="st5" d="M480.3,173.6l5.9-38.9h12v54.7H490v-39.3l-5.9,39.3h-8.1l-6.4-38.7v38.7H462v-54.7h12L480.3,173.6z"/>
	</g>
	<g>
		<path class="st5" d="M504.4,134.7h8.6v54.7h-8.6V134.7z"/>
	</g>
	<g>
		<path class="st5" d="M544.2,169v7.3c0,8.8-4.4,13.8-12.8,13.8s-12.8-5-12.8-13.8v-28.5c0-8.8,4.4-13.8,12.8-13.8s12.8,5,12.8,13.8
			v5.3H536v-5.9c0-3.9-1.7-5.4-4.5-5.4c-2.7,0-4.5,1.5-4.5,5.4v29.6c0,3.9,1.7,5.3,4.5,5.3c2.7,0,4.5-1.4,4.5-5.3V169H544.2z"/>
	</g>
	<g>
		<path class="st5" d="M563.9,159h12v17.4c0,8.8-4.4,13.8-12.8,13.8c-8.4,0-12.8-5-12.8-13.8v-28.5c0-8.8,4.4-13.8,12.8-13.8
			c8.4,0,12.8,5,12.8,13.8v5.3h-8.1v-5.9c0-3.9-1.7-5.4-4.5-5.4c-2.7,0-4.5,1.5-4.5,5.4v29.6c0,3.9,1.7,5.3,4.5,5.3
			c2.7,0,4.5-1.4,4.5-5.3v-10.1h-3.9V159z"/>
	</g>
	<g>
		<path class="st5" d="M588.3,171.3l-10.9-36.6h9l6.6,24.9l6.6-24.9h8.2l-10.9,36.6v18.1h-8.6V171.3z"/>
	</g>
	<g>
		<path class="st5" d="M629.5,173.6l5.9-38.9h12v54.7h-8.1v-39.3l-5.9,39.3h-8.1l-6.4-38.7v38.7h-7.5v-54.7h12L629.5,173.6z"/>
	</g>
	<g>
		<path class="st5" d="M661.2,149.8v39.6h-7.7v-54.7h10.8l8.8,32.8v-32.8h7.7v54.7h-8.8L661.2,149.8z"/>
	</g>
	<g>
		<path class="st5" d="M714.8,189.5h-8.7l-1.5-9.9h-10.6l-1.5,9.9h-7.9l8.8-54.7H706L714.8,189.5z M695.2,172.1h8.3l-4.1-27.7
			L695.2,172.1z"/>
	</g>
	<g>
		<path class="st5" d="M730.4,134.1c8.4,0,12.7,5,12.7,13.8v1.7h-8.1v-2.3c0-3.9-1.6-5.4-4.3-5.4c-2.7,0-4.3,1.5-4.3,5.4
			c0,11.3,16.8,13.4,16.8,29c0,8.8-4.4,13.8-12.8,13.8c-8.4,0-12.8-5-12.8-13.8V173h8.1v3.9c0,3.9,1.7,5.3,4.5,5.3
			c2.7,0,4.5-1.4,4.5-5.3c0-11.3-16.8-13.4-16.8-29C717.7,139.1,722,134.1,730.4,134.1z"/>
	</g>
	<g>
		<path class="st5" d="M744,134.7h26.6v7.8h-9v46.9H753v-46.9h-9V134.7z"/>
	</g>
	<g>
		<path class="st5" d="M774.3,134.7h8.6v54.7h-8.6V134.7z"/>
	</g>
	<g>
		<path class="st5" d="M814.1,169v7.3c0,8.8-4.4,13.8-12.8,13.8s-12.8-5-12.8-13.8v-28.5c0-8.8,4.4-13.8,12.8-13.8s12.8,5,12.8,13.8
			v5.3H806v-5.9c0-3.9-1.7-5.4-4.5-5.4c-2.7,0-4.5,1.5-4.5,5.4v29.6c0,3.9,1.7,5.3,4.5,5.3c2.7,0,4.5-1.4,4.5-5.3V169H814.1z"/>
	</g>
	<g>
		<path class="st5" d="M830.9,134.1c8.4,0,12.7,5,12.7,13.8v1.7h-8.1v-2.3c0-3.9-1.6-5.4-4.3-5.4c-2.7,0-4.3,1.5-4.3,5.4
			c0,11.3,16.8,13.4,16.8,29c0,8.8-4.4,13.8-12.8,13.8c-8.4,0-12.8-5-12.8-13.8V173h8.1v3.9c0,3.9,1.7,5.3,4.5,5.3
			c2.7,0,4.5-1.4,4.5-5.3c0-11.3-16.8-13.4-16.8-29C818.2,139.1,822.5,134.1,830.9,134.1z"/>
	</g>
	<g>
		<path class="st5" d="M438.7,189.6h-8.6v-54.7h8.6v23.5h9.8v-23.5h8.8v54.7h-8.8v-23.5h-9.8V189.6z"/>
	</g>
</g>
<g>
	<g>
		<path class="st5" d="M296.4,228.8l-3.2,29.6h-12l-6.2-55.6h8.5l4.7,43.9l4.2-43.9h8.4l4.4,44.2l4.5-44.2h7.6l-6.2,55.6h-11.6
			L296.4,228.8z"/>
	</g>
	<g>
		<path class="st5" d="M321,216.2c0-8.9,4.7-14,13.3-14s13.3,5.1,13.3,14v28.9c0,8.9-4.7,14-13.3,14s-13.3-5.1-13.3-14V216.2z
			 M329.8,245.7c0,4,1.7,5.5,4.5,5.5c2.8,0,4.5-1.5,4.5-5.5v-30c0-4-1.7-5.5-4.5-5.5c-2.8,0-4.5,1.5-4.5,5.5V245.7z"/>
	</g>
	<g>
		<path class="st5" d="M371.5,258.5c-0.5-1.4-0.8-2.3-0.8-6.8v-8.7c0-5.2-1.7-7.1-5.7-7.1h-3v22.6h-8.7v-55.6h13.2
			c9.1,0,13,4.2,13,12.8v4.4c0,5.7-1.8,9.5-5.7,11.3c4.4,1.8,5.8,6,5.8,11.8v8.6c0,2.7,0.1,4.7,1,6.8H371.5z M361.9,210.8v17.1h3.4
			c3.3,0,5.2-1.4,5.2-5.9v-5.5c0-4-1.4-5.7-4.4-5.7H361.9z"/>
	</g>
	<g>
		<path class="st5" d="M385.1,202.9h8.7v47.7h14.4v7.9h-23.1V202.9z"/>
	</g>
	<g>
		<path class="st5" d="M412.1,202.9h13.8c8.7,0,13,4.8,13,13.7v28.1c0,8.9-4.3,13.7-13,13.7h-13.8V202.9z M420.8,210.8v39.7h4.9
			c2.8,0,4.4-1.4,4.4-5.4v-28.9c0-4-1.7-5.4-4.4-5.4H420.8z"/>
	</g>
	<g>
		<path class="st5" d="M471.4,237.7v7.4c0,8.9-4.4,14-13,14s-13-5.1-13-14v-28.9c0-8.9,4.4-14,13-14s13,5.1,13,14v5.4h-8.3v-6
			c0-4-1.7-5.5-4.5-5.5c-2.8,0-4.5,1.5-4.5,5.5v30c0,4,1.7,5.4,4.5,5.4c2.8,0,4.5-1.4,4.5-5.4v-7.9H471.4z"/>
	</g>
	<g>
		<path class="st5" d="M485.5,258.5h-8.7v-55.6h8.7v23.8h9.9v-23.8h8.9v55.6h-8.9v-23.8h-9.9V258.5z"/>
	</g>
	<g>
		<path class="st5" d="M539,258.5h-8.8l-1.5-10.1h-10.7l-1.5,10.1h-8l8.9-55.6h12.8L539,258.5z M519,240.8h8.4l-4.2-28.1L519,240.8z
			"/>
	</g>
	<g>
		<path class="st5" d="M561.5,242.3l6-39.5h12.2v55.6h-8.3v-39.9l-6,39.9h-8.3l-6.5-39.3v39.3h-7.6v-55.6h12.2L561.5,242.3z"/>
	</g>
	<g>
		<path class="st5" d="M611.9,216.6v7.2c0,8.9-4.3,13.7-13,13.7h-4.1v20.9H586v-55.6h12.9C607.6,202.9,611.9,207.7,611.9,216.6z
			 M594.7,210.8v18.8h4.1c2.8,0,4.3-1.3,4.3-5.2V216c0-4-1.5-5.2-4.3-5.2H594.7z"/>
	</g>
	<g>
		<path class="st5" d="M615.9,202.9h8.7v55.6h-8.7V202.9z"/>
	</g>
	<g>
		<path class="st5" d="M630.3,216.2c0-8.9,4.7-14,13.3-14c8.6,0,13.3,5.1,13.3,14v28.9c0,8.9-4.7,14-13.3,14
			c-8.6,0-13.3-5.1-13.3-14V216.2z M639.1,245.7c0,4,1.7,5.5,4.5,5.5c2.8,0,4.5-1.5,4.5-5.5v-30c0-4-1.7-5.5-4.5-5.5
			c-2.8,0-4.5,1.5-4.5,5.5V245.7z"/>
	</g>
	<g>
		<path class="st5" d="M670.3,218.2v40.3h-7.9v-55.6h11l9,33.3v-33.3h7.8v55.6h-9L670.3,218.2z"/>
	</g>
	<g>
		<path class="st5" d="M708.2,202.2c8.5,0,12.9,5.1,12.9,14v1.7h-8.3v-2.3c0-4-1.6-5.5-4.4-5.5c-2.8,0-4.4,1.5-4.4,5.5
			c0,11.4,17.1,13.6,17.1,29.5c0,8.9-4.4,14-13,14c-8.6,0-13-5.1-13-14v-3.4h8.3v4c0,4,1.7,5.4,4.5,5.4c2.8,0,4.5-1.4,4.5-5.4
			c0-11.4-17.1-13.6-17.1-29.5C695.3,207.3,699.7,202.2,708.2,202.2z"/>
	</g>
	<g>
		<path class="st5" d="M734.9,258.5h-8.7v-55.6h8.7v23.8h9.9v-23.8h8.9v55.6h-8.9v-23.8h-9.9V258.5z"/>
	</g>
	<g>
		<path class="st5" d="M760.1,202.9h8.7v55.6h-8.7V202.9z"/>
	</g>
	<g>
		<path class="st5" d="M801.1,216.6v7.2c0,8.9-4.3,13.7-13,13.7h-4.1v20.9h-8.7v-55.6H788C796.8,202.9,801.1,207.7,801.1,216.6z
			 M783.9,210.8v18.8h4.1c2.8,0,4.3-1.3,4.3-5.2V216c0-4-1.5-5.2-4.3-5.2H783.9z"/>
	</g>
	<g>
		<path class="st5" d="M817.9,202.4c8.5,0,12.9,5.1,12.9,14v1.7h-8.3v-2.3c0-4-1.6-5.5-4.4-5.5c-2.8,0-4.4,1.5-4.4,5.5
			c0,11.4,17.1,13.6,17.1,29.5c0,8.9-4.4,14-13,14c-8.6,0-13-5.1-13-14v-3.4h8.3v4c0,4,1.7,5.4,4.5,5.4c2.8,0,4.5-1.4,4.5-5.4
			c0-11.4-17.1-13.6-17.1-29.5C805,207.5,809.4,202.4,817.9,202.4z"/>
	</g>
</g>
</svg>
