<?xml version="1.0" encoding="utf-8"?>
<!-- Generator: Adobe Illustrator 27.1.1, SVG Export Plug-In . SVG Version: 6.00 Build 0)  -->
<svg version="1.1" id="Capa_1" xmlns="http://www.w3.org/2000/svg" xmlns:xlink="http://www.w3.org/1999/xlink" x="0px" y="0px"
	 viewBox="0 0 428.8 272" style="enable-background:new 0 0 428.8 272;" xml:space="preserve">
<style type="text/css">
	.st0{enable-background:new    ;}
	.st1{fill:#FFFFFF;}
</style>
<g>
	<g class="st0">
		<path class="st1" d="M1.6,253.3h1.6v1.8c0.5-0.7,1-1.2,1.5-1.6s1.1-0.5,1.6-0.5c0.4,0,0.9,0.1,1.4,0.4L7,254.7
			c-0.3-0.1-0.6-0.2-0.8-0.2c-0.5,0-1,0.2-1.5,0.6c-0.5,0.4-0.8,1.1-1.1,2c-0.2,0.7-0.3,2.1-0.3,4.2v4.1H1.6V253.3z"/>
		<path class="st1" d="M19.3,261.3l1.3,0.7c-0.4,0.8-0.9,1.5-1.5,2c-0.6,0.5-1.2,0.9-1.9,1.2s-1.5,0.4-2.4,0.4c-2,0-3.5-0.6-4.6-1.9
			c-1.1-1.3-1.7-2.8-1.7-4.4c0-1.5,0.5-2.9,1.4-4.1c1.2-1.5,2.8-2.3,4.8-2.3c2.1,0,3.7,0.8,4.9,2.3c0.9,1.1,1.3,2.5,1.3,4.1H10.1
			c0,1.4,0.5,2.6,1.3,3.5c0.9,0.9,1.9,1.3,3.2,1.3c0.6,0,1.2-0.1,1.8-0.3c0.6-0.2,1.1-0.5,1.5-0.9C18.4,262.7,18.8,262.1,19.3,261.3
			z M19.3,258.1c-0.2-0.8-0.5-1.5-0.9-2c-0.4-0.5-0.9-0.9-1.6-1.2c-0.7-0.3-1.3-0.5-2.1-0.5c-1.2,0-2.2,0.4-3.1,1.1
			c-0.6,0.6-1.1,1.4-1.4,2.5H19.3z"/>
		<path class="st1" d="M35.9,253.3v12.1h-1.5v-2.1c-0.7,0.8-1.4,1.4-2.2,1.8c-0.8,0.4-1.7,0.6-2.7,0.6c-1.7,0-3.2-0.6-4.4-1.9
			c-1.2-1.2-1.8-2.8-1.8-4.5c0-1.7,0.6-3.2,1.8-4.5c1.2-1.2,2.7-1.9,4.4-1.9c1,0,1.9,0.2,2.7,0.6s1.5,1.1,2.1,1.9v-2.2H35.9z
			 M29.7,254.4c-0.9,0-1.7,0.2-2.4,0.6c-0.7,0.4-1.3,1-1.7,1.8c-0.4,0.8-0.6,1.6-0.6,2.4c0,0.9,0.2,1.7,0.7,2.4
			c0.4,0.8,1,1.4,1.8,1.8c0.7,0.4,1.5,0.6,2.4,0.6c0.9,0,1.7-0.2,2.4-0.6c0.8-0.4,1.3-1,1.8-1.7c0.4-0.7,0.6-1.6,0.6-2.5
			c0-1.4-0.5-2.6-1.4-3.5S31.1,254.4,29.7,254.4z"/>
		<path class="st1" d="M39.2,248.6h1.6v16.8h-1.6V248.6z"/>
		<path class="st1" d="M55.3,248.6v1.5c-0.6-0.2-1.1-0.4-1.5-0.4c-0.3,0-0.6,0.1-0.8,0.2c-0.2,0.1-0.3,0.3-0.4,0.4
			c-0.1,0.2-0.1,0.6-0.1,1.3l0,1.6h2.5v1.3h-2.5l0,10.8H51v-10.8h-1.6v-1.3H51v-1.9c0-0.9,0.1-1.5,0.2-1.9c0.2-0.4,0.4-0.7,0.8-0.9
			c0.4-0.2,0.8-0.3,1.4-0.3C54,248.3,54.6,248.4,55.3,248.6z"/>
		<path class="st1" d="M67.6,261.3L69,262c-0.4,0.8-0.9,1.5-1.5,2c-0.6,0.5-1.2,0.9-1.9,1.2s-1.5,0.4-2.4,0.4c-2,0-3.5-0.6-4.6-1.9
			c-1.1-1.3-1.7-2.8-1.7-4.4c0-1.5,0.5-2.9,1.4-4.1c1.2-1.5,2.8-2.3,4.8-2.3c2.1,0,3.7,0.8,4.9,2.3c0.9,1.1,1.3,2.5,1.3,4.1H58.5
			c0,1.4,0.5,2.6,1.3,3.5c0.9,0.9,1.9,1.3,3.2,1.3c0.6,0,1.2-0.1,1.8-0.3s1.1-0.5,1.5-0.9C66.7,262.7,67.2,262.1,67.6,261.3z
			 M67.6,258.1c-0.2-0.8-0.5-1.5-0.9-2c-0.4-0.5-0.9-0.9-1.6-1.2c-0.7-0.3-1.3-0.5-2.1-0.5c-1.2,0-2.2,0.4-3.1,1.1
			c-0.6,0.6-1.1,1.4-1.4,2.5H67.6z"/>
		<path class="st1" d="M84.3,248.6v16.8h-1.5v-2.1c-0.7,0.8-1.4,1.4-2.2,1.8c-0.8,0.4-1.7,0.6-2.7,0.6c-1.7,0-3.2-0.6-4.4-1.9
			c-1.2-1.2-1.8-2.8-1.8-4.5c0-1.7,0.6-3.2,1.8-4.5c1.2-1.2,2.7-1.9,4.4-1.9c1,0,1.9,0.2,2.7,0.6c0.8,0.4,1.5,1.1,2.1,1.9v-6.9H84.3
			z M78.1,254.4c-0.9,0-1.7,0.2-2.4,0.6s-1.3,1-1.7,1.8c-0.4,0.8-0.6,1.6-0.6,2.4c0,0.9,0.2,1.7,0.7,2.4c0.4,0.8,1,1.4,1.8,1.8
			c0.7,0.4,1.5,0.6,2.4,0.6c0.9,0,1.7-0.2,2.4-0.6c0.8-0.4,1.3-1,1.8-1.7c0.4-0.7,0.6-1.6,0.6-2.5c0-1.4-0.5-2.6-1.4-3.5
			S79.5,254.4,78.1,254.4z"/>
		<path class="st1" d="M98,261.3l1.3,0.7c-0.4,0.8-0.9,1.5-1.5,2c-0.6,0.5-1.2,0.9-1.9,1.2s-1.5,0.4-2.4,0.4c-2,0-3.5-0.6-4.6-1.9
			c-1.1-1.3-1.7-2.8-1.7-4.4c0-1.5,0.5-2.9,1.4-4.1c1.2-1.5,2.8-2.3,4.8-2.3c2.1,0,3.7,0.8,4.9,2.3c0.9,1.1,1.3,2.5,1.3,4.1H88.9
			c0,1.4,0.5,2.6,1.3,3.5c0.9,0.9,1.9,1.3,3.2,1.3c0.6,0,1.2-0.1,1.8-0.3s1.1-0.5,1.5-0.9C97.1,262.7,97.6,262.1,98,261.3z
			 M98,258.1c-0.2-0.8-0.5-1.5-0.9-2c-0.4-0.5-0.9-0.9-1.6-1.2c-0.7-0.3-1.3-0.5-2.1-0.5c-1.2,0-2.2,0.4-3.1,1.1
			c-0.6,0.6-1.1,1.4-1.4,2.5H98z"/>
		<path class="st1" d="M102.1,253.3h1.6v1.8c0.5-0.7,1-1.2,1.5-1.6s1.1-0.5,1.6-0.5c0.4,0,0.9,0.1,1.4,0.4l-0.8,1.3
			c-0.3-0.1-0.6-0.2-0.8-0.2c-0.5,0-1,0.2-1.5,0.6c-0.5,0.4-0.8,1.1-1.1,2c-0.2,0.7-0.3,2.1-0.3,4.2v4.1h-1.6V253.3z"/>
		<path class="st1" d="M121.6,253.3v12.1H120v-2.1c-0.7,0.8-1.4,1.4-2.2,1.8c-0.8,0.4-1.7,0.6-2.7,0.6c-1.7,0-3.2-0.6-4.4-1.9
			c-1.2-1.2-1.8-2.8-1.8-4.5c0-1.7,0.6-3.2,1.8-4.5c1.2-1.2,2.7-1.9,4.4-1.9c1,0,1.9,0.2,2.7,0.6s1.5,1.1,2.1,1.9v-2.2H121.6z
			 M115.3,254.4c-0.9,0-1.7,0.2-2.4,0.6c-0.7,0.4-1.3,1-1.7,1.8c-0.4,0.8-0.6,1.6-0.6,2.4c0,0.9,0.2,1.7,0.7,2.4
			c0.4,0.8,1,1.4,1.8,1.8c0.7,0.4,1.5,0.6,2.4,0.6c0.9,0,1.7-0.2,2.4-0.6c0.8-0.4,1.3-1,1.8-1.7c0.4-0.7,0.6-1.6,0.6-2.5
			c0-1.4-0.5-2.6-1.4-3.5S116.7,254.4,115.3,254.4z"/>
		<path class="st1" d="M136.8,255.8l-1.2,0.8c-1.1-1.4-2.5-2.1-4.4-2.1c-1.5,0-2.7,0.5-3.7,1.4c-1,0.9-1.5,2.1-1.5,3.5
			c0,0.9,0.2,1.7,0.7,2.5c0.4,0.8,1.1,1.4,1.8,1.8c0.8,0.4,1.7,0.6,2.6,0.6c1.8,0,3.2-0.7,4.4-2.1l1.2,0.8c-0.6,0.9-1.4,1.5-2.3,2
			c-1,0.5-2.1,0.7-3.3,0.7c-1.9,0-3.5-0.6-4.8-1.8c-1.3-1.2-1.9-2.7-1.9-4.4c0-1.2,0.3-2.3,0.9-3.3c0.6-1,1.4-1.8,2.4-2.4
			c1-0.6,2.2-0.8,3.5-0.8c0.8,0,1.6,0.1,2.3,0.4c0.7,0.2,1.4,0.6,1.9,1C136,254.7,136.4,255.2,136.8,255.8z"/>
		<path class="st1" d="M140.3,248.3c0.4,0,0.7,0.1,0.9,0.4s0.4,0.6,0.4,0.9c0,0.3-0.1,0.6-0.4,0.9s-0.6,0.4-0.9,0.4
			c-0.3,0-0.6-0.1-0.9-0.4s-0.4-0.6-0.4-0.9c0-0.4,0.1-0.7,0.4-0.9S140,248.3,140.3,248.3z M139.6,253.3h1.6v12.1h-1.6V253.3z"/>
		<path class="st1" d="M150.1,252.9c1.9,0,3.4,0.7,4.6,2c1.1,1.2,1.7,2.7,1.7,4.4c0,1.7-0.6,3.2-1.8,4.4c-1.2,1.3-2.7,1.9-4.5,1.9
			c-1.9,0-3.4-0.6-4.6-1.9c-1.2-1.3-1.8-2.7-1.8-4.4c0-1.7,0.6-3.1,1.7-4.4C146.7,253.6,148.2,252.9,150.1,252.9z M150.1,254.5
			c-1.3,0-2.4,0.5-3.3,1.4c-0.9,1-1.4,2.1-1.4,3.5c0,0.9,0.2,1.7,0.6,2.4c0.4,0.8,1,1.3,1.7,1.8c0.7,0.4,1.5,0.6,2.4,0.6
			s1.7-0.2,2.4-0.6c0.7-0.4,1.3-1,1.7-1.8c0.4-0.8,0.6-1.6,0.6-2.4c0-1.4-0.5-2.5-1.4-3.5C152.5,254.9,151.4,254.5,150.1,254.5z"/>
		<path class="st1" d="M159.3,253.3h1.6v2.2c0.6-0.8,1.3-1.5,2.1-1.9c0.8-0.4,1.6-0.6,2.5-0.6c0.9,0,1.7,0.2,2.4,0.7
			s1.2,1.1,1.6,1.9s0.5,2,0.5,3.6v6.2h-1.6v-5.8c0-1.4-0.1-2.3-0.2-2.8c-0.2-0.8-0.5-1.4-1-1.8c-0.5-0.4-1.2-0.6-2-0.6
			c-0.9,0-1.8,0.3-2.5,0.9c-0.7,0.6-1.2,1.4-1.5,2.3c-0.1,0.6-0.2,1.7-0.2,3.3v4.4h-1.6V253.3z"/>
		<path class="st1" d="M189.6,261.3l1.3,0.7c-0.4,0.8-0.9,1.5-1.5,2c-0.6,0.5-1.2,0.9-1.9,1.2s-1.5,0.4-2.4,0.4
			c-2,0-3.5-0.6-4.6-1.9c-1.1-1.3-1.7-2.8-1.7-4.4c0-1.5,0.5-2.9,1.4-4.1c1.2-1.5,2.8-2.3,4.8-2.3c2.1,0,3.7,0.8,4.9,2.3
			c0.9,1.1,1.3,2.5,1.3,4.1h-10.9c0,1.4,0.5,2.6,1.3,3.5c0.9,0.9,1.9,1.3,3.2,1.3c0.6,0,1.2-0.1,1.8-0.3s1.1-0.5,1.5-0.9
			C188.7,262.7,189.2,262.1,189.6,261.3z M189.6,258.1c-0.2-0.8-0.5-1.5-0.9-2c-0.4-0.5-0.9-0.9-1.6-1.2c-0.7-0.3-1.3-0.5-2.1-0.5
			c-1.2,0-2.2,0.4-3.1,1.1c-0.6,0.6-1.1,1.4-1.4,2.5H189.6z"/>
		<path class="st1" d="M200.3,254.6l-1,1c-0.8-0.8-1.6-1.2-2.4-1.2c-0.5,0-0.9,0.2-1.3,0.5s-0.5,0.7-0.5,1.2c0,0.4,0.1,0.8,0.4,1.1
			c0.3,0.4,0.9,0.8,1.9,1.3c1.2,0.6,1.9,1.2,2.4,1.7c0.4,0.6,0.6,1.2,0.6,1.9c0,1-0.3,1.8-1,2.5c-0.7,0.7-1.6,1-2.6,1
			c-0.7,0-1.4-0.2-2-0.5s-1.2-0.7-1.6-1.3l1-1.1c0.8,0.9,1.6,1.3,2.5,1.3c0.6,0,1.2-0.2,1.6-0.6c0.4-0.4,0.7-0.9,0.7-1.4
			c0-0.4-0.1-0.8-0.4-1.2c-0.3-0.3-0.9-0.8-2-1.3c-1.1-0.6-1.8-1.1-2.2-1.7c-0.4-0.5-0.6-1.2-0.6-1.9c0-0.9,0.3-1.7,0.9-2.3
			c0.6-0.6,1.4-0.9,2.4-0.9C198.1,252.9,199.2,253.5,200.3,254.6z"/>
		<path class="st1" d="M203.1,253.3h1.6v2.2c0.6-0.8,1.3-1.5,2.1-1.9s1.7-0.6,2.7-0.6c1.7,0,3.2,0.6,4.4,1.9
			c1.2,1.2,1.8,2.7,1.8,4.5c0,1.8-0.6,3.3-1.8,4.5c-1.2,1.2-2.7,1.9-4.4,1.9c-1,0-1.8-0.2-2.7-0.6s-1.5-1-2.2-1.8v6.5h-1.6V253.3z
			 M209.3,254.4c-1.3,0-2.5,0.5-3.4,1.4s-1.4,2.1-1.4,3.5c0,0.9,0.2,1.7,0.6,2.5c0.4,0.7,1,1.3,1.8,1.7c0.8,0.4,1.6,0.6,2.4,0.6
			c0.8,0,1.6-0.2,2.4-0.6c0.7-0.4,1.3-1,1.8-1.8s0.7-1.6,0.7-2.4c0-0.9-0.2-1.7-0.6-2.4c-0.4-0.8-1-1.4-1.7-1.8
			C211,254.7,210.2,254.4,209.3,254.4z"/>
		<path class="st1" d="M230.7,253.3v12.1h-1.5v-2.1c-0.7,0.8-1.4,1.4-2.2,1.8c-0.8,0.4-1.7,0.6-2.7,0.6c-1.7,0-3.2-0.6-4.4-1.9
			c-1.2-1.2-1.8-2.8-1.8-4.5c0-1.7,0.6-3.2,1.8-4.5c1.2-1.2,2.7-1.9,4.4-1.9c1,0,1.9,0.2,2.7,0.6c0.8,0.4,1.5,1.1,2.1,1.9v-2.2
			H230.7z M224.5,254.4c-0.9,0-1.7,0.2-2.4,0.6c-0.7,0.4-1.3,1-1.8,1.8c-0.4,0.8-0.6,1.6-0.6,2.4c0,0.9,0.2,1.7,0.7,2.4
			s1,1.4,1.8,1.8c0.7,0.4,1.5,0.6,2.4,0.6c0.9,0,1.7-0.2,2.4-0.6c0.8-0.4,1.3-1,1.8-1.7c0.4-0.7,0.6-1.6,0.6-2.5
			c0-1.4-0.5-2.6-1.4-3.5S225.8,254.4,224.5,254.4z"/>
		<path class="st1" d="M234.2,253.3h1.6v2.2c0.6-0.8,1.3-1.5,2.1-1.9c0.8-0.4,1.6-0.6,2.5-0.6c0.9,0,1.7,0.2,2.4,0.7
			c0.7,0.5,1.2,1.1,1.6,1.9c0.3,0.8,0.5,2,0.5,3.6v6.2h-1.6v-5.8c0-1.4-0.1-2.3-0.2-2.8c-0.2-0.8-0.5-1.4-1-1.8
			c-0.5-0.4-1.2-0.6-2-0.6c-0.9,0-1.8,0.3-2.5,0.9c-0.7,0.6-1.2,1.4-1.5,2.3c-0.1,0.6-0.2,1.7-0.2,3.3v4.4h-1.6V253.3z M242.7,248.7
			l0.8,1.1c-0.5,0.4-1,0.7-1.4,0.8s-0.8,0.2-1.2,0.2c-0.5,0-1.1-0.1-1.6-0.4c-0.5-0.2-0.8-0.4-0.9-0.4c-0.2-0.1-0.4-0.1-0.6-0.1
			c-0.3,0-0.5,0-0.7,0.1s-0.6,0.3-1,0.6l-0.7-1.1c0.7-0.7,1.5-1.1,2.5-1.1c0.5,0,1,0.2,1.7,0.5c0.6,0.3,1.1,0.4,1.5,0.4
			C241.4,249.4,242,249.2,242.7,248.7z"/>
		<path class="st1" d="M253.8,252.9c1.9,0,3.4,0.7,4.6,2c1.1,1.2,1.7,2.7,1.7,4.4c0,1.7-0.6,3.2-1.8,4.4c-1.2,1.3-2.7,1.9-4.5,1.9
			c-1.9,0-3.4-0.6-4.6-1.9c-1.2-1.3-1.8-2.7-1.8-4.4c0-1.7,0.6-3.1,1.7-4.4C250.4,253.6,251.9,252.9,253.8,252.9z M253.8,254.5
			c-1.3,0-2.4,0.5-3.3,1.4c-0.9,1-1.4,2.1-1.4,3.5c0,0.9,0.2,1.7,0.6,2.4c0.4,0.8,1,1.3,1.7,1.8c0.7,0.4,1.5,0.6,2.4,0.6
			c0.9,0,1.7-0.2,2.4-0.6c0.7-0.4,1.3-1,1.7-1.8c0.4-0.8,0.6-1.6,0.6-2.4c0-1.4-0.5-2.5-1.4-3.5
			C256.2,254.9,255.1,254.5,253.8,254.5z"/>
		<path class="st1" d="M262.8,248.6h1.6v16.8h-1.6V248.6z"/>
		<path class="st1" d="M279.6,253.3v12.1h-1.5v-2.1c-0.7,0.8-1.4,1.4-2.2,1.8s-1.7,0.6-2.7,0.6c-1.7,0-3.2-0.6-4.4-1.9
			c-1.2-1.2-1.8-2.8-1.8-4.5c0-1.7,0.6-3.2,1.8-4.5c1.2-1.2,2.7-1.9,4.4-1.9c1,0,1.9,0.2,2.7,0.6c0.8,0.4,1.5,1.1,2.1,1.9v-2.2
			H279.6z M273.4,254.4c-0.9,0-1.7,0.2-2.4,0.6s-1.3,1-1.7,1.8c-0.4,0.8-0.7,1.6-0.7,2.4c0,0.9,0.2,1.7,0.7,2.4
			c0.4,0.8,1,1.4,1.8,1.8c0.7,0.4,1.5,0.6,2.4,0.6c0.9,0,1.7-0.2,2.4-0.6c0.8-0.4,1.3-1,1.8-1.7c0.4-0.7,0.6-1.6,0.6-2.5
			c0-1.4-0.5-2.6-1.4-3.5S274.7,254.4,273.4,254.4z"/>
		<path class="st1" d="M301.5,248.6v16.8h-1.5v-2.1c-0.7,0.8-1.4,1.4-2.2,1.8s-1.7,0.6-2.7,0.6c-1.7,0-3.2-0.6-4.4-1.9
			c-1.2-1.2-1.8-2.8-1.8-4.5c0-1.7,0.6-3.2,1.8-4.5c1.2-1.2,2.7-1.9,4.4-1.9c1,0,1.9,0.2,2.7,0.6c0.8,0.4,1.5,1.1,2.1,1.9v-6.9
			H301.5z M295.3,254.4c-0.9,0-1.7,0.2-2.4,0.6c-0.7,0.4-1.3,1-1.8,1.8c-0.4,0.8-0.6,1.6-0.6,2.4c0,0.9,0.2,1.7,0.7,2.4
			s1,1.4,1.8,1.8c0.7,0.4,1.5,0.6,2.4,0.6c0.9,0,1.7-0.2,2.4-0.6c0.8-0.4,1.3-1,1.8-1.7c0.4-0.7,0.6-1.6,0.6-2.5
			c0-1.4-0.5-2.6-1.4-3.5S296.6,254.4,295.3,254.4z"/>
		<path class="st1" d="M315.2,261.3l1.3,0.7c-0.4,0.8-0.9,1.5-1.5,2c-0.6,0.5-1.2,0.9-1.9,1.2s-1.5,0.4-2.4,0.4
			c-2,0-3.5-0.6-4.6-1.9c-1.1-1.3-1.7-2.8-1.7-4.4c0-1.5,0.5-2.9,1.4-4.1c1.2-1.5,2.8-2.3,4.8-2.3c2.1,0,3.7,0.8,4.9,2.3
			c0.9,1.1,1.3,2.5,1.3,4.1H306c0,1.4,0.5,2.6,1.3,3.5s1.9,1.3,3.2,1.3c0.6,0,1.2-0.1,1.8-0.3c0.6-0.2,1.1-0.5,1.5-0.9
			C314.3,262.7,314.7,262.1,315.2,261.3z M315.2,258.1c-0.2-0.8-0.5-1.5-0.9-2c-0.4-0.5-0.9-0.9-1.6-1.2c-0.7-0.3-1.3-0.5-2.1-0.5
			c-1.2,0-2.2,0.4-3.1,1.1c-0.6,0.6-1.1,1.4-1.4,2.5H315.2z"/>
	</g>
	<g class="st0">
		<path class="st1" d="M334.8,253.3h3v10.4c0,2-0.4,3.6-1.2,4.5c-1.1,1.3-2.8,2-5,2c-1.2,0-2.2-0.1-3-0.4c-0.8-0.3-1.5-0.7-2-1.3
			c-0.6-0.6-1-1.3-1.2-2.1h3.3c0.3,0.3,0.7,0.6,1.1,0.8c0.5,0.2,1,0.3,1.7,0.3c0.8,0,1.5-0.1,2-0.4c0.5-0.3,0.8-0.6,1.1-1
			c0.2-0.4,0.3-1.1,0.3-2.1c-0.5,0.5-1.1,0.9-1.7,1.2c-0.6,0.2-1.2,0.4-2,0.4c-1.6,0-3-0.6-4.1-1.8s-1.7-2.7-1.7-4.4
			c0-1.9,0.6-3.5,1.8-4.6c1.1-1.1,2.4-1.6,3.8-1.6c0.7,0,1.4,0.1,2,0.4c0.6,0.3,1.2,0.7,1.9,1.3V253.3z M331.7,255.8
			c-1,0-1.7,0.3-2.4,1c-0.6,0.6-0.9,1.4-0.9,2.4c0,1,0.3,1.8,1,2.5s1.4,1,2.4,1c0.9,0,1.7-0.3,2.3-0.9c0.6-0.6,0.9-1.5,0.9-2.5
			c0-1-0.3-1.8-0.9-2.5C333.5,256.1,332.7,255.8,331.7,255.8z"/>
		<path class="st1" d="M342.1,248.3c0.5,0,1,0.2,1.4,0.6s0.6,0.9,0.6,1.4c0,0.5-0.2,1-0.6,1.4c-0.4,0.4-0.8,0.6-1.4,0.6
			c-0.5,0-1-0.2-1.4-0.6c-0.4-0.4-0.6-0.9-0.6-1.4c0-0.5,0.2-1,0.6-1.4C341.1,248.5,341.6,248.3,342.1,248.3z M340.6,253.3h3v12.1
			h-3V253.3z"/>
		<path class="st1" d="M346.4,253.3h3v1.4c0.5-0.6,1.1-1,1.7-1.3c0.6-0.3,1.3-0.4,2.1-0.4c0.8,0,1.4,0.2,2,0.6
			c0.6,0.4,1.1,0.9,1.5,1.6c0.5-0.7,1.1-1.3,1.8-1.6c0.7-0.4,1.5-0.6,2.3-0.6c0.9,0,1.6,0.2,2.3,0.6c0.7,0.4,1.1,0.9,1.4,1.6
			c0.3,0.6,0.4,1.7,0.4,3.1v7.1h-3.1v-6.1c0-1.4-0.2-2.3-0.5-2.8c-0.3-0.5-0.9-0.7-1.5-0.7c-0.5,0-1,0.1-1.4,0.4
			c-0.4,0.3-0.7,0.7-0.9,1.2c-0.2,0.5-0.3,1.4-0.3,2.5v5.5h-3.1v-5.9c0-1.1-0.1-1.9-0.2-2.4c-0.2-0.5-0.4-0.8-0.7-1.1
			c-0.3-0.2-0.7-0.4-1.2-0.4c-0.5,0-1,0.1-1.4,0.5c-0.4,0.3-0.7,0.7-0.9,1.3c-0.2,0.5-0.3,1.4-0.3,2.6v5.4h-3V253.3z"/>
		<path class="st1" d="M367.8,253.3h3v1.2c0.7-0.6,1.3-1,1.9-1.2c0.6-0.2,1.1-0.3,1.7-0.3c1.2,0,2.2,0.4,3.1,1.3
			c0.7,0.7,1.1,1.8,1.1,3.2v8h-3v-5.3c0-1.4-0.1-2.4-0.2-2.9c-0.1-0.5-0.4-0.8-0.7-1.1c-0.3-0.2-0.7-0.4-1.2-0.4
			c-0.6,0-1.1,0.2-1.6,0.6c-0.4,0.4-0.7,1-0.9,1.7c-0.1,0.4-0.1,1.2-0.1,2.5v4.9h-3V253.3z"/>
		<path class="st1" d="M390.4,253.3h3v12.1h-3v-1.3c-0.6,0.6-1.2,1-1.8,1.2c-0.6,0.2-1.2,0.4-1.9,0.4c-1.6,0-2.9-0.6-4.1-1.8
			s-1.7-2.7-1.7-4.5c0-1.9,0.6-3.4,1.7-4.6c1.1-1.2,2.4-1.8,4-1.8c0.7,0,1.4,0.1,2,0.4s1.2,0.7,1.8,1.2V253.3z M387.2,255.7
			c-0.9,0-1.7,0.3-2.3,1c-0.6,0.7-0.9,1.5-0.9,2.6c0,1,0.3,1.9,0.9,2.6s1.4,1,2.3,1c1,0,1.7-0.3,2.4-1c0.6-0.7,0.9-1.5,0.9-2.6
			c0-1.1-0.3-1.9-0.9-2.6S388.2,255.7,387.2,255.7z"/>
		<path class="st1" d="M403.9,254.9l-1.9,1.9c-0.8-0.8-1.5-1.1-2.1-1.1c-0.3,0-0.6,0.1-0.8,0.2c-0.2,0.1-0.3,0.3-0.3,0.5
			c0,0.2,0.1,0.3,0.2,0.5c0.1,0.1,0.4,0.3,0.9,0.6l1.1,0.6c1.2,0.6,2,1.2,2.4,1.8c0.4,0.6,0.7,1.3,0.7,2.1c0,1.1-0.4,2-1.2,2.7
			c-0.8,0.7-1.8,1.1-3.2,1.1c-1.8,0-3.2-0.7-4.2-2.1l1.9-2c0.4,0.4,0.8,0.8,1.3,1c0.5,0.3,0.9,0.4,1.3,0.4c0.4,0,0.7-0.1,1-0.3
			c0.2-0.2,0.4-0.4,0.4-0.7c0-0.5-0.4-0.9-1.3-1.4l-1-0.5c-2-1-2.9-2.2-2.9-3.7c0-1,0.4-1.8,1.1-2.5c0.7-0.7,1.7-1,2.8-1
			c0.8,0,1.5,0.2,2.2,0.5S403.4,254.3,403.9,254.9z"/>
		<path class="st1" d="M407.7,248.3c0.5,0,1,0.2,1.4,0.6s0.6,0.9,0.6,1.4c0,0.5-0.2,1-0.6,1.4s-0.8,0.6-1.4,0.6
			c-0.5,0-1-0.2-1.4-0.6c-0.4-0.4-0.6-0.9-0.6-1.4c0-0.5,0.2-1,0.6-1.4C406.7,248.5,407.2,248.3,407.7,248.3z M406.2,253.3h3v12.1
			h-3V253.3z"/>
		<path class="st1" d="M420.9,253.3h3v12.1h-3v-1.3c-0.6,0.6-1.2,1-1.8,1.2c-0.6,0.2-1.2,0.4-1.9,0.4c-1.6,0-2.9-0.6-4.1-1.8
			s-1.7-2.7-1.7-4.5c0-1.9,0.6-3.4,1.7-4.6c1.1-1.2,2.4-1.8,4-1.8c0.7,0,1.4,0.1,2,0.4s1.2,0.7,1.8,1.2V253.3z M417.7,255.7
			c-0.9,0-1.7,0.3-2.3,1c-0.6,0.7-0.9,1.5-0.9,2.6c0,1,0.3,1.9,0.9,2.6s1.4,1,2.3,1c1,0,1.7-0.3,2.4-1c0.6-0.7,0.9-1.5,0.9-2.6
			c0-1.1-0.3-1.9-0.9-2.6S418.7,255.7,417.7,255.7z"/>
	</g>
	<path class="st1" d="M306.7,195.7c16.9,0,33.1,0,49.6,0c0.1,0.8,0.2,1.4,0.3,2.1c0.3,1.4,0.5,2.9,1,4.3c1.1,2.9,3.3,4.4,6.3,4.6
		c1.1,0.1,2.3,0,3.4-0.2c3.4-0.5,5.5-2.5,6.1-5.9c0.4-1.9,0.8-3.9,0.8-5.9c0.1-6,0-11.9,0-18.3c-0.9,0.7-1.6,1.2-2.4,1.8
		c-5.9,4.8-12.5,8.2-20,9.4c-8.6,1.3-17.2,0.7-25.3-2.8c-10.4-4.5-16.5-12.4-18.2-23.6c-0.8-5.6-1.4-11.2-1.5-16.8
		c-0.2-21.7-0.1-43.4,0-65.1c0-7.5,0.8-14.9,3.1-22.1c4-12.4,13.1-19.7,26.1-20.8c5.2-0.5,10.4-0.3,15.5,0.9
		c7.9,1.9,14.3,6.1,19.6,12.1c0.6,0.6,1.2,1.3,1.8,1.9c0,0.1,0.2,0,0.5,0.1c1.2-4,2.4-8,3.6-12.1c15.8,0,31.5,0,47.4,0
		c0.1,0.8,0.2,1.6,0.2,2.3c0,45.7,0,91.5-0.1,137.2c0,7-0.5,14-0.9,21.1c-0.2,4.1-1.4,7.8-3.4,11.4c-5.4,9.6-13.4,16-23.5,19.9
		c-7.1,2.7-14.5,4.3-22,4.7c-6.3,0.4-12.7,0.6-19,0.5c-9.6-0.2-18.9-1.9-28-5.3c-11.8-4.5-18.1-13.2-20.1-25.4
		C307.3,202.4,307.1,199.2,306.7,195.7z M358.1,112.7c0,0-0.1,0-0.1,0c0,6.8,0,13.5,0,20.3c0,5,0.1,10.1,0.3,15.1
		c0.1,2.1,0.5,4.1,0.9,6.1c0.4,1.8,1.6,3,3.3,3.7c4.6,1.7,9.1-0.5,9.9-5.4c0.6-3.7,1-7.4,1-11.1c0.1-17.6,0.1-35.2,0.1-52.8
		c0-3.8,0.1-7.6-0.1-11.4c-0.1-2.5-0.5-5-1-7.5c-0.4-1.9-1.8-3.2-3.6-3.7c-4.6-1.3-8.4,0.7-9.6,5.4c-0.7,2.8-1,5.7-1,8.5
		C358,90.8,358.1,101.8,358.1,112.7z M243,137.4c16.3,0,32.1,0,48.2,0c0.1,0.8,0.2,1.4,0.2,2.1c-0.1,8-0.2,16-0.5,23.9
		c-0.6,20.3-15.5,38.1-32,43.5c-5.1,1.7-10.4,2.8-15.8,3.1c-13.9,1-27.6,0.1-40.6-5.5c-15.5-6.8-24.4-18.7-27-35.3
		c-1-6.1-1.4-12.4-1.5-18.6c-0.2-19.4-0.1-38.7,0-58.1c0.1-7.4,1-14.7,2.9-21.9c3.6-13.8,12.1-23.3,25.1-29
		c10.5-4.6,21.5-6,32.8-5.5c7,0.3,13.8,1.2,20.5,3.3c5.2,1.6,10,4,14.5,7c10.4,7.1,16.5,17.1,19.1,29.3c1.8,8.4,2.5,16.8,2.5,25.3
		c0.1,7.5,0,15.1,0,22.7c0,0.6-0.1,1.2-0.1,2.1c-1.1,0.1-2.2,0.2-3.3,0.2c-19.8,0-39.6,0-59.4,0c-1.1,0-2.2,0-3.4,0
		c-0.1,0.9-0.3,1.5-0.3,2.1c0.1,13.7,0.2,27.4,0.3,41.1c0,1.7,0.3,3.5,0.6,5.2c0.7,3.9,2.6,5.8,6,6.2c4.4,0.5,8-1.1,9.2-4.7
		c0.9-2.7,1.5-5.6,1.6-8.4c0.3-8.9,0.3-17.9,0.4-26.8C243,139.8,243,138.7,243,137.4z M239.9,98.7c0.1-0.7,0.2-1.1,0.2-1.6
		c0-6.5,0-13-0.1-19.5c0-2.2-0.4-4.5-0.9-6.7c-0.8-3.7-3-5.3-6.6-5.2c-4.3,0.2-6.2,1.7-6.7,5.7c-1.1,8.7-0.8,17.5-0.8,26.2
		c0,0.3,0.2,0.6,0.3,1.1C230.2,98.7,235,98.7,239.9,98.7z M153.4,187.4c0-6.6,0-13.2,0-19.8c0-6.5,0-13,0-19.5c0-6.5,0-13,0-19.5
		c0-6.5,0-13,0-19.5c0-6.6,0-13.2,0-19.8c0-6.5,0-12.9,0-19.7c4.2,0,8.1,0,11.9,0c0-8.9,0-17.6,0-26.4c-2.5,0-4.9,0-7.2,0
		c-2.3,0-4.7,0-7,0c-2.3,0-4.6,0.2-7-0.2c0-2.9-0.2-5.5,0-8.1c0.3-4.4,2-6,6.3-6.4c3.5-0.3,7.1-0.4,10.6-0.6c1.4-0.1,2.7,0,4.2,0
		c0-8.8,0-17.2,0-25.9c-4.2,0-8.3,0-12.4,0c-8.3,0-16.7-0.1-24.9,1c-5.6,0.8-11.1,2.2-15.9,5.4c-5.4,3.6-8.6,8.5-9.1,15
		c-0.3,3.6-0.5,7.3-0.6,10.9c-0.1,2.8-0.2,5.7-0.2,8.8c-3.6,0-6.9,0-10.3,0c0,8.9,0,17.6,0,26.5c3.5,0,6.8,0,10.4,0
		c0,1.6,0,2.9,0,4.2c0,43.1,0,86.3,0,129.4c0,1.3,0.1,2.5,0.2,3.9c17,0,33.7,0,50.9,0C153.4,200.4,153.4,193.9,153.4,187.4z
		 M1.2,206.9c16.8,0,33.4,0,50.2,0c0-1.2,0-2.2,0-3.3c0-22.2-0.1-44.4,0.1-66.6c0-7.6,0.5-15.3,1-22.9c0.5-7.7,4.7-12.6,11.8-15.3
		c0.7-0.2,1.3-0.4,2-0.6c3.9-1.1,8-1.5,12.1-1.6c0.9,0,1.8-0.1,2.8-0.2c0.1-0.9,0.2-1.5,0.2-2.1c0-17.9,0-35.8,0-53.6
		c0-0.7-0.2-1.5-0.3-2.2c-0.6,0-1,0-1.3,0c-0.4,0-0.9,0-1.3,0.1c-7.1,1.1-13.2,4.1-18.3,9.1c-3.8,3.7-6.7,7.9-9.2,12.6
		c-0.3,0.6-0.3,1.6-1.7,1.5c0-6.8,0-13.5,0-20.6c-16.1,0-32,0-48.1,0C1.2,96.7,1.2,151.8,1.2,206.9z"/>
</g>
</svg>
