<?xml version="1.0" encoding="utf-8"?>
<!-- Generator: Adobe Illustrator 27.1.1, SVG Export Plug-In . SVG Version: 6.00 Build 0)  -->
<svg version="1.1" id="Capa_1" xmlns="http://www.w3.org/2000/svg" xmlns:xlink="http://www.w3.org/1999/xlink" x="0px" y="0px"
	 viewBox="0 0 210.2 115.3" style="enable-background:new 0 0 210.2 115.3;" xml:space="preserve">
<style type="text/css">
	.st0{fill:#FFFFFF;}
</style>
<text transform="matrix(1 0 0 1 -891.5427 186.9875)" style="font-family:'CenturyGothic'; font-size:22.7725px;">real federacion española de </text>
<text transform="matrix(1 0 0 1 -567.6727 186.9875)" style="font-family:'CenturyGothic-Bold'; font-size:22.7725px;">gimnasia</text>
<path class="st0" d="M150.2,94.8c8.1,0,16,0,23.9,0c0.1,0.4,0.1,0.7,0.2,1c0.1,0.7,0.2,1.4,0.5,2.1c0.5,1.4,1.6,2.1,3.1,2.2
	c0.5,0,1.1,0,1.6-0.1c1.6-0.3,2.6-1.2,2.9-2.8c0.2-0.9,0.4-1.9,0.4-2.8c0-2.9,0-5.7,0-8.8c-0.4,0.3-0.8,0.6-1.1,0.8
	c-2.8,2.3-6,4-9.6,4.5c-4.2,0.6-8.3,0.3-12.2-1.4c-5-2.2-8-6-8.8-11.4c-0.4-2.7-0.7-5.4-0.7-8.1c-0.1-10.4-0.1-20.9,0-31.3
	c0-3.6,0.4-7.2,1.5-10.6c1.9-6,6.3-9.5,12.6-10c2.5-0.2,5-0.2,7.5,0.4c3.8,0.9,6.9,2.9,9.5,5.8c0.3,0.3,0.6,0.6,0.9,0.9
	c0,0,0.1,0,0.3,0.1c0.6-1.9,1.2-3.9,1.7-5.8c7.6,0,15.2,0,22.8,0c0,0.4,0.1,0.7,0.1,1.1c0,22,0,44,0,66.1c0,3.4-0.3,6.8-0.4,10.1
	c-0.1,2-0.7,3.8-1.6,5.5c-2.6,4.6-6.4,7.7-11.3,9.6c-3.4,1.3-7,2.1-10.6,2.3c-3,0.2-6.1,0.3-9.1,0.2c-4.6-0.1-9.1-0.9-13.5-2.6
	c-5.7-2.2-8.7-6.3-9.7-12.2C150.5,98,150.4,96.5,150.2,94.8z M174.9,54.8C174.9,54.8,174.9,54.8,174.9,54.8
	c-0.1,3.3-0.1,6.5-0.1,9.8c0,2.4,0,4.8,0.1,7.3c0,1,0.2,2,0.4,3c0.2,0.9,0.8,1.5,1.6,1.8c2.2,0.8,4.4-0.3,4.8-2.6
	c0.3-1.8,0.5-3.6,0.5-5.3c0.1-8.5,0-17,0-25.4c0-1.8,0-3.7-0.1-5.5c-0.1-1.2-0.2-2.4-0.5-3.6c-0.2-0.9-0.8-1.5-1.8-1.8
	c-2.2-0.6-4.1,0.3-4.6,2.6c-0.3,1.3-0.5,2.7-0.5,4.1C174.9,44.3,174.9,49.5,174.9,54.8z M119.5,66.7c7.8,0,15.5,0,23.2,0
	c0,0.4,0.1,0.7,0.1,1c-0.1,3.8-0.1,7.7-0.2,11.5c-0.3,9.8-7.5,18.3-15.4,20.9c-2.5,0.8-5,1.3-7.6,1.5c-6.7,0.5-13.3,0.1-19.5-2.6
	c-7.5-3.2-11.8-9-13-17c-0.5-3-0.7-6-0.7-9c-0.1-9.3-0.1-18.6,0-28c0-3.6,0.5-7.1,1.4-10.5c1.7-6.6,5.8-11.2,12.1-14
	c5-2.2,10.3-2.9,15.8-2.6c3.3,0.1,6.6,0.6,9.9,1.6c2.5,0.8,4.8,1.9,7,3.4c5,3.4,8,8.2,9.2,14.1c0.9,4,1.2,8.1,1.2,12.2
	c0,3.6,0,7.3,0,10.9c0,0.3,0,0.6-0.1,1c-0.5,0-1.1,0.1-1.6,0.1c-9.5,0-19.1,0-28.6,0c-0.5,0-1.1,0-1.6,0c-0.1,0.5-0.1,0.7-0.1,1
	c0,6.6,0.1,13.2,0.1,19.8c0,0.8,0.1,1.7,0.3,2.5c0.3,1.9,1.2,2.8,2.9,3c2.1,0.2,3.8-0.5,4.4-2.3c0.4-1.3,0.7-2.7,0.8-4
	c0.1-4.3,0.1-8.6,0.2-12.9C119.5,67.8,119.5,67.3,119.5,66.7z M118.1,48.1c0-0.3,0.1-0.5,0.1-0.8c0-3.1,0-6.3-0.1-9.4
	c0-1.1-0.2-2.2-0.4-3.2c-0.4-1.8-1.4-2.6-3.2-2.5c-2.1,0.1-3,0.8-3.2,2.8c-0.5,4.2-0.4,8.4-0.4,12.6c0,0.2,0.1,0.3,0.1,0.5
	C113.4,48.1,115.7,48.1,118.1,48.1z M76.4,90.8c0-3.2,0-6.3,0-9.5c0-3.1,0-6.3,0-9.4c0-3.1,0-6.3,0-9.4c0-3.1,0-6.3,0-9.4
	c0-3.2,0-6.3,0-9.5c0-3.1,0-6.2,0-9.5c2,0,3.9,0,5.7,0c0-4.3,0-8.5,0-12.7c-1.2,0-2.3,0-3.5,0c-1.1,0-2.3,0-3.4,0
	c-1.1,0-2.2,0.1-3.4-0.1c0-1.4-0.1-2.6,0-3.9c0.2-2.1,1-2.9,3-3.1c1.7-0.1,3.4-0.2,5.1-0.3c0.7,0,1.3,0,2,0c0-4.2,0-8.3,0-12.5
	c-2,0-4,0-6,0c-4,0-8-0.1-12,0.5c-2.7,0.4-5.3,1.1-7.6,2.6c-2.6,1.7-4.1,4.1-4.4,7.2c-0.1,1.7-0.2,3.5-0.3,5.2
	c-0.1,1.4-0.1,2.7-0.1,4.3c-1.7,0-3.3,0-4.9,0c0,4.3,0,8.5,0,12.8c1.7,0,3.3,0,5,0c0,0.8,0,1.4,0,2c0,20.8,0,41.5,0,62.3
	c0,0.6,0.1,1.2,0.1,1.9c8.2,0,16.2,0,24.5,0C76.4,97,76.4,93.9,76.4,90.8z M3.1,100.1c8.1,0,16.1,0,24.2,0c0-0.6,0-1.1,0-1.6
	c0-10.7,0-21.4,0-32.1c0-3.7,0.2-7.3,0.5-11c0.2-3.7,2.3-6.1,5.7-7.4c0.3-0.1,0.6-0.2,1-0.3c1.9-0.5,3.9-0.7,5.8-0.8
	c0.4,0,0.9-0.1,1.3-0.1c0-0.4,0.1-0.7,0.1-1c0-8.6,0-17.2,0-25.8c0-0.4-0.1-0.7-0.1-1.1c-0.3,0-0.5,0-0.6,0c-0.2,0-0.4,0-0.6,0.1
	c-3.4,0.5-6.3,2-8.8,4.4c-1.8,1.8-3.2,3.8-4.4,6c-0.1,0.3-0.1,0.8-0.8,0.7c0-3.3,0-6.5,0-9.9c-7.8,0-15.4,0-23.1,0
	C3.1,47.1,3.1,73.6,3.1,100.1z"/>
</svg>
