<?xml version="1.0" encoding="utf-8"?>
<!-- Generator: Adobe Illustrator 27.1.1, SVG Export Plug-In . SVG Version: 6.00 Build 0)  -->
<svg version="1.1" id="Capa_1" xmlns="http://www.w3.org/2000/svg" xmlns:xlink="http://www.w3.org/1999/xlink" x="0px" y="0px"
	 viewBox="0 0 428.8 272" style="enable-background:new 0 0 428.8 272;" xml:space="preserve">
<style type="text/css">
	.st0{fill:#FFFFFF;}
	.st1{font-family:'CenturyGothic';}
	.st2{font-size:22.7725px;}
	.st3{font-family:'CenturyGothic-Bold';}
</style>
<g>
	<text transform="matrix(1 0 0 1 0.5016 265.3483)" class="st0 st1 st2">real federacion española de </text>
	<text transform="matrix(1 0 0 1 324.3716 265.3483)" class="st0 st3 st2">gimnasia</text>
	<path class="st0" d="M306.7,195.7c16.9,0,33.1,0,49.6,0c0.1,0.8,0.2,1.4,0.3,2.1c0.3,1.4,0.5,2.9,1,4.3c1.1,2.9,3.3,4.4,6.3,4.6
		c1.1,0.1,2.3,0,3.4-0.2c3.4-0.5,5.5-2.5,6.1-5.9c0.4-1.9,0.8-3.9,0.8-5.9c0.1-6,0-11.9,0-18.3c-0.9,0.7-1.6,1.2-2.4,1.8
		c-5.9,4.8-12.5,8.2-20,9.4c-8.6,1.3-17.2,0.7-25.3-2.8c-10.4-4.5-16.5-12.4-18.2-23.6c-0.8-5.6-1.4-11.2-1.5-16.8
		c-0.2-21.7-0.1-43.4,0-65.1c0-7.5,0.8-14.9,3.1-22.1c4-12.4,13.1-19.7,26.1-20.8c5.2-0.5,10.4-0.3,15.5,0.9
		c7.9,1.9,14.3,6.1,19.6,12.1c0.6,0.6,1.2,1.3,1.8,1.9c0,0.1,0.2,0,0.5,0.1c1.2-4,2.4-8,3.6-12.1c15.8,0,31.5,0,47.4,0
		c0.1,0.8,0.2,1.6,0.2,2.3c0,45.7,0,91.5-0.1,137.2c0,7-0.5,14-0.9,21.1c-0.2,4.1-1.4,7.8-3.4,11.4c-5.4,9.6-13.4,16-23.5,19.9
		c-7.1,2.7-14.5,4.3-22,4.7c-6.3,0.4-12.7,0.6-19,0.5c-9.6-0.2-18.9-1.9-28-5.3c-11.8-4.5-18.1-13.2-20.1-25.4
		C307.3,202.4,307.1,199.2,306.7,195.7z M358.1,112.7c0,0-0.1,0-0.1,0c0,6.8,0,13.5,0,20.3c0,5,0.1,10.1,0.3,15.1
		c0.1,2.1,0.5,4.1,0.9,6.1c0.4,1.8,1.6,3,3.3,3.7c4.6,1.7,9.1-0.5,9.9-5.4c0.6-3.7,1-7.4,1-11.1c0.1-17.6,0.1-35.2,0.1-52.8
		c0-3.8,0.1-7.6-0.1-11.4c-0.1-2.5-0.5-5-1-7.5c-0.4-1.9-1.8-3.2-3.6-3.7c-4.6-1.3-8.4,0.7-9.6,5.4c-0.7,2.8-1,5.7-1,8.5
		C358,90.8,358.1,101.8,358.1,112.7z M243,137.4c16.3,0,32.1,0,48.2,0c0.1,0.8,0.2,1.4,0.2,2.1c-0.1,8-0.2,16-0.5,23.9
		c-0.6,20.3-15.5,38.1-32,43.5c-5.1,1.7-10.4,2.8-15.8,3.1c-13.9,1-27.6,0.1-40.6-5.5c-15.5-6.8-24.4-18.7-27-35.3
		c-1-6.1-1.4-12.4-1.5-18.6c-0.2-19.4-0.1-38.7,0-58.1c0.1-7.4,1-14.7,2.9-21.9c3.6-13.8,12.1-23.3,25.1-29
		c10.5-4.6,21.5-6,32.8-5.5c7,0.3,13.8,1.2,20.5,3.3c5.2,1.6,10,4,14.5,7c10.4,7.1,16.5,17.1,19.1,29.3c1.8,8.4,2.5,16.8,2.5,25.3
		c0.1,7.5,0,15.1,0,22.7c0,0.6-0.1,1.2-0.1,2.1c-1.1,0.1-2.2,0.2-3.3,0.2c-19.8,0-39.6,0-59.4,0c-1.1,0-2.2,0-3.4,0
		c-0.1,0.9-0.3,1.5-0.3,2.1c0.1,13.7,0.2,27.4,0.3,41.1c0,1.7,0.3,3.5,0.6,5.2c0.7,3.9,2.6,5.8,6,6.2c4.4,0.5,8-1.1,9.2-4.7
		c0.9-2.7,1.5-5.6,1.6-8.4c0.3-8.9,0.3-17.9,0.4-26.8C243,139.8,243,138.7,243,137.4z M239.9,98.7c0.1-0.7,0.2-1.1,0.2-1.6
		c0-6.5,0-13-0.1-19.5c0-2.2-0.4-4.5-0.9-6.7c-0.8-3.7-3-5.3-6.6-5.2c-4.3,0.2-6.2,1.7-6.7,5.7c-1.1,8.7-0.8,17.5-0.8,26.2
		c0,0.3,0.2,0.6,0.3,1.1C230.2,98.7,235,98.7,239.9,98.7z M153.4,187.4c0-6.6,0-13.2,0-19.8c0-6.5,0-13,0-19.5c0-6.5,0-13,0-19.5
		c0-6.5,0-13,0-19.5c0-6.6,0-13.2,0-19.8c0-6.5,0-12.9,0-19.7c4.2,0,8.1,0,11.9,0c0-8.9,0-17.6,0-26.4c-2.5,0-4.9,0-7.2,0
		c-2.3,0-4.7,0-7,0c-2.3,0-4.6,0.2-7-0.2c0-2.9-0.2-5.5,0-8.1c0.3-4.4,2-6,6.3-6.4c3.5-0.3,7.1-0.4,10.6-0.6c1.4-0.1,2.7,0,4.2,0
		c0-8.8,0-17.2,0-25.9c-4.2,0-8.3,0-12.4,0c-8.3,0-16.7-0.1-24.9,1c-5.6,0.8-11.1,2.2-15.9,5.4c-5.4,3.6-8.6,8.5-9.1,15
		c-0.3,3.6-0.5,7.3-0.6,10.9c-0.1,2.8-0.2,5.7-0.2,8.8c-3.6,0-6.9,0-10.3,0c0,8.9,0,17.6,0,26.5c3.5,0,6.8,0,10.4,0
		c0,1.6,0,2.9,0,4.2c0,43.1,0,86.3,0,129.4c0,1.3,0.1,2.5,0.2,3.9c17,0,33.7,0,50.9,0C153.4,200.4,153.4,193.9,153.4,187.4z
		 M1.2,206.9c16.8,0,33.4,0,50.2,0c0-1.2,0-2.2,0-3.3c0-22.2-0.1-44.4,0.1-66.6c0-7.6,0.5-15.3,1-22.9c0.5-7.7,4.7-12.6,11.8-15.3
		c0.7-0.2,1.3-0.4,2-0.6c3.9-1.1,8-1.5,12.1-1.6c0.9,0,1.8-0.1,2.8-0.2c0.1-0.9,0.2-1.5,0.2-2.1c0-17.9,0-35.8,0-53.6
		c0-0.7-0.2-1.5-0.3-2.2c-0.6,0-1,0-1.3,0c-0.4,0-0.9,0-1.3,0.1c-7.1,1.1-13.2,4.1-18.3,9.1c-3.8,3.7-6.7,7.9-9.2,12.6
		c-0.3,0.6-0.3,1.6-1.7,1.5c0-6.8,0-13.5,0-20.6c-16.1,0-32,0-48.1,0C1.2,96.7,1.2,151.8,1.2,206.9z"/>
</g>
</svg>
