<?xml version="1.0" encoding="UTF-8"?>
<svg id="Capa_2" data-name="Capa 2" xmlns="http://www.w3.org/2000/svg" viewBox="0 0 44.35 14.03">
  <defs>
    <style>
      .cls-1 {
        fill: #fff;
      }
    </style>
  </defs>
  <g id="Capa_1-2" data-name="Capa 1">
    <g id="g14">
      <g id="g20">
        <path id="path22" class="cls-1" d="m7.86,13.51h-2.09c-3.18,0-5.77-2.59-5.77-5.77S2.59,1.98,5.77,1.98h2.09v3.16h-2.09c-1.44,0-2.6,1.17-2.6,2.6s1.17,2.6,2.6,2.6h2.09v3.16Z"/>
      </g>
      <g id="g24">
        <path id="path26" class="cls-1" d="m20.92,13.51h-2.09v-3.16h2.09c1.44,0,2.6-1.17,2.6-2.6s-1.17-2.6-2.6-2.6h-2.09V1.98h2.09c3.18,0,5.77,2.59,5.77,5.77s-2.59,5.76-5.77,5.76"/>
      </g>
      <g id="g28">
        <path id="path30" class="cls-1" d="m8.54,13.51h-.68v-3.16h.68c1.04,0,1.98-.56,2.44-1.46l1.92-3.73c1.01-1.96,3.02-3.17,5.25-3.17h.68v3.16h-.68c-1.04,0-1.98.56-2.44,1.45l-1.92,3.73c-1,1.96-3.01,3.18-5.25,3.18"/>
      </g>
      <g id="g32">
        <path id="path34" class="cls-1" d="m32.61.73l-.73-.73-.73.73.73.73.73-.73Zm1.01,1.29c-.34,0-.65.14-.87.36-.22-.22-.53-.36-.87-.36s-.65.14-.87.36c-.22-.22-.53-.36-.87-.36-.68,0-1.24.55-1.24,1.24v.58h.73v-.58c0-.28.22-.5.5-.5s.5.22.5.5v.58h.73v-.58c0-.28.22-.5.5-.5s.5.22.5.5v.58h.73v-.58c0-.28.22-.5.5-.5s.5.22.5.5v.58h.73v-.58c0-.68-.55-1.24-1.24-1.24m.53,3.11h-4.5v-.73h4.5v.73Z"/>
      </g>
      <g id="g36">
        <path id="path38" class="cls-1" d="m43.61,13.11c0,.1.09.19.24.19.12,0,.17-.06.17-.13,0-.06-.04-.11-.14-.12l-.17-.04c-.24-.06-.36-.2-.36-.38,0-.23.2-.42.48-.42.37,0,.49.23.5.37l-.29.06c0-.08-.06-.17-.21-.17-.09,0-.17.06-.17.13,0,.06.05.1.12.12l.18.04c.25.05.38.21.38.4,0,.21-.16.42-.5.42-.39,0-.52-.25-.53-.4l.29-.08Zm-.8-.37c0-.13-.09-.25-.29-.25-.18,0-.28.14-.29.25h.58Zm.32.42c-.06.22-.27.41-.58.41-.35,0-.66-.25-.66-.68s.3-.68.63-.68c.4,0,.63.25.63.67,0,.05,0,.1,0,.11h-.92c0,.17.15.29.32.29.16,0,.25-.08.29-.19l.29.07Zm-1.69-.92h.26v.31h-.26v.54c0,.12.05.15.15.15.04,0,.09,0,.11,0v.29s-.09.03-.19.03c-.25,0-.41-.15-.41-.4v-.6h-.23v-.31h.06c.14,0,.2-.09.2-.2v-.18h.32v.37h0Zm-.73.35s-.07,0-.11,0c-.18,0-.33.09-.33.36v.59h-.35v-1.28h.34v.19c.08-.17.26-.2.37-.2.03,0,.06,0,.08,0v.35Zm-1.4.3c0-.24-.16-.37-.32-.37s-.32.12-.32.37.16.37.32.37c.17,0,.32-.13.32-.37m.35,0c0,.4-.29.68-.68.68s-.68-.29-.68-.68.29-.68.68-.68.68.28.68.68m-2.19-.37c-.18,0-.32.14-.32.36s.14.36.32.36.32-.14.32-.36c0-.22-.14-.36-.32-.36m-.66,1.5v-1.78h.34v.16c.06-.1.2-.19.4-.19.37,0,.59.29.59.67s-.24.68-.6.68c-.18,0-.31-.07-.37-.16v.62h-.35Zm-.61-1.29c0-.13-.09-.25-.29-.25-.18,0-.28.14-.29.25h.58Zm.32.42c-.06.22-.27.41-.58.41-.35,0-.66-.25-.66-.68s.3-.68.63-.68c.4,0,.63.25.63.67,0,.05,0,.1,0,.11h-.92c0,.17.15.29.32.29.16,0,.25-.08.29-.19l.29.07Zm-2.38.03c.3,0,.55-.19.55-.59s-.25-.59-.55-.59h-.29v1.18h.29Zm-.65.34v-1.85h.66c.53,0,.91.35.91.93s-.39.92-.91.92h-.66Zm-1.28-.79c0-.13-.09-.25-.29-.25-.18,0-.28.14-.29.25h.58Zm.32.42c-.06.22-.27.41-.58.41-.35,0-.66-.25-.66-.68s.3-.68.63-.68c.4,0,.63.25.63.67,0,.05,0,.1,0,.11h-.92c0,.17.15.29.32.29.16,0,.25-.08.29-.19l.29.07Zm-2.17.09c.18,0,.32-.14.32-.37s-.14-.36-.32-.36-.32.13-.32.36c0,.23.13.37.32.37m.65.04c0,.09,0,.18,0,.23h-.33s-.01-.09-.01-.15c-.06.1-.19.18-.36.18-.37,0-.63-.29-.63-.68s.25-.67.62-.67c.22,0,.32.09.36.16v-.73h.35v1.66Zm9.05-3.32s-.07,0-.11,0c-.18,0-.33.09-.33.36v.59h-.35v-1.29h.34v.19c.08-.17.26-.2.37-.2.03,0,.06,0,.08,0v.35Zm-1.41.3c0-.24-.16-.37-.32-.37s-.32.12-.32.37.16.37.32.37.32-.13.32-.37m.35,0c0,.4-.29.68-.68.68s-.68-.29-.68-.68.29-.68.68-.68.68.29.68.68m-1.97-.65h.35v1.29h-.35v-1.29Zm.17-.63c.12,0,.22.09.22.22,0,.12-.09.21-.22.21-.12,0-.22-.09-.22-.21,0-.12.1-.22.22-.22m-.42.98s-.07,0-.11,0c-.18,0-.33.09-.33.36v.59h-.35v-1.29h.34v.19c.08-.17.26-.2.37-.2.03,0,.06,0,.08,0v.35Zm-1.4.15c0-.13-.09-.25-.29-.25-.18,0-.28.14-.29.25h.58Zm.32.42c-.06.22-.27.41-.58.41-.35,0-.66-.25-.66-.68s.3-.68.63-.68c.4,0,.63.25.63.67,0,.05,0,.1,0,.11h-.91c0,.17.15.29.32.29.16,0,.25-.08.29-.19l.28.07Zm-2.08-.63c-.18,0-.32.14-.32.36s.14.36.32.36.32-.14.32-.36-.14-.36-.32-.36m-.67,1.5v-1.78h.34v.16c.06-.1.2-.19.4-.19.37,0,.59.29.59.67s-.24.68-.6.68c-.18,0-.31-.07-.37-.16v.62h-.35Zm-.7-.63c-.07.12-.22.17-.35.17-.31,0-.49-.23-.49-.5v-.81h.35v.74c0,.14.07.26.24.26.15,0,.24-.11.24-.25v-.75h.35v1.05c0,.1,0,.19.01.23h-.33s-.01-.09-.01-.14m-1.42-1.17c-.02-.1-.1-.26-.34-.26-.17,0-.29.12-.29.24,0,.1.06.18.2.21l.26.05c.34.06.52.29.52.55,0,.29-.24.57-.67.57-.49,0-.7-.32-.73-.58l.33-.09c.01.18.14.35.4.35.19,0,.3-.09.3-.23,0-.11-.08-.19-.22-.22l-.26-.05c-.29-.06-.48-.25-.48-.53,0-.33.29-.58.65-.58.45,0,.62.27.66.48l-.33.1Zm8.17-1.93c0-.24-.16-.37-.32-.37s-.32.12-.32.37.16.37.32.37.32-.12.32-.37m.35,0c0,.4-.29.68-.68.68s-.68-.29-.68-.68.29-.68.68-.68.68.29.68.68m-1.8-1.28c.12,0,.22.09.22.22,0,.12-.09.21-.22.21-.12,0-.22-.09-.22-.21,0-.12.1-.22.22-.22m-.17.64h.35v1.4c0,.24-.15.42-.4.42-.1,0-.18-.02-.19-.03v-.29s.06.01.11.01c.11,0,.14-.06.14-.15v-1.37Zm-.62.5c0-.13-.09-.25-.29-.25-.18,0-.28.14-.29.25h.58Zm.32.42c-.06.22-.27.41-.58.41-.35,0-.66-.25-.66-.68s.3-.68.63-.68c.4,0,.63.25.63.67,0,.05,0,.1,0,.11h-.91c0,.17.15.29.32.29.16,0,.25-.08.29-.19l.28.07Zm-2.16-.05c0,.1.09.19.24.19.12,0,.17-.06.17-.13,0-.06-.04-.11-.14-.12l-.17-.04c-.24-.06-.36-.2-.36-.38,0-.23.2-.42.48-.42.37,0,.49.23.5.37l-.29.06c0-.08-.06-.17-.21-.17-.09,0-.17.06-.17.13,0,.06.05.1.12.12l.18.04c.25.05.38.21.38.4,0,.21-.16.42-.5.42-.39,0-.52-.25-.53-.4l.29-.08Zm-1.37.42h-.35v-1.28h.34v.16c.08-.14.23-.19.37-.19.32,0,.47.23.47.51v.81h-.35v-.75c0-.14-.07-.26-.24-.26-.15,0-.24.12-.24.27v.74h-.01Zm-.96-.64c0-.24-.16-.37-.32-.37s-.32.12-.32.37.16.37.32.37.32-.12.32-.37m.35,0c0,.4-.29.68-.68.68s-.68-.29-.68-.68.29-.68.68-.68.68.29.68.68m-3.29-.28c0-.59.45-.96.94-.96s.78.32.85.61l-.34.11c-.04-.18-.19-.37-.51-.37-.27,0-.57.2-.57.62,0,.4.27.61.58.61s.47-.21.52-.38l.34.1c-.07.29-.34.63-.86.63-.52,0-.95-.37-.95-.96"/>
      </g>
    </g>
  </g>
</svg>