<?xml version="1.0" encoding="UTF-8"?>
<svg id="Capa_2" data-name="Capa 2" xmlns="http://www.w3.org/2000/svg" viewBox="0 0 21.5 21.5">
  <defs>
    <style>
      .cls-1 {
        fill: none;
        stroke-linecap: round;
        stroke-linejoin: round;
        stroke-width: 1.5px;
      }

      .cls-1, .cls-2 {
        stroke: #b62a2a;
      }

      .cls-2 {
        fill: #b62a2a;
        isolation: isolate;
        opacity: .12;
        stroke-miterlimit: 10;
      }
    </style>
  </defs>
  <g id="Capa_1-2" data-name="Capa 1">
    <g>
      <path class="cls-2" d="m3.4,14.73l-.65-10.98h16l-.65,10.98c-.12,2.12-.19,3.18-.64,3.99-.4.71-1,1.28-1.73,1.63-.83.4-1.89.4-4.02.4h-1.93c-2.12,0-3.19,0-4.02-.4-.73-.36-1.34-.93-1.73-1.63-.45-.8-.51-1.86-.64-3.99Z"/>
      <path class="cls-1" d="m2.75,3.75l.65,10.98c.12,2.12.19,3.18.64,3.99.4.71,1,1.28,1.73,1.63.83.4,1.89.4,4.02.4h1.93c2.12,0,3.19,0,4.02-.4.73-.36,1.34-.93,1.73-1.63.45-.8.51-1.86.64-3.99l.65-10.98M2.75,3.75H.75m2,0h16m0,0h2m-6,0l-.45-1.36c-.2-.59-.3-.89-.48-1.1-.16-.19-.37-.34-.6-.43-.26-.1-.58-.1-1.2-.1h-2.54c-.62,0-.93,0-1.2.1-.23.09-.44.24-.6.43-.18.22-.28.51-.48,1.1l-.45,1.36m2,5v7m4-7v4"/>
    </g>
  </g>
</svg>