<?xml version="1.0" encoding="UTF-8"?>
<svg id="Capa_2" data-name="Capa 2" xmlns="http://www.w3.org/2000/svg" viewBox="0 0 255.84 364.06">
  <defs>
    <style>
      .cls-1 {
        fill: #2f384c;
      }
    </style>
  </defs>
  <g id="Capa_1-2" data-name="Capa 1">
    <g>
      <path class="cls-1" d="m38.78,241.77c9.44-.77,3.23,72.47,9.8,118.63.63,4.4-2.25,4.94-4.21,1.04-21.79-43.38-30.81-114.81-6.74-119.66.38-.08.77.02,1.15,0Z"/>
      <path class="cls-1" d="m175.73,212.76c-25.73,15.29-102.39,17.68-102.68,17.91-54.69,42.16,83.14,13.54,107.69-15.47,1.71-2.02-2.37-4-5.01-2.44Z"/>
      <path class="cls-1" d="m36.26,155.08c3.32,30.4,45.65,23.58,41.65-5.9-3.33-30.4-45.64-23.59-41.65,5.9Z"/>
      <path class="cls-1" d="m16.39,182.4c3.13,2.74,7.03,1.9,8.66-1.94,7.53-17.71-13.77-60.95-20.9-86.81-.44-1.59-1.9-4.11-2.43-.64-2.43,15.97-5.29,71.92,14.68,89.39Z"/>
      <path class="cls-1" d="m137.5,137.07c-15.38,28.19-48.58,42.35-78.67,52.66-.54.18-.83.69-.73,1.22,7.34,38.11,76.53-22.39,81.88-53.02.23-1.32-1.84-2.04-2.48-.86Z"/>
      <path class="cls-1" d="m3.71,73.56C31.35,25.76,77.41-5.07,134.02.69c84.86,9.08,148.98,97.88,110.27,179.03-14.08,30.29-38.7,54.46-66.06,72.95-8.72,6.06-18.78,11.8-28.14,16.84,6.35-4.23,14.01-9.43,20.14-13.97,27.79-20.74,53.54-46.52,67.33-78.8.32-.69,1.63-3.97,1.9-4.59.58-1.68,1.65-4.85,2.25-6.57,1.11-3.63,2.26-7.75,2.99-11.47,0,0,.81-3.86.81-3.86l.56-3.9C257.27,70.07,183.59,2.69,109.35,7.9,64.48,10.6,29.02,37.77,3.71,73.56h0Z"/>
    </g>
  </g>
</svg>