<?xml version="1.0" encoding="UTF-8"?>
<svg id="Capa_2" data-name="Capa 2" xmlns="http://www.w3.org/2000/svg" xmlns:xlink="http://www.w3.org/1999/xlink" viewBox="0 0 404.94 404.94">
  <defs>
    <style>
      .cls-1 {
        clip-path: url(#clippath-1);
      }

      .cls-2 {
        clip-path: url(#clippath);
      }

      .cls-3 {
        fill: none;
      }

      .cls-4 {
        fill: #2f384c;
      }
    </style>
    <clipPath id="clippath">
      <path class="cls-4" d="m259.5,381.83h0c2.84,0,5.14-2.93,5.14-6.53v-11.7c0-3.61-2.3-6.53-5.14-6.53h0c-2.84,0-5.14,2.93-5.14,6.53v11.7c0,3.61,2.3,6.53,5.14,6.53Z"/>
    </clipPath>
    <clipPath id="clippath-1">
      <path class="cls-4" d="m176.91,381.83h0c2.84,0,5.14-2.93,5.14-6.53v-11.7c0-3.61-2.3-6.53-5.14-6.53h0c-2.84,0-5.14,2.93-5.14,6.53v11.7c0,3.61,2.3,6.53,5.14,6.53Z"/>
    </clipPath>
  </defs>
  <g id="Capa_2-2" data-name="Capa 2">
    <g>
      <g>
        <g>
          <path class="cls-4" d="m259.5,381.83h0c2.84,0,5.14-2.93,5.14-6.53v-11.7c0-3.61-2.3-6.53-5.14-6.53h0c-2.84,0-5.14,2.93-5.14,6.53v11.7c0,3.61,2.3,6.53,5.14,6.53Z"/>
          <g class="cls-2">
            <rect class="cls-4" x="254.36" y="357.06" width="10.27" height="24.77"/>
          </g>
        </g>
        <g>
          <path class="cls-4" d="m176.91,381.83h0c2.84,0,5.14-2.93,5.14-6.53v-11.7c0-3.61-2.3-6.53-5.14-6.53h0c-2.84,0-5.14,2.93-5.14,6.53v11.7c0,3.61,2.3,6.53,5.14,6.53Z"/>
          <g class="cls-1">
            <rect class="cls-4" x="171.78" y="357.06" width="10.27" height="24.77"/>
          </g>
        </g>
        <path class="cls-4" d="m12.71,393.6l115.77-5.31,263.74-9.26s-309.83-6.7-336.27-2.32c-26.44,4.37-43.24,16.89-43.24,16.89Z"/>
        <circle id="circle3127" class="cls-4" cx="256.38" cy="221.6" r="21.6"/>
        <path id="path3129" class="cls-4" d="m276.14,250.85c13,2.32,4.75,26.43-2.41,52.29-5.13,18.68-10.41,38.48-13.32,46.35-.84,2.27-2.48,2.29-2.65.17-.64-7.96-.07-28.88.85-48.97,1.19-26.05,2.18-52.72,17.52-49.85h0Z"/>
        <path id="path3133" class="cls-4" d="m203.68,270.09c20.36,2.38,17.32-41.95,16.47-86.52-.63-34.68-.15-74.24-1.51-86.4-.26-2.35-1.97-2.79-2.63-.81-3.59,10.84-10.51,49.68-17.24,84.75-8.2,42.42-12.32,87.09,4.92,88.99Z"/>
        <path id="path3135" class="cls-4" d="m193.32,280.62c5.86,18.65-37.73,22.4-81.09,28.04-33.66,4.5-71.83,10.74-83.99,11.26-2.4.1-2.93-1.61-.66-2.68,10.8-5.12,46.39-16.97,78.48-28.08,39.72-13.86,82.35-24.24,87.25-8.53Z"/>
        <path class="cls-4" d="m188.45,308.03c-5.65,17.8-7.83,25.58-12.68,39.22-.66,1.87,1.56,3.98,2.44,2.49,5.28-8.86,17.1-26.52,26.52-50.3-4.54.75-13.75,4.29-16.28,8.58Z"/>
      </g>
      <rect class="cls-3" width="404.94" height="404.94"/>
    </g>
  </g>
</svg>