<?xml version="1.0" encoding="UTF-8"?>
<svg id="Capa_2" data-name="Capa 2" xmlns="http://www.w3.org/2000/svg" viewBox="0 0 19.31 33.39">
  <defs>
    <style>
      .cls-1 {
        fill: #fff;
        fill-rule: evenodd;
      }
    </style>
  </defs>
  <g id="Capa_1-2" data-name="Capa 1">
    <g>
      <path class="cls-1" d="m16.03,11.31c1.4,0,2.54,1.14,2.54,2.54s-1.14,2.54-2.54,2.54-2.54-1.14-2.54-2.54,1.14-2.54,2.54-2.54h0Zm0-.53c1.69,0,3.07,1.38,3.07,3.07s-1.38,3.07-3.07,3.07-3.07-1.38-3.07-3.07,1.38-3.07,3.07-3.07h0Z"/>
      <path class="cls-1" d="m9.59,11.31c1.4,0,2.54,1.14,2.54,2.54s-1.14,2.54-2.54,2.54-2.54-1.14-2.54-2.54,1.14-2.54,2.54-2.54h0Zm0-.53c1.69,0,3.07,1.38,3.07,3.07s-1.38,3.07-3.07,3.07-3.07-1.38-3.07-3.07,1.38-3.07,3.07-3.07h0Z"/>
      <path class="cls-1" d="m3.16,11.31c1.4,0,2.54,1.14,2.54,2.54s-1.14,2.54-2.54,2.54-2.54-1.14-2.54-2.54,1.14-2.54,2.54-2.54h0Zm0-.53c1.69,0,3.07,1.38,3.07,3.07s-1.38,3.07-3.07,3.07S.09,15.54.09,13.85s1.38-3.07,3.07-3.07h0Z"/>
      <path class="cls-1" d="m12.81,14.11c1.28,0,2.34.95,2.52,2.18.17.05.35.08.54.09-.14-1.57-1.46-2.8-3.06-2.8-.05,0-.11,0-.16,0,0,.09.01.17.01.26s0,.18-.01.27c.05,0,.1,0,.16,0h0Zm-.68-.45c-1.37.31-2.39,1.54-2.39,3,0,1.69,1.38,3.07,3.07,3.07,1.6,0,2.93-1.24,3.06-2.81-.18,0-.35-.03-.52-.07-.1,1.31-1.2,2.36-2.54,2.36s-2.54-1.14-2.54-2.54c0-1.16.78-2.14,1.85-2.45.02-.12.03-.24.03-.36,0-.06,0-.13,0-.19h0Z"/>
      <path class="cls-1" d="m6.38,14.11c1.28,0,2.34.95,2.52,2.18.17.05.35.08.54.09-.14-1.57-1.46-2.8-3.06-2.8-.05,0-.11,0-.16,0,0,.09.01.17.01.26s0,.18-.01.27c.05,0,.11,0,.16,0h0Zm-.68-.45c-1.37.31-2.39,1.54-2.39,3,0,1.69,1.38,3.07,3.07,3.07,1.6,0,2.93-1.24,3.06-2.81-.18,0-.35-.03-.52-.07-.1,1.31-1.2,2.36-2.54,2.36s-2.54-1.14-2.54-2.54c0-1.16.78-2.14,1.85-2.45.02-.12.03-.24.03-.36,0-.06,0-.13,0-.19h0Z"/>
      <path class="cls-1" d="m.03,22.05c.8.87,1.24,1.86.9,3.16,5.13-1.86,11.71-3,18.38-3.38-5.66-.87-13.34-1.22-19.28.22H.03Z"/>
      <path class="cls-1" d="m.05,30.21c.74.84,1.36,1.77.93,3.19,5.01-1.86,11.41-3.05,18.25-3.33-5.66-.97-12.71-1.26-19.18.14H.05Z"/>
      <path class="cls-1" d="m.01,26.13c.82.9,1.11,1.86.99,3.17,5.23-1.87,11.13-3,18.25-3.28-5.79-.9-12.82-1.42-19.23.1H.01Z"/>
      <path class="cls-1" d="m16.07.01c1.77,0,3.21,1.44,3.21,3.21s-1.44,3.21-3.21,3.21-3.21-1.44-3.21-3.21S14.3.01,16.07.01h0Zm0,.75c1.35,0,2.46,1.1,2.46,2.46s-1.1,2.46-2.46,2.46-2.46-1.1-2.46-2.46,1.1-2.46,2.46-2.46h0Z"/>
      <path class="cls-1" d="m5.23,3.24v1.5s-4.51,0-4.51,0v-1.5c0-1.37,1-2.48,2.26-2.48s2.26,1.12,2.26,2.48h0Zm0,2.23v.97h.72v-3.2c0-1.79-1.34-3.24-2.98-3.24S0,1.46,0,3.24v3.2h.72v-.97h4.51Z"/>
      <path class="cls-1" d="m9.41.75c1.36,0,2.46,1.11,2.46,2.47s-1.07,2.47-2.43,2.47h-1.9V.75h1.87Zm-2.59,4.95h-.35v.75h2.95c1.76,0,3.2-1.45,3.2-3.22s-1.45-3.22-3.22-3.22h-2.94v.75h.35v4.95Z"/>
    </g>
  </g>
</svg>