<?xml version="1.0" encoding="utf-8"?>
<!-- Generator: Adobe Illustrator 27.2.0, SVG Export Plug-In . SVG Version: 6.00 Build 0)  -->
<svg version="1.1" id="Capa_2_00000167384742097817386370000005055986052084455065_"
	 xmlns="http://www.w3.org/2000/svg" xmlns:xlink="http://www.w3.org/1999/xlink" x="0px" y="0px" viewBox="0 0 404.9 404.9"
	 style="enable-background:new 0 0 404.9 404.9;" xml:space="preserve">
<style type="text/css">
	.st0{fill:#2F384C;}
	.st1{fill:none;}
</style>
<g>
	<g>
		<path class="st0" d="M15.3,393.9l115.9-3l263.9-4c0,0-309.6-12.9-336.2-9S15.3,393.9,15.3,393.9z"/>
		<g>
			<circle id="circle3047-0-0" class="st0" cx="106.1" cy="140.7" r="19.8"/>
			<path class="st0" d="M54.6,149.8c-10.4,15.4-36.7,49.7-27.5,58.6c9.2,8.9,76.7,27.9,81,9.6c3.5-14.7-23.5-17.9-53.6-21.1
				c5.2-10.7,10.2-24.8,15.6-38.8c11.5-29.6,3-42.9,1.1-44C69.3,113,72.6,122.8,54.6,149.8L54.6,149.8z"/>
			<path class="st0" d="M227.7,355c-3.2-3.1-39.1-58-46-68.3c-10.5-15.6-15.1-22.9-26.4-38c-6.6-8.8-14-17.2-23.1-23.6
				c-3.5-2.4-7.4-4.4-11.4-5.6c-6.6-2-11.2,32,4.5,36.4c10.8,3.1,78.5,95.9,100.4,100.6C227.3,356.8,229.3,356.6,227.7,355
				L227.7,355z"/>
			<path class="st0" d="M128.5,178.6c-2.7,2.2-6.1-1-8.1-3.7c-2-2.6-1.8-5.5,0.1-7.9c23.6-29.7,22.5-73.9,21.9-86.6
				c0-1.3,1.6-0.6,2.2,0.1C152,88.7,160.7,151.8,128.5,178.6L128.5,178.6z"/>
			<path class="st0" d="M111,69.2c-1.1-1.4-1.7,0.2-1.7,1.1c-0.2,14.3-4.5,39.7,1.7,47c1.5,1.8,5.6,0.8,6.8-1.8
				C123.3,103,115.9,75.9,111,69.2z"/>
		</g>
		<g>
			<circle id="circle3047-0-0-2" class="st0" cx="263" cy="140.7" r="19.8"/>
			<path class="st0" d="M211.4,149.8c-10.4,15.4-36.7,49.7-27.5,58.6c9.2,8.9,76.7,27.9,81,9.6c3.5-14.7-23.5-17.9-53.6-21.1
				c5.2-10.7,10.2-24.8,15.6-38.8c11.4-29.6,3-42.9,1.1-44C226.1,113,229.5,122.8,211.4,149.8L211.4,149.8z"/>
			<path class="st0" d="M384.6,355c-3.2-3.1-39.1-58-46-68.3c-10.5-15.6-15.1-22.9-26.4-38c-6.6-8.8-14-17.2-23.1-23.6
				c-3.4-2.4-7.4-4.4-11.4-5.6c-6.6-2-11.2,32,4.5,36.4c10.8,3.1,78.5,95.9,100.3,100.6C384.1,356.8,386.2,356.6,384.6,355
				L384.6,355z"/>
			<path class="st0" d="M285.4,178.6c-2.7,2.2-6.1-1-8.1-3.7c-1.9-2.6-1.8-5.5,0.1-7.9c23.6-29.7,22.4-73.9,21.9-86.6
				c-0.1-1.3,1.6-0.6,2.2,0.1C308.9,88.7,317.6,151.8,285.4,178.6z"/>
			<path class="st0" d="M267.8,69.2c-1.1-1.4-1.7,0.2-1.7,1.1c-0.2,14.3-4.5,39.7,1.7,47c1.5,1.8,5.6,0.8,6.8-1.8
				C280.2,103,272.8,75.9,267.8,69.2z"/>
		</g>
	</g>
	<rect class="st1" width="404.9" height="404.9"/>
</g>
</svg>
