<?xml version="1.0" encoding="UTF-8"?>
<svg id="Capa_2" data-name="Capa 2" xmlns="http://www.w3.org/2000/svg" viewBox="0 0 379.51 236.34">
  <defs>
    <style>
      .cls-1 {
        fill: #2f384c;
      }
    </style>
  </defs>
  <g id="Capa_1-2" data-name="Capa 1">
    <g>
      <path class="cls-1" d="m0,236.34l115.77-5.31,263.74-9.26s-309.83-6.7-336.27-2.32C16.8,223.82,0,236.34,0,236.34Z"/>
      <path class="cls-1" d="m187.89,10.34c-3.72-2.69-8.12-4.74-12.51-6.11C163.72.62,151.54-.16,139.47.02c-20.61.31-41.25,1.03-61.81,2.44-13.59.93-27.07,2.21-40.63.05-3.61-.58-7.23-1.1-10.88-1.61-3.52-.49-4.06,1.98-1.86,3.03,6.59,3.16,13.17,6.36,19.94,9.1,11.52,4.68,23.51,7.7,36.11,7.55,13.78-.16,27.57-.34,41.35-.34,25.55,0,37.09,10.91,39.02,12.05,21.58,12.76,45.96-8.35,27.19-21.95Z"/>
      <path class="cls-1" d="m205.67,24.37c3.72-2.69,8.12-4.74,12.51-6.11,11.66-3.62,23.84-4.39,35.91-4.21,20.61.31,41.25,1.03,61.81,2.44,13.59.93,27.07,2.21,40.63.05,3.61-.58,7.23-1.1,10.88-1.61,3.52-.49,4.06,1.98,1.86,3.03-6.59,3.16-13.17,6.36-19.94,9.1-11.52,4.68-23.51,7.7-36.11,7.55-13.78-.16-27.57-.34-41.35-.34-25.55,0-37.09,10.91-39.02,12.05-21.58,12.76-45.96-8.35-27.19-21.95Z"/>
      <path class="cls-1" d="m146,82.74c-12.92-.04-23.01,9.87-23.05,22.65-.04,12.6,10.05,22.76,22.66,22.8,12.59.04,22.78-10.11,22.78-22.69,0-12.53-10.04-22.73-22.39-22.76Z"/>
      <path class="cls-1" d="m188.51,106.91c-2.16-3.18-6.73-.82-9.67,1.42-2.84,2.17-3.55,5.21-2.26,8.34,15.79,38.4,1.25,84.45-3.17,97.72-.44,1.31,1.54,1.07,2.37.55,10.2-6.38,38.48-70.06,12.74-108.02Z"/>
      <path class="cls-1" d="m165.7,134.03c-2.02-3.05-5.51-3.23-7.78-.37-10.48,13.25-2.46,54.78-2.41,78.33,0,1.45.66,3.92,1.91,1.1,5.76-12.95,21.14-59.66,8.28-79.07Z"/>
    </g>
  </g>
</svg>