<?xml version="1.0" encoding="UTF-8"?>
<svg id="Capa_2" data-name="Capa 2" xmlns="http://www.w3.org/2000/svg" viewBox="0 0 404.94 404.94">
  <defs>
    <style>
      .cls-1 {
        fill: none;
      }

      .cls-2 {
        fill: #2f384c;
      }
    </style>
  </defs>
  <g id="Capa_2-2" data-name="Capa 2">
    <g>
      <g>
        <path class="cls-2" d="m205.67,93.81c-4.2-.08-8.57.68-12.58,1.95-10.65,3.37-20.19,9.16-29.16,15.6-15.31,11-30.43,22.32-45.13,34.12-9.72,7.8-19.17,15.81-30.48,21.26-3.01,1.45-6,2.95-9.01,4.47-2.9,1.47-2.02,3.6.19,3.25,6.6-1.07,13.21-2.11,19.72-3.58,11.1-2.51,21.67-6.5,31.06-13.2,10.26-7.32,20.52-14.66,30.87-21.86,19.18-13.35,33.54-11.19,35.59-11.34,22.87-1.69,30.14-30.28,8.94-30.68Z"/>
        <path class="cls-2" d="m225.85,95.39c1.11-3.78,3.03-7.39,5.29-10.49,6.01-8.22,13.87-14.55,22.15-20.11,14.14-9.49,28.5-18.69,43.18-27.33,9.7-5.71,19.51-11.11,27.57-19.14,2.15-2.14,4.33-4.24,6.53-6.34s3.78-.43,2.84,1.4c-2.82,5.49-5.61,10.99-8.76,16.24-5.37,8.95-11.91,16.87-20.53,22.71-9.43,6.38-18.87,12.75-28.22,19.25-17.32,12.06-19.44,25.69-20.16,27.46-7.96,19.76-35.52,15.41-29.9-3.65Z"/>
        <circle id="circle3047-0" class="cls-2" cx="174.88" cy="344.84" r="19.83"/>
        <circle id="circle3047-0-0" class="cls-2" cx="250.76" cy="179.51" r="19.83"/>
        <path class="cls-2" d="m162.89,384.05c3.29-2.04,2.02-7.7.56-11.45-1.42-3.62-4.02-4.9-7.1-3.86-37.66,12.68-77.97,4.5-89.11-2.6-1.1-.7-1.26,1.64-.94,2.68,3.81,12.8,57.43,39.56,96.59,15.24Z"/>
        <path class="cls-2" d="m268.55,141.86c-3.03,2.41-1.11,7.88.78,11.44,1.83,3.43,4.57,4.4,7.5,3.01,35.93-16.98,76.92-13.55,88.81-7.8,1.17.57,1.06-1.77.63-2.77-5.28-12.26-61.65-32.6-97.71-3.88Z"/>
        <path class="cls-2" d="m218.35,347.92c1.68-2.06,2.96-4.5,3.81-6.94,2.26-6.47,2.74-13.23,2.63-19.92-.19-11.44-.64-22.88-1.52-34.29-.58-7.54-1.38-15.02-.03-22.54.36-2,.69-4.01,1-6.03s-1.23-2.25-1.89-1.03c-1.97,3.66-3.96,7.31-5.67,11.06-2.92,6.39-4.8,13.04-4.71,20.03.1,7.65.21,15.29.21,22.94,0,14.18-6.8,20.57-7.51,21.64-7.96,11.97,5.21,25.5,13.68,15.08Z"/>
        <path class="cls-2" d="m209.62,176.53c-1.68,2.06-2.96,4.5-3.81,6.94-2.26,6.47-2.74,13.23-2.63,19.92.19,11.44.64,22.88,1.52,34.29.58,7.54,1.38,15.02.03,22.54-.36,2-.69,4.01-1,6.03s1.23,2.25,1.89,1.03c1.97-3.66,3.96-7.31,5.67-11.06,2.92-6.39,4.8-13.04,4.71-20.03-.1-7.65-.21-15.29-.21-22.94,0-14.18,6.8-20.57,7.51-21.64,7.96-11.97-5.21-25.5-13.68-15.08Z"/>
      </g>
      <rect class="cls-1" width="404.94" height="404.94"/>
    </g>
  </g>
</svg>