<?xml version="1.0" encoding="utf-8"?>
<!-- Generator: Adobe Illustrator 27.2.0, SVG Export Plug-In . SVG Version: 6.00 Build 0)  -->
<svg version="1.1" id="Capa_2_00000069399953170967906720000001929849967163656065_"
	 xmlns="http://www.w3.org/2000/svg" xmlns:xlink="http://www.w3.org/1999/xlink" x="0px" y="0px" viewBox="0 0 404.9 404.9"
	 style="enable-background:new 0 0 404.9 404.9;" xml:space="preserve">
<style type="text/css">
	.st0{fill:#2F384C;}
	.st1{fill:none;}
</style>
<g>
	<g>
		<path class="st0" d="M128.4,271.3c9.4-0.8,3.2,72.5,9.8,118.6c0.6,4.4-2.2,4.9-4.2,1c-21.8-43.4-30.8-114.8-6.7-119.7
			C127.6,271.2,128,271.3,128.4,271.3L128.4,271.3z"/>
		<path class="st0" d="M265.3,242.3c-25.7,15.3-102.4,17.7-102.7,17.9c-54.7,42.2,83.1,13.5,107.7-15.5
			C272,242.7,267.9,240.7,265.3,242.3L265.3,242.3z"/>
		<path class="st0" d="M125.8,184.6c3.3,30.4,45.7,23.6,41.7-5.9C164.1,148.3,121.8,155.1,125.8,184.6z"/>
		<path class="st0" d="M106,211.9c3.1,2.7,7,1.9,8.7-1.9c7.5-17.7-13.8-60.9-20.9-86.8c-0.4-1.6-1.9-4.1-2.4-0.6
			C88.9,138.5,86,194.5,106,211.9L106,211.9z"/>
		<path class="st0" d="M227.1,166.6c-15.4,28.2-48.6,42.3-78.7,52.7c-0.5,0.2-0.8,0.7-0.7,1.2c7.3,38.1,76.5-22.4,81.9-53
			C229.8,166.1,227.7,165.4,227.1,166.6L227.1,166.6z"/>
		<path class="st0" d="M93.3,103.1c27.6-47.8,73.7-78.6,130.3-72.9c84.9,9.1,149,97.9,110.3,179c-14.1,30.3-38.7,54.5-66.1,72.9
			c-8.7,6.1-18.8,11.8-28.1,16.8c6.3-4.2,14-9.4,20.1-14c27.8-20.7,53.5-46.5,67.3-78.8c0.3-0.7,1.6-4,1.9-4.6
			c0.6-1.7,1.7-4.9,2.2-6.6c1.1-3.6,2.2-7.8,3-11.5l0.8-3.9l0.6-3.9c11.2-76.3-62.5-143.6-136.7-138.4
			C154.1,40.1,118.6,67.3,93.3,103.1L93.3,103.1L93.3,103.1z"/>
	</g>
	<rect class="st1" width="404.9" height="404.9"/>
</g>
<rect x="-418.9" y="660.1" class="st1" width="404.9" height="404.9"/>
<rect x="410.8" y="660.1" class="st1" width="404.9" height="404.9"/>
</svg>
