<?xml version="1.0" encoding="UTF-8"?>
<svg id="Capa_2" data-name="Capa 2" xmlns="http://www.w3.org/2000/svg" viewBox="0 0 346.04 267.43">
  <defs>
    <style>
      .cls-1 {
        fill: #2f384c;
      }
    </style>
  </defs>
  <g id="Capa_1-2" data-name="Capa 1">
    <g>
      <path class="cls-1" d="m188.66,250.26c3.67-12.34,10.29-48.23,10.29-48.23.68-4.3,4.3-7.52,8.64-7.72l75.63-5.6,62.82-4s-96.88-1.79-123.36-1.49c-18.88.22-32.92,2.01-39.55,5.82-2.65,1.52-4.27,4.35-4.27,7.41v70.97s6.13-4.83,9.8-17.17Z"/>
      <path class="cls-1" d="m274.23,11.57c-6.39-11.06-20.53-14.85-31.6-8.47-11.06,6.39-14.85,20.53-8.47,31.6,6.39,11.06,20.53,14.85,31.6,8.47,11.06-6.39,14.85-20.53,8.47-31.6Z"/>
      <path class="cls-1" d="m68.51,52.71c14.65-10.53,47.02-37.13,56.04-28.31,9.02,8.82,55.08,52.34,45.7,63.45-3.49,4.13-9.33,14.48-17.1,9.15-11.42-7.83-32.38-29.83-38.7-45.59-10.25,5.36-23.76,10.63-37.16,16.19-28.41,11.93-58.23,31-62.19,25.27-1.27-1.76,27.83-21.88,53.4-40.16Z"/>
      <path class="cls-1" d="m1.37,132.28c4.81-.61,78.12,17.97,91.58,19.25,20.38,1.93,71.71-7.26,83.36-10.87,4.39-1.36,8.78-3.5,12.55-6.25,6.19-4.51-19.3-33.61-33.8-22.63-4.69,3.55-34.91,14.65-67.49,15.84-36.51,1.33-76-7.06-85.97,1.64-1.48,1.29-2.61,3.32-.24,3.01Z"/>
      <path class="cls-1" d="m252.29,63.18c-2.18-3.95-8.85-2.83-13.31-1.35-4.3,1.43-5.95,4.39-4.93,8.03,12.48,44.63-17.48,88.39-26.43,100.93-.88,1.24,1.83,1.56,3.06,1.26,15.13-3.67,67.55-61.79,41.6-108.88Z"/>
      <path class="cls-1" d="m146.63,15.03c-5.88.27-11.82.56-17.6.87,6.62,6.8,14.8,12.42,22.2,18.39,32.56,5.39,61.71,10.92,62.79-4.01,1.52-18.66-33.34-16.81-67.39-15.25Z"/>
    </g>
  </g>
</svg>