<?xml version="1.0" encoding="UTF-8"?>
<svg id="Capa_2" data-name="Capa 2" xmlns="http://www.w3.org/2000/svg" xmlns:xlink="http://www.w3.org/1999/xlink" viewBox="0 0 17.46 36.54">
  <defs>
    <style>
      .cls-1, .cls-2 {
        fill: #fff;
      }

      .cls-2, .cls-3 {
        stroke: #fff;
        stroke-miterlimit: 10;
        stroke-width: .14px;
      }

      .cls-3, .cls-4 {
        fill: none;
      }

      .cls-5 {
        clip-path: url(#clippath);
      }
    </style>
    <clipPath id="clippath">
      <rect class="cls-4" x=".85" width="15.43" height="27.65"/>
    </clipPath>
  </defs>
  <g id="Capa_1-2" data-name="Capa 1">
    <g id="Capa_2-2" data-name="Capa 2">
      <g id="Layer_1" data-name="Layer 1">
        <g class="cls-5">
          <g>
            <path class="cls-1" d="m15.88,8.53v16.19c0,1.36-.98,2.34-2.34,2.34h-4.36c-.17.02-.32.12-.4.27-.08-.16-.23-.26-.41-.27H3.87c-1.28-.03-2.3-1.06-2.34-2.34V8.53h14.35m.14-.14H1.39v16.32c0,1.27,1.08,2.47,2.47,2.47h4.51c.28,0,.41.46.41.46,0,0,.15-.46.41-.46h4.35c1.42,0,2.47-1.05,2.47-2.47V8.39Z"/>
            <rect class="cls-3" x="1.98" y="9.01" width="13.45" height="2.91"/>
            <rect class="cls-1" x="1.98" y="12.57" width="13.45" height="3.46"/>
            <rect class="cls-3" x="1.98" y="16.65" width="13.45" height="5.81"/>
            <path class="cls-1" d="m1.98,24.76v-1.75h13.43s.02.78.02,1.75c0,.97-.79,1.75-1.75,1.75,0,0,0,0,0,0H3.73c-.97,0-1.75-.78-1.75-1.74,0,0,0,0,0,0"/>
            <polygon class="cls-1" points="3.04 11.51 3.04 9.6 4.42 9.6 4.42 9.83 3.29 9.83 3.29 10.41 4.35 10.41 4.35 10.64 3.29 10.64 3.29 11.29 4.46 11.29 4.46 11.51 3.04 11.51"/>
            <path class="cls-1" d="m4.88,10.9l.24-.02c0,.09.03.17.08.24.05.07.12.12.19.15.09.04.19.06.29.06.09,0,.17-.01.26-.04.06-.02.12-.06.16-.12.04-.05.06-.1.06-.16,0-.06-.02-.12-.06-.16-.05-.05-.1-.09-.17-.11-.05-.02-.17-.05-.34-.09-.13-.03-.25-.07-.37-.12-.08-.04-.15-.1-.2-.18-.04-.07-.07-.15-.07-.24,0-.1.03-.19.08-.27.06-.09.14-.15.24-.19.11-.04.23-.07.35-.07.13,0,.26.02.37.07.1.04.19.11.25.2.06.09.09.19.09.3l-.24.02c0-.1-.06-.2-.14-.27-.1-.07-.21-.1-.33-.09-.12,0-.24.02-.33.09-.07.05-.1.12-.1.2,0,.06.03.13.07.17.12.07.25.12.38.14.14.03.29.07.42.12.1.04.18.11.25.2.05.08.08.17.08.27,0,.1-.03.2-.09.29-.06.09-.15.16-.25.21-.12.05-.24.08-.37.07-.15,0-.3-.02-.44-.07-.11-.05-.2-.13-.27-.23-.07-.1-.1-.22-.1-.34"/>
            <path class="cls-1" d="m6.9,11.51v-1.91h.72c.1,0,.19,0,.29.02.08.01.16.04.24.09.07.05.12.11.15.19.04.08.06.17.06.26,0,.15-.05.3-.15.41-.1.11-.29.17-.56.17h-.49v.78h-.25Zm.25-1h.49c.12.01.25-.02.35-.09.07-.07.1-.16.1-.25,0-.07-.02-.14-.06-.2-.04-.06-.09-.1-.16-.11-.08-.02-.16-.02-.24-.02h-.49v.68Z"/>
            <path class="cls-1" d="m8.63,11.51l.73-1.91h.27l.78,1.91h-.29l-.23-.58h-.79l-.21.58h-.27Zm.55-.78h.65l-.2-.53c-.06-.16-.11-.29-.14-.4-.03.12-.06.25-.1.36l-.21.56Z"/>
            <path class="cls-1" d="m10.77,11.51v-1.91h.26l1,1.49v-1.49h.24v1.91h-.26l-1-1.5v1.5h-.24Zm.35-2.02c0-.08.02-.16.07-.22.05-.05.12-.08.19-.08.08,0,.15.03.22.07.04.02.08.04.12.04.02,0,.05,0,.06-.02.02-.03.03-.06.03-.09h.17c0,.08-.02.16-.07.22-.05.05-.11.08-.18.07-.07,0-.15-.04-.21-.08-.04-.02-.08-.04-.13-.05-.03,0-.05.01-.07.03-.02.03-.03.06-.03.09h-.18Z"/>
            <path class="cls-1" d="m12.64,11.51l.73-1.91h.27l.78,1.91h-.29l-.22-.58h-.8l-.21.58h-.27Zm.55-.78h.65l-.2-.53c-.06-.16-.11-.29-.14-.4-.02.12-.06.25-.1.36l-.21.56Z"/>
            <path class="cls-2" d="m11.21,3.03c.07,0,.14,0,.19,0,.14.01.27.04.41.09.69.23,1.2.82,1.3,1.54.13.04.27.07.41.08-.09-.98-.78-1.79-1.73-2.04-.13-.03-.26-.05-.39-.07-.06,0-.13,0-.19,0s-.14,0-.21.01c0,.06,0,.12,0,.19,0,.07,0,.13,0,.2.07,0,.14-.01.21-.01"/>
            <path class="cls-2" d="m13.71.52c-1.21,0-2.21.93-2.3,2.13.13,0,.26.03.39.06.07-1.06.98-1.87,2.04-1.8,1.06.07,1.87.98,1.8,2.04-.06,1.01-.9,1.8-1.92,1.8-.07,0-.13,0-.2,0-.14-.01-.27-.04-.41-.09-.69-.23-1.19-.82-1.3-1.53-.13-.04-.27-.07-.41-.09.09.97.78,1.79,1.72,2.03.13.03.26.05.39.06.06,0,.13,0,.19,0,1.28,0,2.31-1.03,2.31-2.31s-1.03-2.31-2.31-2.31"/>
            <path class="cls-2" d="m6,2.66c-.1-1.27-1.22-2.21-2.48-2.11-1.27.1-2.21,1.22-2.11,2.48.1,1.19,1.09,2.11,2.29,2.12.07,0,.14,0,.2,0,0-.06,0-.12,0-.18s0-.14,0-.21c-.07,0-.14.01-.21.01-1.06,0-1.93-.86-1.93-1.92,0-1.06.86-1.93,1.92-1.93,1.02,0,1.87.8,1.92,1.82v.11c0,.1,0,.2-.03.3-.11.71-.61,1.29-1.29,1.52-.02.1-.03.2-.03.3v.11c.95-.24,1.64-1.06,1.72-2.03,0-.07.01-.14.01-.21s0-.12,0-.17"/>
            <path class="cls-2" d="m6.21,3.04c.2,0,.4.03.6.09.69.22,1.2.82,1.31,1.54.13.04.27.07.41.09-.09-.98-.78-1.79-1.73-2.03-.13-.03-.26-.05-.39-.07-.06,0-.13,0-.19,0s-.14,0-.2,0c0,.06,0,.12,0,.17s0,.14-.01.21c.07,0,.14-.01.21-.01"/>
            <path class="cls-2" d="m8.13,5.08c-.07,1.06-.98,1.87-2.04,1.8-.97-.06-1.75-.84-1.8-1.81,0-.04,0-.07,0-.11,0-.1,0-.2.03-.3.11-.71.61-1.3,1.29-1.52.02-.1.02-.2.03-.3v-.11c-.94.25-1.63,1.05-1.72,2.02,0,.07,0,.14,0,.21s0,.12,0,.18c0,1.27,1.03,2.3,2.3,2.3s2.3-1.03,2.3-2.3c-.13-.01-.26-.03-.38-.06"/>
            <path class="cls-2" d="m8.7,4.77c-.06,0-.13,0-.19,0-.14-.01-.27-.04-.41-.09-.69-.23-1.19-.82-1.3-1.54-.13-.04-.26-.07-.4-.09.09.97.78,1.79,1.72,2.03.13.03.25.05.38.06.06,0,.13,0,.19,0s.14,0,.21,0c0-.06,0-.12,0-.19,0-.07,0-.13,0-.2-.07,0-.14.01-.21.01"/>
            <path class="cls-2" d="m11,2.65c0-1.27-1.04-2.3-2.31-2.3-1.27,0-2.3,1.04-2.3,2.31.13,0,.26.03.39.06.07-1.06.98-1.86,2.04-1.79.96.06,1.73.83,1.79,1.79,0,.04,0,.08,0,.12,0,.1,0,.19-.02.29-.11.71-.61,1.3-1.29,1.53-.02.1-.02.19-.02.29v.12c.94-.25,1.63-1.06,1.71-2.03.01-.07.02-.13.02-.2,0-.06,0-.13,0-.19"/>
            <path class="cls-2" d="m13.13,5.07c-.06,1.06-.97,1.87-2.03,1.8-.97-.06-1.75-.83-1.8-1.8v-.12c0-.1,0-.19.02-.29.11-.71.6-1.3,1.28-1.53.02-.09.02-.19.02-.28,0-.04,0-.08,0-.12-.94.25-1.63,1.06-1.71,2.03,0,.07,0,.13,0,.2,0,.06,0,.12,0,.19,0,1.27,1.03,2.3,2.3,2.3s2.3-1.03,2.3-2.3c-.13-.01-.26-.03-.39-.06"/>
          </g>
        </g>
        <polygon class="cls-1" points="4.51 36.49 5.37 36.49 5.37 36.11 4.82 36.11 4.82 35.58 5.37 35.58 5.37 35.2 4.82 35.2 4.82 34.77 5.37 34.77 5.37 34.4 4.51 34.4 4.51 36.49"/>
        <path class="cls-1" d="m5.49,36.22c.07.2.26.33.47.32.33,0,.52-.27.52-.64,0-.26-.14-.5-.36-.62-.16-.1-.3-.15-.3-.34-.01-.12.07-.22.19-.24,0,0,.01,0,.02,0,.1,0,.17.06.22.18l.18-.25c-.07-.17-.23-.27-.41-.27-.32,0-.52.26-.52.59,0,.29.13.44.34.61s.32.19.32.37-.09.27-.24.27c-.14-.01-.25-.11-.27-.25l-.17.28Z"/>
        <path class="cls-1" d="m6.64,36.49h.32v-.8h.09c.33,0,.52-.25.52-.65,0-.45-.19-.64-.56-.64h-.37v2.09Zm.32-1.15v-.61h.04c.17,0,.24.08.24.3s-.08.32-.24.32h-.04Z"/>
        <path class="cls-1" d="m7.42,36.49h.34l.1-.44h.57l.12.44h.36l-.57-2.09h-.36l-.56,2.09Zm.93-.8h-.41l.16-.67s.02-.12.04-.29c.02.15.03.25.04.28l.17.68Z"/>
        <path class="cls-1" d="m9.97,33.74h-.11c-.01.08-.04.12-.09.12-.02,0-.04,0-.06-.01l-.09-.04s-.06-.02-.09-.02c-.11,0-.17.11-.2.34h.11c.02-.08.04-.11.09-.11.02,0,.04,0,.07.01l.09.04s.05.02.07.01c.11,0,.17-.11.21-.34m-1.01,2.75h.3v-1.19c0-.14,0-.28-.02-.41.03.13.08.25.14.37l.67,1.24h.31v-2.09h-.3v1.17c0,.14,0,.27.02.41-.03-.13-.08-.25-.14-.37l-.65-1.22h-.33v2.1Z"/>
        <path class="cls-1" d="m11.31,36.15c-.28,0-.46-.31-.46-.7s.19-.7.46-.7.46.32.46.7-.19.7-.46.7m.78-.7c0-.28-.07-.55-.23-.78-.17-.31-.56-.41-.87-.24-.1.06-.18.14-.24.24-.16.23-.24.5-.23.78,0,.31.09.61.28.84.12.15.3.24.5.25.23-.01.43-.13.55-.32.15-.23.23-.5.23-.77"/>
        <polygon class="cls-1" points="12.26 36.49 13.08 36.49 13.08 36.11 12.58 36.11 12.58 34.4 12.26 34.4 12.26 36.49"/>
        <path class="cls-1" d="m1.24,31.7v-.45c-.12-.09-.28-.15-.44-.15-.49,0-.81.49-.81,1.1s.33,1.1.8,1.1c.16,0,.32-.06.44-.17v-.46c-.1.15-.26.24-.44.24-.3,0-.48-.28-.48-.72s.2-.74.51-.74c.17,0,.32.1.41.23"/>
        <path class="cls-1" d="m2.17,32.9c-.28,0-.46-.31-.46-.7s.19-.7.46-.7.46.32.46.7-.19.7-.46.7m.78-.7c0-.28-.08-.55-.24-.78-.12-.19-.32-.31-.54-.32-.23.01-.43.13-.55.32-.16.23-.23.5-.23.78,0,.31.09.61.28.85.12.15.3.24.5.25.22-.01.42-.13.54-.32.16-.23.23-.5.23-.78"/>
        <path class="cls-1" d="m2.99,33.25h.3l.11-1.26c0-.1.02-.21.02-.36v-.06c.03.2.05.32.05.35l.31,1.34h.18l.31-1.34c.02-.12.04-.23.05-.35,0,.03,0,.05,0,.08,0,.12.01.23.02.34l.11,1.26h.3l-.22-2.09h-.33l-.29,1.23c-.02.09-.03.19-.04.29,0-.1-.02-.19-.04-.28l-.28-1.23h-.33l-.22,2.09Z"/>
        <rect class="cls-1" x="4.86" y="31.15" width=".31" height="2.09"/>
        <polygon class="cls-1" points="5.96 31.53 6.32 31.53 6.32 31.15 5.29 31.15 5.29 31.53 5.65 31.53 5.65 33.25 5.96 33.25 5.96 31.53"/>
        <path class="cls-1" d="m7.16,30.43h-.26l-.2.53h.14l.32-.53Zm-.72,2.82h.86v-.38h-.54v-.52h.54v-.38h-.54v-.43h.54v-.38h-.86v2.09Z"/>
        <path class="cls-1" d="m8.78,32.9c-.28,0-.46-.31-.46-.7s.19-.7.46-.7.46.32.46.7-.19.7-.46.7m.78-.7c0-.28-.07-.55-.23-.78-.18-.31-.57-.41-.87-.24-.1.06-.18.14-.24.24-.15.23-.23.5-.23.78,0,.31.09.61.28.85.12.15.3.24.5.25.23-.01.43-.13.55-.32.16-.23.23-.5.23-.78"/>
        <polygon class="cls-1" points="9.74 33.25 10.55 33.25 10.55 32.86 10.05 32.86 10.05 31.15 9.74 31.15 9.74 33.25"/>
        <path class="cls-1" d="m11.12,30.43h-.26l-.2.53h.14l.32-.53Zm-.45,2.82h.31v-2.09h-.32v2.09Z"/>
        <path class="cls-1" d="m11.1,33.25h.29l.11-1.26c0-.1.02-.21.02-.36v-.06c.03.2.05.32.06.35l.31,1.34h.18l.31-1.34c.02-.12.04-.23.05-.35v.08c0,.12.01.23.02.34l.11,1.26h.3l-.22-2.09h-.32l-.29,1.23c-.02.09-.03.19-.04.29,0-.1-.02-.19-.04-.28l-.28-1.23h-.33l-.22,2.09Z"/>
        <path class="cls-1" d="m12.95,33.25h.32v-.8h.09c.33,0,.52-.25.52-.65,0-.45-.19-.64-.56-.64h-.36v2.09Zm.32-1.15v-.61h.04c.17,0,.24.09.24.3,0,.23-.08.32-.24.32h-.04Z"/>
        <rect class="cls-1" x="14.01" y="31.15" width=".31" height="2.09"/>
        <path class="cls-1" d="m15.75,31.7v-.45c-.12-.09-.28-.15-.44-.15-.49,0-.81.48-.81,1.1s.33,1.1.8,1.1c.16,0,.32-.06.44-.17v-.46c-.1.15-.26.24-.44.24-.3,0-.48-.28-.48-.72s.2-.74.51-.74c.17,0,.32.1.41.23"/>
        <path class="cls-1" d="m16.68,32.9c-.28,0-.46-.31-.46-.7s.19-.7.46-.7.46.32.46.7-.19.7-.46.7m.78-.7c0-.28-.07-.55-.23-.78-.12-.19-.33-.31-.55-.32-.23.01-.43.13-.55.32-.16.23-.23.5-.23.78,0,.31.09.61.28.85.12.15.3.24.5.25.23-.01.43-.13.55-.32.16-.23.23-.5.23-.78"/>
      </g>
    </g>
  </g>
</svg>