<?xml version="1.0" encoding="UTF-8"?>
<svg id="Capa_2" data-name="Capa 2" xmlns="http://www.w3.org/2000/svg" viewBox="0 0 379.73 303.46">
  <defs>
    <style>
      .cls-1 {
        fill: #2f384c;
      }
    </style>
  </defs>
  <g id="Capa_1-2" data-name="Capa 1">
    <g>
      <path class="cls-1" d="m0,303.46l115.86-3,263.87-4s-309.63-12.87-336.16-9.02c-26.53,3.85-43.57,16.02-43.57,16.02Z"/>
      <g>
        <path class="cls-1" d="m137.39,109.66c-6.38-11.05-20.52-14.84-31.57-8.46-11.05,6.38-14.84,20.52-8.46,31.57,6.38,11.05,20.52,14.84,31.57,8.46,11.05-6.38,14.84-20.52,8.46-31.57Z"/>
        <path class="cls-1" d="m126.07,157.1c-12-4.35-14.7,12.7-17.49,29.3-2.19,13-4.16,26.6-4.15,31.64,0,1.25,1.09,1.63,1.69.74,2.7-3.99,8.62-16.55,14.32-28.36,7.54-15.54,15.79-29.72,5.63-33.32Z"/>
        <path class="cls-1" d="m150.87,149.07c-18.7.13-13.79,34.67-9.23,68.42,3.57,26.51,7.75,54.03,10.32,63.59.39,1.45,2.47,1.35,2.73-.14,1.69-9.8,3.45-37.73,5.3-64.11,2.52-35.06,6.69-68.02-9.11-67.76Z"/>
        <path class="cls-1" d="m205.19,90.86C192.18,89.93,92.74.09,66.68,0c-2.04,0-4.26.79-2.1,2.17,4.38,2.79,58.43,56.86,68.81,67.01,15.71,15.36,22.69,22.59,39.19,37.09,9.67,8.49,20.08,16.29,32.04,21.42,4.51,1.93,9.5,3.26,14.37,3.7,7.98.72,5.17-39.18-13.8-40.53Z"/>
        <path class="cls-1" d="m272.49,16.96c-21.64,1.8-72.04,2.77-73.4,17.67-1.35,14.9,30.48,90.09,50.2,80.73,15.9-7.55-.83-34.38-19.84-64.17,13.57-3.07,30.05-8.73,46.64-14.04,35.31-11.15,77-22.61,76.63-25.16-.22-2.57-42.56,1.73-80.24,4.96Z"/>
      </g>
    </g>
  </g>
</svg>