<?xml version="1.0" encoding="UTF-8"?>
<svg id="Capa_2" data-name="Capa 2" xmlns="http://www.w3.org/2000/svg" viewBox="0 0 24.07 20.17">
  <defs>
    <style>
      .cls-1 {
        fill: #fff;
      }
    </style>
  </defs>
  <g id="Capa_1-2" data-name="Capa 1">
    <g>
      <path class="cls-1" d="m5.33,4.2c-.93,1.11,7.03,3.98,4.66,15.62-.05.26.24.45.45.29,2.94-2.19,5.71-8.74,5.41-13.18-.01-.17-.26-.21-.31-.04-1.8,7.3-9.3-3.77-10.21-2.68Z"/>
      <ellipse class="cls-1" cx="11.57" cy="2.4" rx="1.76" ry="2.42" transform="translate(-.24 2.04) rotate(-9.95)"/>
      <path class="cls-1" d="m23.07,10.15c-.26-.23-.55-.38-.87-.47-.31-.08-.69-.12-1.13-.12h-1.66c-.29,0-.51.07-.65.21s-.21.36-.21.65v4.6c0,.21.02.38.06.52.04.15.13.26.26.34.13.08.31.12.56.12h1.66c.29,0,.56-.02.79-.06.24-.04.46-.1.66-.2.21-.09.4-.22.57-.38.22-.2.4-.43.54-.69.14-.26.24-.55.31-.86.07-.31.1-.67.1-1.05,0-1.16-.34-2.04-1.01-2.61Zm-.44,2.6c0,.85-.2,1.45-.61,1.8-.09.08-.19.14-.31.18-.12.04-.24.07-.35.08-.12.01-.28.02-.49.02h-.88v-4.1h.76c.38,0,.7.04.97.12.25.08.47.26.65.55.18.29.27.75.27,1.35Z"/>
      <path class="cls-1" d="m6.29,15.89c-.29,0-.56-.2-.63-.5l-.64-2.75-.98,2.82c-.09.26-.34.44-.62.43-.28,0-.52-.19-.61-.45l-.89-2.84-.65,2.79c-.08.35-.43.56-.78.48-.35-.08-.56-.43-.48-.78l1.15-4.93c.07-.29.33-.5.63-.5h.1c.28,0,.53.18.62.45l.95,3.06,1.07-3.08c.09-.26.34-.43.61-.43.3,0,.56.21.63.5l1.15,4.93c.08.35-.14.7-.48.78-.05.01-.1.02-.15.02Z"/>
    </g>
  </g>
</svg>