<?xml version="1.0" encoding="utf-8"?>
<!-- Generator: Adobe Illustrator 27.2.0, SVG Export Plug-In . SVG Version: 6.00 Build 0)  -->
<svg version="1.1" id="Capa_2_00000013151805518017607830000011679035560912965310_"
	 xmlns="http://www.w3.org/2000/svg" xmlns:xlink="http://www.w3.org/1999/xlink" x="0px" y="0px" viewBox="0 0 404.9 404.9"
	 style="enable-background:new 0 0 404.9 404.9;" xml:space="preserve">
<style type="text/css">
	.st0{fill:#2F384C;}
	.st1{fill:none;}
</style>
<g>
	<g>
		<path class="st0" d="M238.2,376.7c3.7-12.3,10.3-48.2,10.3-48.2c0.7-4.3,4.3-7.5,8.6-7.7l75.6-5.6l62.8-4c0,0-96.9-1.8-123.4-1.5
			c-18.9,0.2-32.9,2-39.6,5.8c-2.7,1.5-4.3,4.4-4.3,7.4v71C228.4,393.9,234.5,389.1,238.2,376.7L238.2,376.7z"/>
		<path class="st0" d="M323.8,138c-6.4-11.1-20.5-14.8-31.6-8.5c-11.1,6.4-14.8,20.5-8.5,31.6c6.4,11.1,20.5,14.9,31.6,8.5
			C326.4,163.2,330.2,149.1,323.8,138z"/>
		<path class="st0" d="M118.1,179.2c14.7-10.5,47-37.1,56-28.3c9,8.8,55.1,52.3,45.7,63.4c-3.5,4.1-9.3,14.5-17.1,9.1
			c-11.4-7.8-32.4-29.8-38.7-45.6c-10.2,5.4-23.8,10.6-37.2,16.2c-28.4,11.9-58.2,31-62.2,25.3C63.4,217.6,92.5,197.5,118.1,179.2
			L118.1,179.2z"/>
		<path class="st0" d="M50.9,258.8c4.8-0.6,78.1,18,91.6,19.2c20.4,1.9,71.7-7.3,83.4-10.9c4.4-1.4,8.8-3.5,12.6-6.2
			c6.2-4.5-19.3-33.6-33.8-22.6c-4.7,3.6-34.9,14.6-67.5,15.8c-36.5,1.3-76-7.1-86,1.6C49.7,257,48.6,259,50.9,258.8L50.9,258.8z"/>
		<path class="st0" d="M301.9,189.6c-2.2-3.9-8.8-2.8-13.3-1.4c-4.3,1.4-5.9,4.4-4.9,8c12.5,44.6-17.5,88.4-26.4,100.9
			c-0.9,1.2,1.8,1.6,3.1,1.3C275.4,294.8,327.8,236.7,301.9,189.6L301.9,189.6z"/>
		<path class="st0" d="M196.2,141.5c-5.9,0.3-11.8,0.6-17.6,0.9c6.6,6.8,14.8,12.4,22.2,18.4c32.6,5.4,61.7,10.9,62.8-4
			C265.1,138.1,230.2,139.9,196.2,141.5z"/>
	</g>
	<rect class="st1" width="404.9" height="404.9"/>
</g>
</svg>
