<?xml version="1.0" encoding="UTF-8"?>
<svg id="Capa_2" data-name="Capa 2" xmlns="http://www.w3.org/2000/svg" viewBox="0 0 350.71 336.44">
  <defs>
    <style>
      .cls-1 {
        fill: #2f384c;
      }
    </style>
  </defs>
  <g id="Capa_1-2" data-name="Capa 1">
    <g>
      <path class="cls-1" d="m168.78,162.89c-2.57,3.48-4.48,7.55-5.71,11.61-3.27,10.75-3.69,21.89-3.17,32.9.89,18.8,2.19,37.61,4.16,56.33,1.31,12.37,2.96,24.64,1.19,37.08-.47,3.31-.89,6.63-1.29,9.98s2.08,3.64,3.06,1.6c2.96-6.11,5.94-12.22,8.48-18.47,4.33-10.66,6.99-21.69,6.49-33.19-.55-12.57-1.12-25.15-1.51-37.73-.72-23.32,9.79-34.18,10.88-35.98,12.07-20.08-9.6-41.69-22.57-24.14Z"/>
      <path class="cls-1" d="m181.41,72.66c-14.01-.34-25.17-11.47-24.76-24.69.42-13.61,11.99-24.43,25.81-23.9,13.03.49,24.03,10.07,24.14,24.11.11,14.19-11.23,24.53-25.19,24.49Z"/>
      <path class="cls-1" d="m350.71,291.52c-91.9,49.51-212.84,60.64-310.12,20.58-3.21-1.44-12.53-5.27-15.63-6.98-2.47-1.24-7.7-3.84-10.18-5.11-4.98-2.72-9.91-5.6-14.78-8.5,14.37,4.84,28.53,9.72,43,13.48,101.5,28.02,208.03,17.07,307.71-13.48h0Z"/>
      <path class="cls-1" d="m155.05,99.96c4.44,1.87,7.86-.73,7.58-5.85-1.26-23.68-43.47-64.93-63.18-91.96-1.21-1.66-3.89-3.98-2.71.28,5.43,19.53,30.06,85.61,58.31,97.54Z"/>
    </g>
  </g>
</svg>