<?xml version="1.0" encoding="utf-8"?>
<!-- Generator: Adobe Illustrator 27.2.0, SVG Export Plug-In . SVG Version: 6.00 Build 0)  -->
<svg version="1.1" id="Capa_2_00000015344906316535423050000014320056276580277386_"
	 xmlns="http://www.w3.org/2000/svg" xmlns:xlink="http://www.w3.org/1999/xlink" x="0px" y="0px" viewBox="0 0 404.9 404.9"
	 style="enable-background:new 0 0 404.9 404.9;" xml:space="preserve">
<style type="text/css">
	.st0{fill:#2F384C;}
	.st1{fill:none;}
</style>
<g>
	<g>
		<path class="st0" d="M195.9,220.6c-2.6,3.5-4.5,7.6-5.7,11.6c-3.3,10.8-3.7,21.9-3.2,32.9c0.9,18.8,2.2,37.6,4.2,56.3
			c1.3,12.4,3,24.6,1.2,37.1c-0.5,3.3-0.9,6.6-1.3,10c-0.4,3.2,2.1,3.6,3.1,1.6c3-6.1,5.9-12.2,8.5-18.5c4.3-10.7,7-21.7,6.5-33.2
			c-0.6-12.6-1.1-25.1-1.5-37.7c-0.7-23.3,9.8-34.2,10.9-36C230.5,224.7,208.9,203.1,195.9,220.6L195.9,220.6z"/>
		<path class="st0" d="M208.5,130.4c-14-0.3-25.2-11.5-24.8-24.7c0.4-13.6,12-24.4,25.8-23.9c13,0.5,24,10.1,24.1,24.1
			C233.8,120.1,222.5,130.4,208.5,130.4L208.5,130.4z"/>
		<path class="st0" d="M377.8,349.2c-91.9,49.5-212.8,60.6-310.1,20.6c-3.2-1.4-12.5-5.3-15.6-7c-2.5-1.2-7.7-3.8-10.2-5.1
			c-5-2.7-9.9-5.6-14.8-8.5c14.4,4.8,28.5,9.7,43,13.5C171.6,390.7,278.1,379.8,377.8,349.2L377.8,349.2L377.8,349.2z"/>
		<path class="st0" d="M182.2,157.7c4.4,1.9,7.9-0.7,7.6-5.9c-1.3-23.7-43.5-64.9-63.2-92c-1.2-1.7-3.9-4-2.7,0.3
			C129.3,79.7,153.9,145.8,182.2,157.7L182.2,157.7z"/>
	</g>
	<rect class="st1" width="404.9" height="404.9"/>
</g>
</svg>
