<?xml version="1.0" encoding="UTF-8"?>
<svg id="Capa_2" data-name="Capa 2" xmlns="http://www.w3.org/2000/svg" viewBox="0 0 379.73 325.28">
  <defs>
    <style>
      .cls-1 {
        fill: #2f384c;
      }
    </style>
  </defs>
  <g id="Capa_1-2" data-name="Capa 1">
    <g>
      <path class="cls-1" d="m0,325.28l115.86-3,263.87-4s-309.63-12.87-336.16-9.02c-26.53,3.85-43.57,16.02-43.57,16.02Z"/>
      <g>
        <circle id="circle3047-0-0" class="cls-1" cx="90.85" cy="72.06" r="19.82"/>
        <path class="cls-1" d="m39.29,81.18c-10.39,15.45-36.74,49.72-27.49,58.62,9.25,8.89,76.66,27.86,80.96,9.64,3.47-14.69-23.47-17.86-53.6-21.1,5.22-10.73,10.25-24.8,15.59-38.76,11.45-29.62,2.99-42.87,1.09-43.98-1.84-1.23,1.48,8.62-16.54,35.58Z"/>
        <path class="cls-1" d="m212.44,286.4c-3.19-3.11-39.08-57.98-46.01-68.32-10.49-15.65-15.08-22.94-26.4-38.01-6.62-8.83-14-17.2-23.14-23.6-3.45-2.41-7.4-4.4-11.41-5.63-6.58-2-11.21,31.98,4.48,36.45,10.76,3.06,78.48,95.92,100.35,100.56,1.71.36,3.72.08,2.14-1.46Z"/>
        <path class="cls-1" d="m113.27,109.97c-2.7,2.25-6.12-.98-8.14-3.69-1.95-2.62-1.8-5.47.12-7.9,23.58-29.74,22.45-73.87,21.92-86.64-.05-1.26,1.63-.55,2.22.12,7.35,8.18,16.09,71.28-16.12,98.11Z"/>
        <path class="cls-1" d="m95.68.58c-1.08-1.45-1.66.18-1.67,1.06-.15,14.3-4.53,39.74,1.73,47.03,1.52,1.78,5.61.81,6.78-1.81,5.55-12.45-1.88-39.6-6.84-46.28Z"/>
      </g>
      <g>
        <circle id="circle3047-0-0-2" data-name="circle3047-0-0" class="cls-1" cx="247.71" cy="72.06" r="19.82"/>
        <path class="cls-1" d="m196.15,81.18c-10.39,15.45-36.74,49.72-27.49,58.62,9.25,8.89,76.66,27.86,80.96,9.64,3.47-14.69-23.47-17.86-53.6-21.1,5.22-10.73,10.25-24.8,15.59-38.76,11.45-29.62,2.99-42.87,1.09-43.98-1.84-1.23,1.48,8.62-16.54,35.58Z"/>
        <path class="cls-1" d="m369.29,286.4c-3.19-3.11-39.08-57.98-46.01-68.32-10.49-15.65-15.08-22.94-26.4-38.01-6.62-8.83-14-17.2-23.14-23.6-3.45-2.41-7.4-4.4-11.41-5.63-6.58-2-11.21,31.98,4.48,36.45,10.76,3.06,78.48,95.92,100.35,100.56,1.71.36,3.72.08,2.14-1.46Z"/>
        <path class="cls-1" d="m270.12,109.97c-2.7,2.25-6.12-.98-8.14-3.69-1.95-2.62-1.8-5.47.12-7.9,23.58-29.74,22.45-73.87,21.92-86.64-.05-1.26,1.63-.55,2.22.12,7.35,8.18,16.09,71.28-16.12,98.11Z"/>
        <path class="cls-1" d="m252.54.58c-1.08-1.45-1.66.18-1.67,1.06-.15,14.3-4.53,39.74,1.73,47.03,1.52,1.78,5.61.81,6.78-1.81,5.55-12.45-1.88-39.6-6.84-46.28Z"/>
      </g>
    </g>
  </g>
</svg>